<svg id="スタンプ追加ボタン" xmlns="http://www.w3.org/2000/svg" width="25.36" height="16.238" viewBox="0 0 25.36 16.238">
  <path id="パス_72" data-name="パス 72" d="M1618.962,485.294v-4.608h5.643a4.876,4.876,0,0,0-.256-.646,4.467,4.467,0,0,0-8.256.581c-.028.086-.062.171-.1.265-.142-.073-.129-.2-.163-.307a4.328,4.328,0,0,0-4-3.027,4.23,4.23,0,0,0-4.365,2.787,6.34,6.34,0,0,0,1.465,7.091,28.948,28.948,0,0,0,3.43,2.92,35.513,35.513,0,0,1,3.314,2.733c.178.174.359.222.549.036a58.548,58.548,0,0,1,4.556-3.7,18.57,18.57,0,0,0,2.608-2.423,6.933,6.933,0,0,0,1.063-1.7Z" transform="translate(-1606.965 -477)" fill="#d35f55"/>
  <rect id="長方形_39" data-name="長方形 39" width="11.52" height="2.095" transform="translate(13.84 4.713)" fill="#4d4d4d"/>
  <rect id="長方形_40" data-name="長方形 40" width="11.52" height="2.095" transform="translate(20.648) rotate(90)" fill="#4d4d4d"/>
</svg>
