<svg id="レイヤー_1" data-name="レイヤー 1" xmlns="http://www.w3.org/2000/svg" xmlns:xlink="http://www.w3.org/1999/xlink" viewBox="0 0 1920 1080"><defs><style>.cls-1,.cls-11{fill:none;}.cls-2{clip-path:url(#clip-path);}.cls-3{fill:#36b0cc;}.cls-4,.cls-7{fill:#fff;}.cls-5{opacity:0.67;}.cls-6{fill:#d35f55;}.cls-7{opacity:0.23;}.cls-8{opacity:0.49;}.cls-9{fill:#333;}.cls-10{fill:#e5807a;}.cls-11{stroke:#e5807a;stroke-miterlimit:10;stroke-width:4.66px;}.cls-12{opacity:0.32;}.cls-13{fill:#4d4d4d;}.cls-14{fill:#c95c53;}.cls-15{fill:#f4d24b;}.cls-16{opacity:0.9;}.cls-17,.cls-18{fill:#f2f0ed;}.cls-18{fill-rule:evenodd;}.cls-19{fill:#323333;}</style><clipPath id="clip-path"><rect class="cls-1" y="-86" width="1920" height="1248"/></clipPath></defs><g class="cls-2"><rect class="cls-3" x="-106" y="-213" width="2104" height="1519"/><rect class="cls-4" x="146.36" y="148.23" width="707.29" height="707.29" transform="translate(501.32 -206.56) rotate(45)"/><g class="cls-5"><rect class="cls-4" x="-302.44" y="643.08" width="620" height="701.98" transform="translate(-700.69 296.5) rotate(-45)"/></g><rect class="cls-6" x="-204.08" y="-296.45" width="503" height="720.06" transform="translate(58.85 -14.91) rotate(45)"/><path class="cls-4" d="M1209.18,627.31h-34.11c-.86,0-1.29-.38-1.29-1.13V603.71c0-1,.43-1.34,1.29-1.34h29.82V587.3h-30.31a.72.72,0,0,1-.75-.81v-3.21c0-.59.27-.81.75-.81h34a1.13,1.13,0,0,1,1.29,1.24v22c0,.86-.43,1.29-1.35,1.29h-29.76v15.44h30.41c.53,0,.75.27.75.86v3.22C1209.93,627.1,1209.71,627.31,1209.18,627.31Z"/><path class="cls-4" d="M1250.15,627.31h-33.52c-.91,0-1.28-.32-1.28-1.18V583.71c0-.86.37-1.24,1.18-1.24h33.68c.86,0,1.29.38,1.29,1.24v42.42C1251.5,626.93,1251.07,627.31,1250.15,627.31Zm-3.7-40h-26.06v35.13h26.06Z"/><path class="cls-4" d="M1292.26,627.31h-34.11c-.86,0-1.29-.38-1.29-1.13V603.71c0-1,.43-1.34,1.29-1.34H1288V587.3h-30.31a.72.72,0,0,1-.75-.81v-3.21c0-.59.27-.81.75-.81h34a1.13,1.13,0,0,1,1.29,1.24v22c0,.86-.43,1.29-1.35,1.29h-29.76v15.44h30.41c.53,0,.75.27.75.86v3.22C1293,627.1,1292.79,627.31,1292.26,627.31Z"/><path class="cls-4" d="M1333.23,627.31h-33.52c-.91,0-1.28-.32-1.28-1.18V583.71c0-.86.37-1.24,1.18-1.24h33.68c.86,0,1.29.38,1.29,1.24v42.42C1334.58,626.93,1334.15,627.31,1333.23,627.31Zm-3.7-40h-26.06v35.13h26.06Z"/><path class="cls-4" d="M1346.11,627.31h-4.83c-.91,0-1.29-.38-1.29-1.23v-3.7a1.12,1.12,0,0,1,1.29-1.29h4.83c.85,0,1.28.43,1.28,1.34v3.65C1347.39,626.93,1347,627.31,1346.11,627.31Z"/><path class="cls-4" d="M1388.05,627.58h-3.49c-.53,0-.75-.22-.75-.75v-13.3h-29.87c-.91,0-1.29-.38-1.29-1.29V583.12c0-.54.21-.81.8-.81h3.44c.53,0,.8.27.8.86v25.48h26.12V583.12c0-.59.22-.81.75-.81h3.49a.71.71,0,0,1,.8.81v43.65A.76.76,0,0,1,1388.05,627.58Z"/><path class="cls-4" d="M1400.44,627.31h-4.83c-.91,0-1.29-.38-1.29-1.23v-3.7a1.12,1.12,0,0,1,1.29-1.29h4.83c.86,0,1.28.43,1.28,1.34v3.65C1401.72,626.93,1401.3,627.31,1400.44,627.31Z"/><path class="cls-4" d="M1442.43,627.31h-34.11c-.86,0-1.29-.38-1.29-1.13V603.71c0-1,.43-1.34,1.29-1.34h29.82V587.3h-30.3a.72.72,0,0,1-.75-.81v-3.21c0-.59.27-.81.75-.81h34a1.13,1.13,0,0,1,1.29,1.24v22c0,.86-.43,1.29-1.34,1.29H1412v15.44h30.41c.54,0,.75.27.75.86v3.22C1443.18,627.1,1443,627.31,1442.43,627.31Z"/><path class="cls-4" d="M1453.11,627.31h-3.49c-.54,0-.8-.21-.8-.75V583.17c0-.48.21-.75.8-.75h3.49c.59,0,.85.27.85.86v43.28C1454,627.1,1453.64,627.31,1453.11,627.31Z"/><rect class="cls-7" x="-201.49" y="-294.04" width="503" height="720.06" transform="translate(61.31 -16.04) rotate(45)"/><path class="cls-4" d="M1477.44,627.36h-2.8a.6.6,0,0,1-.6-.3l-3.33-5.87a1.6,1.6,0,0,1-.22-.56l-2-9.65c0-.11,0-.19,0-.3s0-.22,0-.3l2-9.65a1.15,1.15,0,0,1,.22-.56l3.33-5.94a.62.62,0,0,1,.6-.38h2.81c.22,0,.33.11.33.26a.68.68,0,0,1-.07.23l-3.78,6.51-2,9.79,2,9.8,3.78,6.47a1.28,1.28,0,0,1,.07.26C1477.78,627.32,1477.67,627.36,1477.44,627.36Z"/><path class="cls-4" d="M1514.13,627h-29.81c-.6,0-.86-.26-.86-.86V596.28a.47.47,0,0,1,.52-.52h2.47a.51.51,0,0,1,.56.56v27.19h10.59V596.28a.46.46,0,0,1,.48-.52h2.25c.41,0,.52.22.52.56v27.19h10.55V596.28a.47.47,0,0,1,.52-.52h2.51a.47.47,0,0,1,.52.52v29.81C1515,626.69,1514.65,627,1514.13,627Z"/><path class="cls-4" d="M1548.75,626.91h-23.52a.71.71,0,0,1-.82-.82V604.66c0-.56.26-.86.82-.86h23.23a.79.79,0,0,1,.85.9v11.1c0,.6-.29.86-.89.87h-20.5v7.19h20.83a.5.5,0,0,1,.57.56v2C1549.31,626.76,1549.13,626.91,1548.75,626.91Zm-3-20h-17.84v6.73h17.84Z"/><path class="cls-4" d="M1585.44,626.91h-22.85c-.6,0-.86-.26-.86-.82V604.66a.75.75,0,0,1,.86-.86h20.19v-8a.48.48,0,0,1,.53-.52h2.46c.38,0,.53.19.53.56v30.29A.76.76,0,0,1,1585.44,626.91Zm-2.66-19.71h-17.57v16.35h17.57Z"/><path class="cls-4" d="M1604.66,611l-2,9.65a1.6,1.6,0,0,1-.22.56l-3.33,5.87c-.11.23-.3.3-.6.3h-2.77c-.26,0-.37,0-.37-.19a1.28,1.28,0,0,1,.07-.26l3.82-6.47,1.94-9.8-1.94-9.79-3.82-6.51a.68.68,0,0,1-.07-.23c0-.15.11-.26.37-.26h2.81a.61.61,0,0,1,.56.38l3.33,5.94a1.15,1.15,0,0,1,.22.56l2,9.65a.92.92,0,0,1,0,.3A1,1,0,0,1,1604.66,611Z"/><path d="M256.9,422.77a.58.58,0,0,1-.36-.25l-8.71-10.39v11.76a.62.62,0,0,1-.71.71h-2.84c-.51,0-.76-.2-.76-.71V412.13l-8.72,10.39c-.15.2-.26.25-.36.25s-.1-.1-.1-.4v-4.56a1,1,0,0,1,.31-.76l8.26-9.23h-7.86c-.51,0-.71-.2-.71-.76v-2.43c0-.56.2-.71.66-.71h8.52V398.6h-8.47c-.51,0-.71-.21-.71-.71V395.5c0-.5.2-.76.66-.76h2.18v-8.66h-2.13a.62.62,0,0,1-.71-.71v-2.44c0-.45.2-.71.66-.71h8.52V380a.67.67,0,0,1,.76-.76h2.84a.69.69,0,0,1,.71.76v2.23h8.51a.68.68,0,0,1,.76.71v2.44a.68.68,0,0,1-.76.71h-2v8.66h2a.75.75,0,0,1,.76.76v2.39c0,.5-.3.71-.76.71h-8.51v5.32h8.51c.46,0,.76.2.76.71v2.43a.71.71,0,0,1-.76.76h-7.91l8.27,9.23a1.13,1.13,0,0,1,.4.81v4.51C257.1,422.67,257.05,422.77,256.9,422.77Zm-6.34-36.69h-9.63v8.66h9.63Zm28.9,11.4h-3.71v26.41c0,.51-.25.71-.7.71h-2.44c-.5,0-.76-.2-.76-.61V397.48H264.5v5.63l-2,20.88a.75.75,0,0,1-.86.61h-2.38c-.46,0-.66-.2-.66-.61l1.88-20.88V381.26c0-.51.15-.66.71-.71l17.64-1.27c.5,0,.66.31.66.71v2.44a.75.75,0,0,1-.77.86l-14.19.91v9.23h15c.4,0,.71.2.71.76v2.58A.67.67,0,0,1,279.46,397.48Z"/><path d="M327,423.48H290.15c-.76,0-1.32-.3-1.32-1.26V381.11c0-.46.21-.71.76-.71h3.15a.62.62,0,0,1,.71.71V419h30.11V397.48a.62.62,0,0,1,.71-.71h3.19a.66.66,0,0,1,.71.71v24.84A1,1,0,0,1,327,423.48Z"/><path d="M359.14,423.54H338.91c-.76,0-1.21-.26-1.21-1.27v-40.5c0-.46.2-.71.66-.71h3.14a.64.64,0,0,1,.71.71v37.3h16.93c.46,0,.76.21.76.71v3.05A.68.68,0,0,1,359.14,423.54Zm19.57-2.34h-3.15c-.5,0-.71-.2-.71-.61V387.75h-9.22c-.56,0-.76-.2-.76-.71V383.9c0-.51.2-.76.66-.76H378.3a1.08,1.08,0,0,1,1.17,1.21v36.19C379.47,421,379.21,421.2,378.71,421.2Z"/><path d="M398.12,387.29a2.17,2.17,0,0,0-.25-.05l-10.95-3.5c-.41-.15-.51-.3-.51-.71v-3c0-.4.1-.55.41-.55.1,0,.2.05.3.05l10.95,3.44a.65.65,0,0,1,.51.66v3.09C398.58,387.09,398.42,387.29,398.12,387.29Zm.05,12.42a.63.63,0,0,1-.3,0l-10.95-3.45a.62.62,0,0,1-.51-.71v-3.09c0-.4.1-.56.41-.56.1,0,.2,0,.3,0l10.95,3.55a.69.69,0,0,1,.51.66v3C398.58,399.51,398.47,399.71,398.17,399.71Zm1.06,5.73L391,424.24a.69.69,0,0,1-.76.46H387c-.41,0-.56-.1-.56-.4,0-.06,0-.16,0-.26l8.31-18.8a.72.72,0,0,1,.71-.51h3.35c.3,0,.51.15.51.35A1,1,0,0,1,399.23,405.44ZM431,396.67H419.21v7.86h10.08c.76,0,1.17.35,1.17,1.11v17.08a1,1,0,0,1-1.17,1.17H404.81c-.81,0-1.16-.35-1.16-1.17V405.64a1,1,0,0,1,1.11-1.11h10.09v-7.86H402.78a.64.64,0,0,1-.71-.71v-2.59c0-.5.21-.76.71-.76h12.07v-8.36l-10.7.71c-.45.05-.61-.3-.61-.71v-2.53c0-.46.21-.66.71-.71l25.55-1.73c.46,0,.66.26.66.66v2.54c0,.5-.25.71-.76.76l-10.49.76v8.61h11.86a.69.69,0,0,1,.71.76V396C431.78,396.42,431.52,396.67,431,396.67Zm-4.87,11.76H408V420h18.2Z"/><path d="M461.08,390.43h-9.53v3.15h8a1,1,0,0,1,1.16,1.16V408c0,.76-.4,1.12-1.16,1.12h-8v3.5H460a.64.64,0,0,1,.71.71v1.72c0,.46-.25.71-.76.71h-8.41V420l9.32-.51a.62.62,0,0,1,.71.71v1.62a.72.72,0,0,1-.71.81L437.66,424c-.41,0-.56-.3-.56-.71v-1.82c0-.51.2-.76.66-.76l9.83-.46v-4.46h-8.46a.62.62,0,0,1-.71-.71v-1.72a.62.62,0,0,1,.71-.71h8.46v-3.5h-8c-.81,0-1.16-.31-1.16-1.07V394.74a1,1,0,0,1,1.16-1.16h8v-3.15h-9.78c-.51,0-.71-.2-.71-.7V388c0-.45.2-.71.66-.71h9.83v-3.8l-8.61.61c-.41,0-.56-.26-.56-.66v-1.93c0-.5.2-.71.66-.76l21.08-1.42c.36,0,.56.21.56.61v1.83a.72.72,0,0,1-.71.81l-8.46.66v4.05h9.58a.65.65,0,0,1,.71.71v1.73C461.84,390.23,461.58,390.43,461.08,390.43Zm-12.93,6H442v3.65h6.18Zm0,6.23H442v3.65h6.18Zm9-6.23H451v3.65h6.18Zm0,6.23H451v3.65h6.18Zm23.27,21.24h-6.79c-.51,0-.71-.2-.71-.66v-2.58a.62.62,0,0,1,.71-.71h4.15V387.29h-6.69l-3.9,36.65a.66.66,0,0,1-.76.66h-2.28c-.46,0-.66-.15-.66-.46l3.8-36.85h-4c-.51,0-.76-.25-.76-.71V384a.62.62,0,0,1,.71-.71h4.46l.3-3.35a.81.81,0,0,1,.86-.76h2.38c.41,0,.66.15.66.51l-.4,3.6h9a1,1,0,0,1,1.17,1.16v38.27C481.66,423.54,481.25,423.89,480.44,423.89Z"/><path d="M531.79,388.1h-25v11.41h20.17v-4.16a.65.65,0,0,1,.71-.71h3.25a.66.66,0,0,1,.7.71v7.3a1,1,0,0,1-1.16,1.17H508.06v6.79c0,.51-.2.71-.7.71h-3.2a.62.62,0,0,1-.71-.71v-6.79h-9.32v15.3h37.51c.45,0,.71.26.71.77v2.88a.68.68,0,0,1-.77.77h-40.8c-1,0-1.32-.36-1.32-1.27V400.78c0-.87.36-1.27,1.27-1.27H502V388.1H488.9a.62.62,0,0,1-.71-.71v-3a.63.63,0,0,1,.71-.71H502V380.5a.62.62,0,0,1,.71-.71H506a.67.67,0,0,1,.76.76v3.09h25a.65.65,0,0,1,.71.71v3C532.5,387.85,532.24,388.1,531.79,388.1Z"/><path d="M583.14,424.09H564.43c-.81,0-1.16-.35-1.16-1.11V412.43h-8.22L544.56,424.3a1,1,0,0,1-.86.4h-4.21c-.3,0-.45-.05-.45-.2s.05-.15.2-.31l10.64-11.76h-7.45c-.76,0-1.11-.35-1.11-1.16V381.21c0-.76.35-1.17,1.11-1.17h37.36a1.05,1.05,0,0,1,1.17,1.17v30.06a1,1,0,0,1-1.17,1.16H567.57v7.51h15.62a.64.64,0,0,1,.71.71v2.68A.67.67,0,0,1,583.14,424.09Zm-6.54-40.3H545.68v6.09H576.6Zm0,9.43H545.68v6H576.6Zm0,9.43H545.68v6H576.6Z"/><path d="M631.14,423.54h-29c-.5,0-.76-.21-.76-.77v-3a.65.65,0,0,1,.71-.71h25.7V390.28h-36.9c-.81,0-1.16-.35-1.16-1.16v-6.54a.62.62,0,0,1,.71-.71h3.19a.68.68,0,0,1,.76.71v3.14h36.75a1.11,1.11,0,0,1,1.27,1.27v35.28C632.41,423.08,632.1,423.54,631.14,423.54Z"/><path d="M646.6,423.94h-3.09c-.46,0-.71-.2-.71-.76V382c0-.51.2-.76.71-.76h3.09c.51,0,.71.25.71.76v41.16C647.31,423.69,647.11,423.94,646.6,423.94Zm37.76-34.32h-2.58v32.6c0,1-.51,1.32-1.27,1.32h-15c-.51,0-.76-.21-.76-.77v-3.14a.62.62,0,0,1,.71-.71h11.81v-29.3h-21.8c-.51,0-.76-.25-.76-.71v-3.14a.64.64,0,0,1,.71-.71h21.85v-4.51c0-.51.2-.71.71-.71h3.14c.45,0,.71.25.71.76v4.46h2.63a.64.64,0,0,1,.71.71v3.14A.68.68,0,0,1,684.36,389.62Z"/><path d="M697.29,423.89h-3a.62.62,0,0,1-.71-.71V381.87c0-.51.2-.71.71-.71h3c.51,0,.76.2.76.71v41.31C698.05,423.64,697.8,423.89,697.29,423.89ZM733.48,401h-3c-.51,0-.76-.2-.76-.71V387.7H706.77a.62.62,0,0,1-.71-.71v-3a.64.64,0,0,1,.71-.71h26.31c.76,0,1.11.4,1.11,1.16v15.92C734.19,400.83,734,401,733.48,401Zm.41,22.45H707.38c-.76,0-1.22-.3-1.22-1.26V404.58a.62.62,0,0,1,.71-.71H710a.68.68,0,0,1,.71.76v14.44h23.27a.66.66,0,0,1,.71.76v2.94C734.65,423.28,734.39,423.48,733.89,423.48Z"/><path d="M756.7,424.24H742.3c-.76,0-1.11-.4-1.11-1.16V409a1,1,0,0,1,1.11-1.12h14.45a1,1,0,0,1,1.11,1.12v14A1,1,0,0,1,756.7,424.24Zm-2.33-12.72h-9.69v9.18h9.69Z"/><g class="cls-8"><rect class="cls-4" x="622.42" y="874.01" width="195.49" height="195.37" transform="translate(-476.16 793.83) rotate(-45)"/></g><rect class="cls-6" x="864.95" y="105.39" width="320.17" height="320.37" transform="translate(488.01 -647.03) rotate(45)"/><g class="cls-8"><rect class="cls-4" x="615.77" y="-143.17" width="322.13" height="321.94" transform="translate(214.94 554.52) rotate(-45)"/></g><rect class="cls-7" x="863.77" y="104.81" width="322.38" height="322.38" transform="translate(112.11 802.67) rotate(-45)"/><path class="cls-9" d="M964.64,246.08c-1.45,0-2.88.2-4.32.26-.9,0-1.4.34-1.55,1.33-.23,1.53-1.19,1.93-2.43,1.07-1.49-1-3-2.07-4.37-3.18-1.57-1.23-1.59-2.24-.06-3.52a52,52,0,0,1,5.4-3.92c1.15-.73,2-.29,2.27,1.06s.24,1.4,1.61,1.56c2.11.26,4.24.46,6.35.73.52.06.71-.12.8-.58a9.12,9.12,0,0,0,.09-2.15c0-.65-.5-.78-1-.82-1-.09-2-.16-3-.21-2.76-.14-5.52-.26-8.28-.39-1.41-.07-2.82-.09-4.23-.21-.64-.05-.79.19-.76.76a3.7,3.7,0,0,1-.19,1.51,1.32,1.32,0,0,1-2,.81,3,3,0,0,1-.68-.44,19.26,19.26,0,0,0-6.7-3.6c-1.28-.42-1.49-1.29-.56-2.24a59.79,59.79,0,0,1,6.3-5.92,6.59,6.59,0,0,0,.74-.66c.8-.79,1.62-.64,2,.42a14.76,14.76,0,0,1,.5,2,.7.7,0,0,0,.73.64c5.5.08,10.75,1.52,16,2.89l.52.14c1.27.31,1.3.32,1.52-1,.33-2,.89-3.92,1-5.94,0-.62-.1-.78-.69-.81a69.23,69.23,0,0,1-14.32-2.09,36.41,36.41,0,0,1-11.87-5.1c-3.14-2.18-5.18-5.3-7.09-8.53-3.21-5.44-3.86-11.34-3.27-17.49A42.69,42.69,0,0,1,938,176.72c1-1.89,2.09-2.44,4.24-2.28,1.23.09,2.46.17,3.67.37.18,0,.4.09.51-.06s0-.4-.15-.57a9,9,0,0,0-1.84-2.09c-.21-.17-.42-.34-.62-.52-1.56-1.41-1.44-2.69.34-3.83a24.05,24.05,0,0,0,2.81-2.53c5.05-4.37,11-6.59,17.52-7.68a27.37,27.37,0,0,1,13.8.75,44.63,44.63,0,0,1,14,8,31.82,31.82,0,0,1,10.78,19,20.26,20.26,0,0,1-.32,7.87c-.39,1.92-.34,1.94,1.53,1.44,2.46-.66,4.94-1.29,7.41-1.91a8,8,0,0,1,3.93,0,4.56,4.56,0,0,0,1.43.08,42.92,42.92,0,0,1,15.64,1.92c.67.18,1.33.4,2,.6.83.25.95.15.81-.73a23.46,23.46,0,0,1,0-9.22,35.55,35.55,0,0,1,3.56-8.54,38.84,38.84,0,0,1,6.42-9.33,30.48,30.48,0,0,1,17.24-8.72,44.13,44.13,0,0,1,22.61,2.2,22.62,22.62,0,0,1,9.91,7.68c.66.83.39,1.87-.71,2.59a5.66,5.66,0,0,0-1.85,2.27c-.31.57-.16.69.48.65a10,10,0,0,1,5.14.52,3.8,3.8,0,0,1,1.9,1.95,38.19,38.19,0,0,1,3.55,17.95A52.77,52.77,0,0,1,1101,209a17.12,17.12,0,0,1-6,8.18,51.46,51.46,0,0,1-17.7,9.24,31,31,0,0,1-11.35.75c-.71-.08-.72.14-.5.67a53.49,53.49,0,0,1,1.87,5.92c.21.7.61.52,1,.41l7.86-2a49.27,49.27,0,0,1,11.19-1.71c.58,0,.89-.21,1-.79a10.47,10.47,0,0,1,.41-1.76c.38-1.17,1.17-1.27,2.1-.5a78.15,78.15,0,0,1,6.47,6c.21.22.43.42.63.65.76.89.56,1.7-.55,2.09a21.23,21.23,0,0,0-4.52,2c-.83.54-1.6,1.17-2.41,1.74-1.41,1-2.5.5-2.69-1.22-.16-1.49-.17-1.54-1.64-1.47-5.07.25-10.14.4-15.2.85a20.14,20.14,0,0,0-2.33.19c-.44.08-.66.27-.63.71.07.87.13,1.73.21,2.6,0,.42.34.43.67.37,3.25-.57,6.53-.93,9.83-1.19.47,0,.61-.29.61-.71,0-2.35,1.32-2.74,3.06-1.41,1.43,1.1,2.91,2.12,4.36,3.2a5.76,5.76,0,0,1,.92.86,1.5,1.5,0,0,1,0,2.32,30.74,30.74,0,0,1-5.49,4.07c-.8.49-1.63,0-1.91-1-.46-1.6-.46-1.55-2.14-1.69-2.85-.25-5.7-.14-8.55-.34-.79-.06-1.05.22-1,1,0,2.15,0,2.27,2.15,2.43a108.21,108.21,0,0,1,16.51,2.78,1,1,0,0,0,1.32-.57,7.36,7.36,0,0,1,.54-.83c.91-1.29,1.9-1.26,2.71.12.61,1,1.17,2.1,1.76,3.15s1.24,2.13,1.81,3.22.36,2.08-.88,2.56c-2.54,1-5.12,1.92-7.71,2.79-1.17.4-2-.29-2-1.55a4,4,0,0,1,.06-1.25c.3-1-.1-1.43-1-1.79a93.78,93.78,0,0,0-14.62-3.89c-.41-.08-.71-.06-.79.45a30.42,30.42,0,0,1-.65,4.17c-.43,1.52.38,2.42,1.13,3.53A55.22,55.22,0,0,1,1074,272.9l.13.33c.95,2.4.45,2,2.94,1.66,4-.56,7.89-1.26,11.84-1.83a10.55,10.55,0,0,1,5.92.68,6.76,6.76,0,0,1,3.83,7,16.32,16.32,0,0,1-4.82,9.46,64.26,64.26,0,0,1-13,10.1,1.33,1.33,0,0,0-.77,1.5c.17,1.43.18,2.88.23,4.32.07,1.89,0,3.78.13,5.68a76.31,76.31,0,0,1-.25,8.55c-.14,2.27,0,4.55-.32,6.83a27.78,27.78,0,0,1-2.74,8.82c-.13.26-.42.54-.23.83s.55.1.84.09a30.38,30.38,0,0,1,8,.86,53.21,53.21,0,0,0,11.23,1.49,28.47,28.47,0,0,0,11.14-1.77,10.87,10.87,0,0,0,7.24-10.6c.09-5.58-1.93-10.44-5.13-14.89-1-1.37-2-2.71-2.89-4.14-3.87-6.28-3.17-12.46.48-18.53.35-.59.3-.75-.3-1a6.84,6.84,0,0,1-4.07-7.41,12.51,12.51,0,0,1,1.32-4.29,6.66,6.66,0,0,1,9.44-2.86c5.92,3.19,6.15,10.39.62,14.2a7.85,7.85,0,0,0-3,5c-.56,3,.45,5.64,1.59,8.27,1.46,3.36,3.77,6.2,5.85,9.18a36.66,36.66,0,0,1,6,12.44c1.67,7-.34,13.17-4.86,18.61-4.76,5.73-11.15,8.59-18.24,10.13a51,51,0,0,1-15.06.62c-4.75-.37-9.46-1.32-14.26-1.15-2.2.07-2.2,0-1.18,1.9,1.42,2.61,2.92,5.18,4.13,7.9a18.65,18.65,0,0,1,1.57,7.08,27,27,0,0,1,.11,2.7c-.29,4.14-2.84,6.54-6.29,8.22-2.23,1.09-4.65,1-7.06,1-5.78-.12-11-2.47-16.34-4.2-2.66-.85-5.26-1.89-7.88-2.86a18.09,18.09,0,0,1-6.71-4.28,1.28,1.28,0,0,0-1.29-.41,70.7,70.7,0,0,1-14.52,1.17,81.88,81.88,0,0,1-9,0,5.7,5.7,0,0,0-3.83.85c-4.11,2.57-8.8,3.84-13.19,5.76a75,75,0,0,1-13.45,4.33,20,20,0,0,1-9.64-.16,8.46,8.46,0,0,1-6.41-7.61c-.55-4.65.77-8.93,2.34-13.17a38,38,0,0,1,3.19-6.76,1.09,1.09,0,0,0-.22-1.55c-3.5-3.7-6.8-7.56-8.78-12.34a15.71,15.71,0,0,1-1.22-4.5,22.72,22.72,0,0,0-.81-3.5,85.41,85.41,0,0,1-2.43-14.28,69.19,69.19,0,0,1-.3-8c.08-3,.36-5.93.63-8.89a1.91,1.91,0,0,0-.87-2,50.79,50.79,0,0,1-9.81-8.58,14,14,0,0,1-3.63-8.38c-.21-3.74,1.59-6.47,5.6-7.32a18,18,0,0,1,6.71.24q3.3.52,6.57,1.11a.8.8,0,0,0,1.07-.63,51.84,51.84,0,0,1,8.49-15.5,1.38,1.38,0,0,0,.28-1.41,3.83,3.83,0,0,1-.26-1.41c0-.89-.28-1.06-1.11-.86a83.37,83.37,0,0,0-12.13,3.42,1.2,1.2,0,0,0-.9,1.55c.15.94.48,2-.48,2.77s-1.79.12-2.63-.23c-1.7-.69-3.45-1.24-5.19-1.83a11.44,11.44,0,0,1-1.5-.6,1.5,1.5,0,0,1-.81-2.24q1.89-3.54,3.94-7a1.24,1.24,0,0,1,2.18-.1c.09.11.18.24.26.36,1.1,1.56,1.1,1.54,3,1.11a101.93,101.93,0,0,1,14.2-2.39c.64,0,.83-.33.8-.91s0-1.2,0-1.8-.12-.82-.77-.77C966.32,246.14,965.48,246.08,964.64,246.08Zm30,38.3c0,.29-.1.59-.12.88-.09,2.37,0,4.73-.15,7.1-.17,4.17,0,8.35-.24,12.53-.07,1.29-.23,2.56-.4,3.84a10.21,10.21,0,0,0-.09,4.47,1.11,1.11,0,0,0,1.07.88c7,.8,14,1.1,21,1.24,5.92.11,11.83-.22,17.73-.55,3.06-.17,6.1-.56,9.15-.81.82-.06.85-.44.81-1.13-.1-2.09-.62-4.16-.48-6.27s.4-4.49.52-6.73c.2-3.9.32-7.8.24-11.7a49.54,49.54,0,0,1,.12-5.31c0-.22.1-.55-.2-.62a.67.67,0,0,0-.7.33,3.79,3.79,0,0,0-.29.65,16.16,16.16,0,0,1-1.86,3.6c-.92,1.29-1.69,1.56-3.07.81-3.88-2.08-8.12-3.37-12-5.33a18.55,18.55,0,0,0-9.68-1.82h-.63a1.13,1.13,0,0,0-.68.2,22.31,22.31,0,0,1-4.78,2.28,57,57,0,0,0-10.42,4.7,2.21,2.21,0,0,1-3.22-.75C995.71,286.07,995.21,285.22,994.63,284.38Zm-38.19,18.49c0,.42-.2,1.08.43,1.21,1.63.35,2.85,1.51,4.35,2.12,2.28.93,4.64,1.65,7,2.45A111.84,111.84,0,0,0,983,312.41c.55.11.78-.09.76-.66a46.57,46.57,0,0,1,.33-6.36c.3-3,.76-6,1.1-9,.56-4.89.78-9.81,1-14.72,0-1.05-.29-1.33-1.18-1.53A34.57,34.57,0,0,1,971.87,274c-2.21-1.62-4.17-3.53-6.21-5.35-.4-.36-.62-.48-.92.1a51.14,51.14,0,0,0-2.35,5.56c-.16.43-.06.7.43.77a25.72,25.72,0,0,1,7.78,3,4.77,4.77,0,0,1,2.61,3.42,38.7,38.7,0,0,1,1.1,11.6,44.83,44.83,0,0,1-1.94,11.32c-.61,1.88-1.35,2.24-3.27,1.67a36.81,36.81,0,0,1-7.31-3.26c-1.46-.82-2.9-1.7-4.32-2.59-.63-.39-.84-.26-.86.46S956.5,302.12,956.44,302.87Zm96-18c-.08,5.67.29,10.65.35,15.63,0,3.66.24,7.32.35,11,0,.56.18.77.75.6s1.28-.33,1.92-.5c4.4-1.14,8.54-3,12.84-4.47,2.85-.95,5.49-2.42,8.34-3.35.53-.17.8-.56.55-1s-.62,0-.88.14a38.82,38.82,0,0,1-7.51,3.27c-1.56.44-2.35,0-2.9-1.54-.14-.39-.26-.8-.37-1.2a46.71,46.71,0,0,1-1.6-15.51,31.13,31.13,0,0,1,1.34-7.34,3.09,3.09,0,0,1,1.35-1.95,34.58,34.58,0,0,1,4.59-2.31c.79-.26.85-.66.54-1.35-.6-1.34-1.14-2.71-1.71-4.07-.4-1-.47-1-1.26-.24a35.91,35.91,0,0,1-15.84,9.1c-.7.18-.88.55-.86,1.22C1052.42,282.51,1052.4,284,1052.4,284.89Zm-62.48,31.54a4.82,4.82,0,0,1,.54,0c.88.1,1.08-.31,1.13-1.14a2.75,2.75,0,0,0-1.44-2.9,13.43,13.43,0,0,1-1.22-.92.76.76,0,0,0-.74-.18,3.39,3.39,0,0,0-2.7,3.4c0,.59.1,1,.72,1.13A14.6,14.6,0,0,0,989.92,316.43Zm61.71-1.39c0-1.44-.58-2.09-2.24-2.71a1.24,1.24,0,0,0-1.41.22,29.37,29.37,0,0,0-2.18,2.14c-.61.72-.28,1.57,0,2.3s.89.28,1.37.22c1-.13,2-.3,2.93-.43C1051.61,316.59,1051.65,316.56,1051.63,315Z"/><path class="cls-9" d="M1018.74,293.05a3.35,3.35,0,0,1-2.85-1.78,3.85,3.85,0,0,1,.14-4c.91-1.6,2.13-1.93,3.78-1.1a4.25,4.25,0,0,0,.49.21c1.76.69,2.53,1.86,2.26,3.42A3.88,3.88,0,0,1,1018.74,293.05Z"/><path class="cls-9" d="M1018.8,309.28a3.28,3.28,0,0,1-3.4-3.31c0-1.85,1.64-3.83,3.24-3.84,2.38,0,3.9,1.23,3.93,3.24A3.88,3.88,0,0,1,1018.8,309.28Z"/><path class="cls-9" d="M695.55-77.36a21.31,21.31,0,0,0-2.86-1.8,5.35,5.35,0,0,1-1.1-.72,1.34,1.34,0,0,1-.3-2,30,30,0,0,1,11.59-11.5,35.68,35.68,0,0,1,12.57-3.77,30.28,30.28,0,0,1,11.34.51A28,28,0,0,1,737.62-91a31.59,31.59,0,0,1,11,17.58,39.92,39.92,0,0,1,.16,17.1c0,.23-.07.46-.13.69-.19.66.11.69.63.53a63.39,63.39,0,0,1,11.86-2.51c7.55-.69,15.06-.67,22.34,1.9.23.08.5.32.74.11s0-.5,0-.74c-1.4-7.38-1.26-14.7,1.65-21.7,3.69-8.89,10-15.17,19.28-18.3a26.26,26.26,0,0,1,11-1,37.19,37.19,0,0,1,13.73,3.81,28.77,28.77,0,0,1,10.58,9.71c.48.7.95,1.42,1.37,2.15a1.58,1.58,0,0,1-.76,2.46,17,17,0,0,0-3.53,1.73,1.91,1.91,0,0,0,1.09.31,31.92,31.92,0,0,1,5.24,1.49,2.47,2.47,0,0,1,1.73,2,62.18,62.18,0,0,1,1.56,7.75c.65,7.61-.76,14.59-6.17,20.38a45.36,45.36,0,0,1-11.9,9.36,29.84,29.84,0,0,1-10,3,48.71,48.71,0,0,1-7.54.36c-.93,0-1,.06-.55.87a55.21,55.21,0,0,1,4,10.3c.19.63.43.82,1.05.47A76.53,76.53,0,0,1,827-26.15c.52-.2.59-.47.37-.94-.32-.66-.6-1.34-.87-2-.45-1.12.14-1.95,1.33-1.7a99.88,99.88,0,0,1,10.24,2.5c1.08.34,1.35,1,.83,2.07-.94,1.85-2.07,3.61-3.19,5.37a24.72,24.72,0,0,1-2,3c-.91,1.06-1.82,1-2.47-.27s-.66-1.26-1.94-.87c-3.93,1.21-7.81,2.54-11.79,3.56-.53.14-.73.38-.6.94.19.83.33,1.67.47,2.51.09.58.37.75.91.52l.25-.08c1.55-.45,1.56-.47,1.3-2.08s.36-2.31,2-1.81c2.3.7,4.58,1.46,6.92,2a1.31,1.31,0,0,1,.93,2.14,32.49,32.49,0,0,1-3.53,5c-.48.59-.95,1.2-1.45,1.77-.94,1.07-2.16.85-2.5-.53-.23-.94-.68-1.25-1.59-1.14a10.33,10.33,0,0,1-1.67,0c-.54,0-.74.24-.71.75.07,1.12.13,2.23.19,3.34.05.83.67.64,1.11.55,1.61-.31,3.26-.32,4.89-.49a91.69,91.69,0,0,1,11.24-.32c.92,0,1.36-.17,1.48-1.17.19-1.66,1-2.08,2.5-1.29,2.54,1.35,5,2.89,7.38,4.45,1.28.83,1.32,2.06.16,3.07a63.29,63.29,0,0,1-7.12,5.31c-1.5,1-2.7.32-2.67-1.47,0-.9-.21-1.28-1.16-1.41-3.2-.41-6.38-.91-9.57-1.39-.52-.08-.62.09-.53.56a49.33,49.33,0,0,1,.65,8.49,86,86,0,0,1-.37,9.22c-.17,2.31-.41,4.61-.74,6.9a2.71,2.71,0,0,0,.15,1A112.63,112.63,0,0,1,829,49.77c.12,1.7.39,3.41.38,5.08,0,2.39,0,4.8-.1,7.2a103.37,103.37,0,0,1-1,10.4,69.43,69.43,0,0,1-6,19.6c-.45.92.1,1.38.64,1.85a170.07,170.07,0,0,0,13.51,10.4,141.5,141.5,0,0,0,18.32,11.16,53.86,53.86,0,0,0,15.85,5.35,12,12,0,0,0,4.88-.15,4.28,4.28,0,0,0,2.69-1.85,1.36,1.36,0,0,0,.28-1.07.84.84,0,0,1,0-.52c1-1.78.23-3.53-.09-5.29-.09-.47-.43-.64-.84-.79a8.3,8.3,0,0,1-5.77-7.38c-.33-2.86,1.35-6.64,3.6-7.73a7,7,0,0,1,7.78.87,7,7,0,0,1,2.57,7.84,7.73,7.73,0,0,1-2.3,3.88.87.87,0,0,0-.18,1.28,17.55,17.55,0,0,1,2,10.79c-.57,4.74-4,7.75-8.88,8.2a39.22,39.22,0,0,1-15-1.89c-2.89-.86-5.85-1.57-8.63-2.71-4-1.65-8.07-3-12.13-4.46-9.45-3.35-18.69-7.25-28.06-10.84l-1-.45c-1.09-.51-1.65-.22-1.87,1-.31,1.73-.57,3.47-.91,5.19a95.62,95.62,0,0,1-7.06,22.15,25.38,25.38,0,0,1-4.21,6.36c-2.54,2.83-5.58,3.46-9.1,2.28a13.86,13.86,0,0,1-9-8.79,80,80,0,0,1-2.59-10.3c-.47-2.16-.48-2.11-2.66-1.9a76.26,76.26,0,0,1-8.4.55c-2.24,0-4.49-.34-6.74-.51-.76-.06-1.52-.09-2.28-.16-.57-.06-.59.37-.67.73-.52,2.35-1,4.71-1.55,7-.85,3.43-1.76,6.9-4.29,9.51-2.86,2.95-6.31,4.8-10.6,4.25-2.46-.31-4-2-5.49-3.83-2.74-3.44-4.37-7.47-5.88-11.55A109,109,0,0,1,722.83,109a2.4,2.4,0,0,0-.79-1.41,57.65,57.65,0,0,1-11.78-16.54,69.62,69.62,0,0,1-5.61-19,89.5,89.5,0,0,1-1-14.72,112.77,112.77,0,0,1,3.18-25.81,7.07,7.07,0,0,0,0-2.86c-.52-3.48-.78-7-1-10.5A79.8,79.8,0,0,1,706.07,7c.08-.9.22-1.8.38-2.7.1-.52.09-.74-.57-.67-3.82.43-7.61,1-11.4,1.64-.52.09-.72.31-.69.8,0,.18,0,.36,0,.53,0,1.78-1.2,2.44-2.7,1.46A64.85,64.85,0,0,1,684,2.77c-1.16-1-1.11-2.25.18-3.07q3.6-2.29,7.3-4.41c1.51-.87,2.36-.41,2.59,1.34.12.86.44,1.1,1.29,1.08a129.9,129.9,0,0,1,14.49.55c1.34.12,2.65.33,4,.52.47.06.71,0,.74-.54.06-1.2.16-2.39.27-3.59,0-.43-.15-.56-.54-.61A38.73,38.73,0,0,0,710-6.14c-.55,0-.75.29-.87.78-.16.65-.3,1.37-1.14,1.51s-1.28-.38-1.75-.95A62.39,62.39,0,0,1,702-10.34c-1.13-1.71-1.33-2.82,1.31-3.34a44.46,44.46,0,0,0,5.06-1.49c.42-.14.84-.27,1.27-.38,1.23-.3,1.86.26,1.74,1.53-.19,2-.19,2,1.72,2.6.47.15.95.28,1.42.47s.93.09,1-.58a16.82,16.82,0,0,1,.41-2.25c.23-.81-.1-1.09-.83-1.28-3.49-.89-6.94-1.94-10.38-3-1.14-.37-2.3-.7-3.43-1.09-.6-.2-1-.06-1.17.53a4.1,4.1,0,0,1-.21.48c-.66,1.3-1.65,1.42-2.5.24a72.46,72.46,0,0,1-5.12-8.2c-.63-1.15-.33-1.82.91-2.22,3.28-1,6.65-1.69,10-2.45a1.26,1.26,0,0,1,1.43.43c.35.48.16.94,0,1.41s-.48,1.2-.78,1.77-.16.88.47,1.11c2.26.81,4.47,1.75,6.65,2.77,1.86.87,3.65,1.88,5.46,2.85,1,.52,1,.5,1.3-.52A60.69,60.69,0,0,1,722-32c.47-.87.45-.91-.53-.88a42.2,42.2,0,0,1-13.13-1.55A33.72,33.72,0,0,1,696-41.69a31.91,31.91,0,0,1-7.56-8.84,24.8,24.8,0,0,1-2.61-9.06,36.26,36.26,0,0,1,1.61-14A3.93,3.93,0,0,1,689.92-76,25.49,25.49,0,0,1,695.55-77.36ZM788.48,33.13c-.28.54-.44.91-.66,1.24-2.12,3.08-3.77,3.52-6.36,1.9C777.83,34,774,32,770.6,29.43c-1.15-.85-2.25-1.68-3.77-1.49-1,.12-2.07-.27-2.89.4-3.52,2.86-7.69,4.73-11.37,7.34a10.29,10.29,0,0,1-1.7.92c-1.91.92-3,.71-4.52-.76A8.54,8.54,0,0,1,744.49,33c-.32,1.79-.63,3.28-.86,4.78-1.07,6.77-1.06,13.61-1.39,20.42-.16,3.22,0,6.45,0,9.68,0,.81.27,1.11,1,1.27a66.72,66.72,0,0,0,10.91,1.21c3.89.15,7.78.18,11.67.19,2.33,0,4.66-.06,7-.13,3.6-.1,7.21,0,10.8-.38a61.31,61.31,0,0,0,6.34-.94c.43-.09.77-.24.77-.79,0-2.34.18-4.69.11-7-.16-5-.34-10.07-.62-15.1A84.14,84.14,0,0,0,788.48,33.13Zm-80.22,4.12c-.13.21-.17.25-.18.31a112.91,112.91,0,0,0-1.87,17c0,.41.21.57.49.75,1,.66,2.11,1.28,3.1,2a38,38,0,0,0,12.2,5.9c3,.86,6,1.77,9,2.65.26.07.65.36.61-.3-.17-3.08.2-6.15.11-9.23-.1-3.37.12-6.74.21-10.11,0-1.84.23-3.68.39-5.52a96.75,96.75,0,0,1,1.77-11.1c.18-.9-.33-.89-.89-1s-.69.32-.7.79a29.75,29.75,0,0,1-.54,5c-1,5.8-3.56,10.69-8.49,14.16-3.07,2.15-6.28,3-9.83,1.23a4.57,4.57,0,0,1-2.22-2.16,29.43,29.43,0,0,1-1.58-4C709.23,41.57,708.74,39.49,708.26,37.25Zm116.23-1-.27,1.26a40.56,40.56,0,0,1-3.14,10.14,3.74,3.74,0,0,1-1.46,1.71,8.45,8.45,0,0,1-8.15.57,18.23,18.23,0,0,1-6.64-5.38C801.46,40.3,800.44,35.23,800,30c0-.49.25-1.33-.66-1.22s-.46.88-.36,1.35a101.49,101.49,0,0,1,2.12,18.13c.12,4.16.15,8.33.21,12.49,0,1.4,0,2.81,0,4.22,0,1.05.07,1.09,1,.81,2.2-.65,4.39-1.29,6.59-1.92A44.77,44.77,0,0,0,820,59.41c2-1.19,3.79-2.56,5.75-3.73a1.83,1.83,0,0,0,1-1.91c-.2-3.1-.44-6.2-.8-9.28A53.78,53.78,0,0,0,824.49,36.24ZM796,72.49a6.15,6.15,0,0,0,3-.89,1.5,1.5,0,0,0,.86-1.47,6.08,6.08,0,0,0-.5-2,10.13,10.13,0,0,0-3-3.92c-.26-.25-.5-.27-.74,0-.65.82-1.31,1.64-2,2.47a1.3,1.3,0,0,0-.17,1.34,5.17,5.17,0,0,1,.16,2.07C793.64,72.33,793.66,72.42,796,72.49Zm-58.74,0h.53c1.39-.1,1.6-.32,1.51-1.73-.05-.69-.37-1.45-.09-2.08.58-1.26,0-2.13-.72-3-.33-.38-.66-.76-1-1.16-.4-.55-.7-.42-1.2,0-1.51,1.16-2.23,2.83-3.06,4.43a2.26,2.26,0,0,0,1,2.83A5.83,5.83,0,0,0,737.28,72.48Z"/><path class="cls-9" d="M766.42,39.58c2.6,0,4.5,1.8,5.09,4.55.83,3.84-1.64,6.24-4.82,6.69-1.64.23-4.15-1.16-5-3.37a5.86,5.86,0,0,1,4.21-7.8C766.09,39.61,766.33,39.59,766.42,39.58Z"/><path class="cls-9" d="M766.53,56.45c2.65,0,4.46,2,4.5,5a4.31,4.31,0,0,1-4.57,4.22c-2.34-.08-4.53-1.55-4.46-4.29C762.07,58.42,763.82,56.45,766.53,56.45Z"/><rect class="cls-6" x="340.1" y="1103" width="320.17" height="320.37" transform="translate(1039.7 16.3) rotate(45)"/><rect class="cls-7" x="338.99" y="1101.99" width="322.38" height="322.38" transform="translate(-746.7 723.66) rotate(-45)"/><rect class="cls-10" x="814.11" y="610.96" width="387.28" height="387.28" transform="translate(864.1 -476.93) rotate(45)"/><path d="M401.86,680.91h-15c-.37,0-.53-.16-.53-.55v-18c0-.39.16-.58.53-.58h15c.37,0,.55.19.55.58v18C402.41,680.75,402.23,680.91,401.86,680.91Zm-1.6-17H388.5v14.89h11.76Z"/><path d="M419.89,673.93H407v6.71c0,.25-.12.36-.32.36h-1.49a.3.3,0,0,1-.34-.34V662.38c0-.36.16-.55.54-.55h14.53a.49.49,0,0,1,.53.55v11A.47.47,0,0,1,419.89,673.93Zm-1.62-10H407v7.89h11.3Z"/><path d="M437.53,680.91H423.25c-.36,0-.57-.16-.57-.53v-18a.52.52,0,0,1,.57-.58h14.28a.31.31,0,0,1,.34.35v1.39c0,.26-.11.35-.37.35H424.83v6.26h11.94c.23,0,.34.12.34.37v1.33c0,.25-.11.36-.34.36H424.83v6.64h12.7c.23,0,.34.09.34.32v1.39C437.87,680.82,437.76,680.91,437.53,680.91Z"/><path d="M455.19,681h-1.51a.49.49,0,0,1-.41-.19l-11-15.37v15.21c0,.23-.09.35-.32.35h-1.46c-.21,0-.32-.12-.32-.35V662.27a.39.39,0,0,1,.41-.44h1.35a.49.49,0,0,1,.39.21l11.21,15.53V662.09a.31.31,0,0,1,.34-.35h1.44c.21,0,.32.16.32.37v18.41A.4.4,0,0,1,455.19,681Z"/><path d="M494.4,681.19h-1.54c-.2,0-.32-.1-.32-.35V663.73h-6.88c-.23,0-.34-.11-.34-.32V662a.3.3,0,0,1,.32-.32h8.55a.48.48,0,0,1,.53.55v18.64A.31.31,0,0,1,494.4,681.19Z"/><path d="M522,681H506c-.36,0-.52-.16-.52-.53V662.16c0-.35.16-.51.5-.51h16.1c.35,0,.53.16.53.51v18.27A.48.48,0,0,1,522,681Zm-1.62-17.32H507.57v6.52h12.84Zm0,8.51H507.57v6.75h12.84Z"/><path d="M538,667H536c-.36,0-.55-.16-.55-.5v-1.63c0-.36.16-.54.55-.54H538a.53.53,0,0,1,.58.59v1.58C538.62,666.82,538.39,667,538,667Zm0,11.35H536a.49.49,0,0,1-.55-.55v-1.6c0-.35.16-.51.55-.51H538c.35,0,.58.16.58.53v1.58A.52.52,0,0,1,538,678.33Z"/><path d="M567.81,680.93H551.73c-.37,0-.53-.16-.53-.5V662.22a.46.46,0,0,1,.5-.52h16.11c.34,0,.52.2.52.57v18.16C568.33,680.77,568.15,680.93,567.81,680.93Zm-1.63-17.13H553.35v15h12.83Z"/><path d="M590.68,680.93H574.6c-.36,0-.52-.16-.52-.5V662.22a.46.46,0,0,1,.5-.52h16.1c.35,0,.53.2.53.57v18.16C591.21,680.77,591,680.93,590.68,680.93Zm-1.62-17.13H576.23v15h12.83Z"/><path d="M614,671.05l-4.65,2a.44.44,0,0,1-.2,0,.45.45,0,0,1-.25-.05l-7.14-3.64-4.83,2.27a.31.31,0,0,1-.16.07c-.06,0-.11-.07-.11-.23v-1.83a.3.3,0,0,1,.21-.32l4.73-2.11a.51.51,0,0,1,.23,0,.47.47,0,0,1,.23,0l7.27,3.59,4.62-2.17a.37.37,0,0,1,.14,0c.09,0,.16.09.16.22v1.83A.45.45,0,0,1,614,671.05Z"/><path d="M399.06,722.14H384.49c-.23,0-.34-.1-.34-.32V720.4a.3.3,0,0,1,.34-.34h13v-6.52H384.7c-.37,0-.55-.14-.55-.51v-9.42c0-.37.18-.55.52-.55h14.51c.25,0,.34.11.34.32v1.42c0,.25-.12.34-.34.34H386.32v6.41h12.76a.47.47,0,0,1,.53.52v9.52C399.61,722,399.43,722.14,399.06,722.14Z"/><path d="M417.06,705.17h-6.81v16.67c0,.23-.09.34-.34.34h-1.47c-.25,0-.34-.09-.34-.34V705.17h-6.63c-.23,0-.35-.12-.35-.37v-1.37c0-.26.09-.37.32-.37h15.62c.26,0,.35.11.35.37v1.37C417.41,705.05,417.32,705.17,417.06,705.17Z"/><path d="M434.43,722.23H433c-.25,0-.32-.07-.32-.32v-7H421.18v7c0,.23-.11.32-.34.32h-1.46c-.23,0-.35-.09-.35-.32V703.59c0-.37.16-.53.53-.53h14.68c.35,0,.53.18.53.57v18.28C434.77,722.14,434.68,722.23,434.43,722.23Zm-1.79-17.09H421.18v7.66h11.46Z"/><path d="M452.66,722.23H451a.41.41,0,0,1-.39-.21l-5.13-8.21H439.3v8.07c0,.26-.11.35-.32.35H437.5c-.23,0-.35-.09-.35-.32v-18.3c0-.37.16-.55.55-.55h14.48a.48.48,0,0,1,.55.55v9.65a.48.48,0,0,1-.55.55h-4.39l5.17,8a.66.66,0,0,1,.11.25C453.07,722.18,452.91,722.23,452.66,722.23Zm-2.08-17.06H439.3v6.58h11.28Z"/><path d="M470.71,705.17h-6.82v16.67c0,.23-.09.34-.34.34h-1.46c-.26,0-.35-.09-.35-.34V705.17h-6.63c-.23,0-.34-.12-.34-.37v-1.37c0-.26.09-.37.32-.37h15.62c.25,0,.34.11.34.37v1.37C471.05,705.05,471,705.17,470.71,705.17Z"/><path d="M493.81,722.41h-1.53c-.2,0-.32-.09-.32-.34V705h-6.88c-.23,0-.35-.12-.35-.32V703.2a.3.3,0,0,1,.32-.32h8.56c.34,0,.52.18.52.55v18.64A.3.3,0,0,1,493.81,722.41Z"/><path d="M521.45,722.18H505.39c-.37,0-.53-.16-.53-.52V703.38c0-.34.16-.5.51-.5h16.1c.34,0,.53.16.53.5v18.28A.48.48,0,0,1,521.45,722.18Zm-1.63-17.31H507v6.52h12.83Zm0,8.51H507v6.74h12.83Z"/><path d="M537.44,708.21h-2.06c-.36,0-.55-.16-.55-.51v-1.62c0-.37.16-.55.55-.55h2.08a.52.52,0,0,1,.57.6v1.57C538,708.05,537.81,708.21,537.44,708.21Zm0,11.34h-2.06a.49.49,0,0,1-.55-.55v-1.6c0-.34.16-.5.55-.5h2.08c.35,0,.57.16.57.52V719C538,719.37,537.81,719.55,537.44,719.55Z"/><path d="M567.15,722.16H550.92c-.21,0-.3-.09-.3-.32v-1.4c0-.25.09-.34.3-.34h14.47v-6.77H553c-.23,0-.37-.07-.37-.3v-1.35c0-.22.14-.32.35-.32h12.46V705H550.92c-.26,0-.33-.09-.33-.32v-1.42c0-.2.07-.32.3-.32h16.26a.48.48,0,0,1,.53.53v18.21C567.68,722,567.5,722.16,567.15,722.16Z"/><path d="M590.1,722.16H574c-.37,0-.53-.16-.53-.5V703.45a.47.47,0,0,1,.51-.53h16.1c.34,0,.53.21.53.58v18.16C590.63,722,590.44,722.16,590.1,722.16ZM588.48,705H575.64v15h12.84Z"/><path d="M353.14,325.32H347.6v13a.42.42,0,0,1-.46.47H345c-.33,0-.47-.1-.47-.43v-13H325.21c-.33,0-.5-.16-.5-.46V322.8c0-.3.13-.46.47-.46h19.3v-2.92c0-.33.14-.5.47-.5h2.19a.46.46,0,0,1,.46.5v2.92h5.54c.3,0,.46.16.46.49v2A.41.41,0,0,1,353.14,325.32Zm-1.63,22.23H326.93c-.53,0-.79-.2-.79-.83V335.67a.4.4,0,0,1,.46-.46h2a.45.45,0,0,1,.49.5v8.82h22.39c.34,0,.47.17.47.5v2C352,347.38,351.85,347.55,351.51,347.55Z"/><path d="M386.38,324.59H370.43v5.64h14.89c.63,0,.86.3.86.8v16.05a.43.43,0,0,1-.49.47h-2.06a.41.41,0,0,1-.46-.43V333h-6.94v13.77a.67.67,0,0,1-.76.76H359.12a.64.64,0,0,1-.73-.73V331a.64.64,0,0,1,.73-.73h8.26v-5.64h-9c-.34,0-.47-.16-.47-.46v-2c0-.33.1-.49.43-.49h9v-2.23a.4.4,0,0,1,.46-.46h2.09a.44.44,0,0,1,.5.5v2.19h15.95a.44.44,0,0,1,.5.49v2A.44.44,0,0,1,386.38,324.59ZM373.31,333h-2.88v6c0,.33-.17.46-.5.46h-1.86c-.33,0-.5-.13-.5-.43v-6H361.3v11.77h12Z"/><path d="M406.26,348h-2c-.5,0-.73-.23-.73-.76v-1.76c0-.5.2-.73.73-.73h2a.7.7,0,0,1,.76.76v1.73A.67.67,0,0,1,406.26,348Zm.06-7.36c0,.33-.16.46-.49.46H404.7c-.33,0-.53-.13-.53-.46l-.47-10.92V318.92a.43.43,0,0,1,.47-.46h2.09c.33,0,.46.23.46.53v10.74Z"/><path d="M438.57,347.05a.35.35,0,0,1-.23-.17l-5.71-6.8v7.7a.4.4,0,0,1-.46.46h-1.86c-.33,0-.5-.13-.5-.46v-7.7l-5.7,6.8c-.1.14-.17.17-.23.17s-.07-.07-.07-.26v-3a.64.64,0,0,1,.2-.5l5.41-6h-5.15c-.33,0-.46-.13-.46-.49v-1.6c0-.36.13-.46.43-.46h5.57v-3.48h-5.54c-.33,0-.46-.14-.46-.47V329.2c0-.33.13-.49.43-.49h1.43V323h-1.4a.4.4,0,0,1-.46-.46V321c0-.3.13-.47.43-.47h5.57v-1.46a.44.44,0,0,1,.5-.49h1.86a.43.43,0,0,1,.46.49v1.46h5.58a.45.45,0,0,1,.49.47v1.59a.44.44,0,0,1-.49.46h-1.33v5.68h1.33a.48.48,0,0,1,.49.49v1.56a.43.43,0,0,1-.49.47h-5.58v3.48h5.58c.29,0,.49.13.49.46v1.6a.46.46,0,0,1-.49.49H433l5.41,6a.77.77,0,0,1,.26.53v3C438.7,347,438.67,347.05,438.57,347.05Zm-4.15-24h-6.3v5.68h6.3Zm18.91,7.47h-2.42v17.28a.4.4,0,0,1-.46.46h-1.6c-.33,0-.49-.13-.49-.39V330.5h-4.81v3.68l-1.33,13.67a.5.5,0,0,1-.56.39H440.1c-.3,0-.43-.13-.43-.39l1.22-13.67v-14.3c0-.33.1-.43.47-.46l11.54-.83c.33,0,.43.2.43.46v1.6a.48.48,0,0,1-.5.56l-9.28.6v6h9.78a.44.44,0,0,1,.47.5V330A.44.44,0,0,1,453.33,330.5Z"/><path d="M486.18,347.88h-27.9c-.33,0-.5-.13-.5-.46v-1.8c0-.29.17-.46.5-.46h13.1v-8.09H460.07c-.33,0-.46-.14-.46-.47v-1.79c0-.3.1-.46.46-.46h11.31v-8.13h-9.52L460,331.06a.46.46,0,0,1-.49.33h-2.13c-.26,0-.36-.06-.36-.23a.46.46,0,0,1,0-.2l4.28-11.38a.5.5,0,0,1,.5-.36H464c.23,0,.36.1.36.26a.93.93,0,0,1-.06.24l-1.43,3.78h8.49V319c0-.3.13-.47.5-.47h2c.33,0,.46.17.46.5v4.48h11.05c.33,0,.46.2.46.5v1.75c0,.3-.13.47-.46.47H474.3v8.13h10.15c.33,0,.5.16.5.46v1.79a.44.44,0,0,1-.5.47H474.3v8.09h11.94a.45.45,0,0,1,.5.46v1.8C486.74,347.71,486.51,347.88,486.18,347.88Z"/><path d="M497.82,323.83a1.16,1.16,0,0,0-.16,0l-7.17-2.29a.41.41,0,0,1-.33-.47v-2c0-.26.07-.36.27-.36s.13,0,.2,0l7.16,2.26a.42.42,0,0,1,.33.43v2C498.12,323.7,498,323.83,497.82,323.83Zm0,8.13a.36.36,0,0,1-.2,0l-7.17-2.25a.41.41,0,0,1-.33-.47v-2c0-.27.07-.36.27-.36s.13,0,.2,0l7.16,2.32a.45.45,0,0,1,.33.43v2C498.12,331.82,498.06,332,497.86,332Zm.69,3.75-5.4,12.3a.46.46,0,0,1-.5.3h-2.12c-.27,0-.37-.07-.37-.26s0-.1,0-.17l5.44-12.31a.48.48,0,0,1,.47-.33h2.19c.2,0,.33.1.33.23A.69.69,0,0,1,498.55,335.71Zm20.8-5.74h-7.73v5.14h6.61c.49,0,.76.23.76.73V347a.67.67,0,0,1-.76.76h-16c-.53,0-.76-.23-.76-.76V335.84a.64.64,0,0,1,.73-.73h6.6V330h-7.89a.43.43,0,0,1-.47-.47v-1.69c0-.33.13-.5.47-.5h7.89v-5.47l-7,.46c-.3,0-.4-.2-.4-.46v-1.66c0-.3.14-.43.47-.46l16.72-1.13c.3,0,.43.16.43.43v1.66c0,.33-.17.46-.5.5l-6.87.49v5.64h7.77a.44.44,0,0,1,.46.5v1.69C519.85,329.8,519.69,330,519.35,330Zm-3.18,7.69H504.26v7.57h11.91Z"/><path d="M551.1,347.52H545a.41.41,0,0,1-.47-.47v-2c0-.3.13-.46.47-.46h3.91V323.9h-21v20.7h8.46V326.45c0-.4.16-.56.6-.56h1.59c.43,0,.63.2.63.59v20.27c0,.53-.3.77-.83.77H525.59c-.53,0-.76-.24-.76-.77v-25c0-.49.17-.83.86-.83H551a.75.75,0,0,1,.86.83v25A.71.71,0,0,1,551.1,347.52Z"/><path d="M570.51,322.34h-3.45v3.31c0,.34-.16.47-.49.47h-1.73c-.33,0-.46-.13-.46-.47v-3.31H560l-.76,2.78a.39.39,0,0,1-.43.3h-2.16c-.27,0-.4-.06-.4-.23a.46.46,0,0,1,0-.2l1.76-6.07a.47.47,0,0,1,.47-.36h2.05c.24,0,.37.09.37.29s0,.1,0,.17l-.24.93h9.82a.46.46,0,0,1,.53.5v1.42C571,322.17,570.84,322.34,570.51,322.34Zm14.93,25h-7.33c-.3,0-.43-.13-.43-.46v-1.4c0-.29.13-.46.43-.46h5.27v-4.51H572.8v7.23c0,.33-.13.46-.43.46h-2c-.33,0-.46-.13-.46-.46v-7.16H566.2L560,348a.8.8,0,0,1-.6.23h-2.52c-.2,0-.3,0-.3-.1a.43.43,0,0,1,.1-.23l6.2-7.26h-4.74c-.53,0-.76-.24-.76-.77v-6.5a.67.67,0,0,1,.76-.76H570V329.3H557.84a.4.4,0,0,1-.46-.46v-1.33c0-.33.13-.5.43-.5h26.8a.7.7,0,0,1,.73.8v6.3a.67.67,0,0,1-.76.77H572.8v3.41h12.67c.53,0,.8.27.8.73v7.6C586.27,347.15,586,347.38,585.44,347.38ZM570,334.81H560.3v3.55H570Zm15.72-12.47h-4.41v3.31c0,.34-.17.47-.46.47h-1.73c-.3,0-.5-.13-.5-.47v-3.31h-3.91l-.73,2.78a.42.42,0,0,1-.46.3h-2.06c-.27,0-.4-.06-.4-.23a.46.46,0,0,1,0-.2l1.7-6.07a.45.45,0,0,1,.46-.36h2c.24,0,.37.09.37.29s0,.1,0,.17l-.24.93h10.35a.44.44,0,0,1,.5.5v1.42A.44.44,0,0,1,585.67,322.34Zm-3.21,6.9H572.8v3.41h9.66Z"/><path d="M618.92,335H590.09c-.33,0-.47-.13-.47-.46v-2.39a.41.41,0,0,1,.47-.47H619a.43.43,0,0,1,.46.47v2.39C619.41,334.88,619.25,335,618.92,335Z"/><path d="M652.29,332.19H639.42v8.23c0,.53-.3.76-.8.76h-4.44c-.33,0-.5-.13-.5-.47v-1.49c0-.3.13-.46.5-.46h2.29v-6.57H623.2a.44.44,0,0,1-.5-.5v-1.76c0-.3.13-.46.47-.46h4.14v-9.32a.41.41,0,0,1,.47-.47h1.92a.44.44,0,0,1,.46.5v9.29h6.47V318.89a.43.43,0,0,1,.47-.47h2a.46.46,0,0,1,.5.5v2.75h11.67a.44.44,0,0,1,.5.47v1.52c0,.34-.2.47-.53.47H639.59v5.34h12.73a.42.42,0,0,1,.47.46v1.76A.44.44,0,0,1,652.29,332.19ZM629,334.44l-2.92,7.63a.48.48,0,0,1-.46.34h-2.19c-.26,0-.36-.07-.36-.24a.42.42,0,0,1,0-.19l3-7.67a.5.5,0,0,1,.5-.33h2.13c.23,0,.36.07.36.23A.59.59,0,0,1,629,334.44Zm18.28,7.63-17.22,6.24a1.36,1.36,0,0,1-.53.07H623.7c-.34,0-.47-.14-.47-.47v-1.85c0-.34.13-.47.47-.47h5.4l18.08-6.37a.46.46,0,0,1,.2,0c.17,0,.27.1.27.33v2.06A.44.44,0,0,1,647.28,342.07Zm5.41,2.46H650.6a.46.46,0,0,1-.5-.3l-3.48-9.79a.59.59,0,0,1-.07-.23c0-.16.17-.23.4-.23H649a.43.43,0,0,1,.46.33L653,344.1a.44.44,0,0,1,0,.2C653.05,344.46,652.92,344.53,652.69,344.53Z"/><line class="cls-11" x1="311.05" y1="357.5" x2="272" y2="318.45"/><line class="cls-11" x1="704" y1="320.47" x2="667.95" y2="356.52"/><g class="cls-12"><rect class="cls-3" x="64.61" y="480.01" width="42.99" height="42.99" transform="translate(-329.39 207.77) rotate(-45)"/></g><g class="cls-12"><rect class="cls-3" x="904.31" y="477.36" width="43.77" height="43.77" transform="translate(-81.74 801.14) rotate(-45)"/></g><g class="cls-12"><rect class="cls-3" x="478.32" y="46.32" width="43.77" height="43.77" transform="translate(98.28 373.67) rotate(-45)"/></g><g class="cls-12"><rect class="cls-3" x="478.32" y="914.32" width="43.77" height="43.77" transform="translate(-515.49 627.91) rotate(-45)"/></g><path class="cls-4" d="M1178.15,681h-1.59c-.25,0-.37-.1-.37-.35V660.82c0-.22.1-.34.37-.34h1.59c.27,0,.39.12.39.39v19.81C1178.54,680.93,1178.4,681,1178.15,681Z"/><path class="cls-4" d="M1197.65,681h-15.84c-.42,0-.59-.17-.59-.56V661.09c0-.39.17-.56.59-.56h15.91c.27,0,.39.09.39.34v1.52c0,.27-.15.37-.39.37h-14.19v16.06h12.4v-7h-6.34c-.24,0-.34-.15-.34-.4v-1.37c0-.27.1-.37.32-.37h8.08a.52.52,0,0,1,.59.59v10.11C1198.24,680.83,1198,681,1197.65,681Z"/><path class="cls-4" d="M1217.26,681h-15.91c-.39,0-.56-.15-.56-.57V661.09c0-.37.17-.56.54-.56H1217a.53.53,0,0,1,.61.61v5.65c0,.24-.12.34-.37.34h-1.59c-.23,0-.35-.1-.35-.34v-4h-12.2v16h14.14a.33.33,0,0,1,.37.37v1.55C1217.63,680.88,1217.53,681,1217.26,681Z"/><path class="cls-4" d="M1236.24,681h-15.62c-.39,0-.59-.17-.59-.52V670.22c0-.44.2-.61.59-.61h13.65v-6.9H1220.4a.33.33,0,0,1-.34-.37v-1.47c0-.27.12-.37.34-.37H1236a.52.52,0,0,1,.59.57v10.09c0,.39-.2.59-.62.59h-13.62v7.07h13.92c.24,0,.34.12.34.39v1.47C1236.58,680.93,1236.48,681,1236.24,681Z"/><path class="cls-4" d="M1247.51,660.11l-2.46,4.25-1.3,6.43,1.3,6.41,2.46,4.27a.3.3,0,0,1,0,.17c0,.07-.07.12-.22.12h-1.76c-.18,0-.32,0-.4-.19l-2.18-3.83a2.53,2.53,0,0,1-.12-.4l-1.31-6.53,1.31-6.55a1.46,1.46,0,0,1,.12-.37l2.18-3.85a.4.4,0,0,1,.4-.25h1.76c.18,0,.25.05.25.12A.48.48,0,0,1,1247.51,660.11Z"/><path class="cls-4" d="M1252.83,681h-1.59c-.25,0-.37-.1-.37-.35V660.82c0-.22.1-.34.37-.34h1.59c.27,0,.39.12.39.39v19.81C1253.22,680.93,1253.08,681,1252.83,681Z"/><path class="cls-4" d="M1272,681.05h-1.62a.54.54,0,0,1-.44-.19l-11.81-16.5v16.32c0,.25-.1.37-.34.37h-1.58c-.22,0-.34-.12-.34-.37V661a.41.41,0,0,1,.44-.46h1.45a.51.51,0,0,1,.42.22l12,16.67V660.8a.32.32,0,0,1,.37-.37h1.54a.35.35,0,0,1,.35.39v19.77A.42.42,0,0,1,1272,681.05Z"/><path class="cls-4" d="M1277.14,681h-1.6c-.25,0-.37-.1-.37-.35V660.82c0-.22.1-.34.37-.34h1.6c.27,0,.39.12.39.39v19.81C1277.53,680.93,1277.38,681,1277.14,681Z"/><path class="cls-4" d="M1296.75,681.1h-1.57c-.27,0-.34-.07-.34-.34V673.2h-12.3v7.56c0,.24-.13.34-.37.34h-1.57c-.25,0-.37-.1-.37-.34V661.09c0-.39.17-.56.56-.56h15.77c.36,0,.56.19.56.61v19.62C1297.12,681,1297,681.1,1296.75,681.1Zm-1.91-18.34h-12.3V671h12.3Z"/><path class="cls-4" d="M1316.27,678.65l-2.21,2.18a.77.77,0,0,1-.49.17h-13.33c-.4,0-.59-.17-.59-.54V661a.52.52,0,0,1,.59-.59h13.38a.56.56,0,0,1,.46.19l2.19,2.21a.69.69,0,0,1,.22.47v14.83A.84.84,0,0,1,1316.27,678.65Zm-2.19-14.81-1.17-1.18h-11v16.16h11l1.17-1.16Z"/><path class="cls-4" d="M1343.62,681h-15.84c-.42,0-.59-.17-.59-.56V661.09c0-.39.17-.56.59-.56h15.91c.27,0,.39.09.39.34v1.52c0,.27-.14.37-.39.37H1329.5v16.06h12.4v-7h-6.34c-.24,0-.34-.15-.34-.4v-1.37c0-.27.1-.37.32-.37h8.08a.52.52,0,0,1,.59.59v10.11C1344.21,680.83,1344,681,1343.62,681Z"/><path class="cls-4" d="M1361.32,681.08H1347.1a.47.47,0,0,1-.54-.54v-7.71c0-.37.17-.57.54-.57h12.52v-4.49h-12.71c-.25,0-.35-.1-.35-.34v-1.38c0-.24.1-.34.35-.34h14.43c.35,0,.54.17.54.56v14.24A.5.5,0,0,1,1361.32,681.08Zm-1.7-7.15h-10.75V679h10.75Z"/><path class="cls-4" d="M1383.51,681.15H1382a.31.31,0,0,1-.34-.34v-13H1375v13a.31.31,0,0,1-.32.34h-1.35c-.25,0-.35-.12-.35-.34v-13h-6.6v13c0,.22-.12.34-.37.34h-1.52a.31.31,0,0,1-.35-.34V666.27a.48.48,0,0,1,.54-.54h18.59c.37,0,.56.2.56.59v14.51A.3.3,0,0,1,1383.51,681.15Z"/><path class="cls-4" d="M1400.94,681.08h-14.21c-.4,0-.57-.2-.57-.59V666.27c0-.37.17-.56.59-.56h14a.49.49,0,0,1,.56.54v7.63c0,.37-.19.54-.59.54h-12.35V679H1401c.23,0,.37.1.37.34v1.38A.35.35,0,0,1,1400.94,681.08Zm-1.87-13.33h-10.68v5h10.68Z"/><path class="cls-4" d="M1428.31,681H1412.4c-.39,0-.56-.15-.56-.57V661.09c0-.37.17-.56.54-.56h15.69c.42,0,.61.19.61.61v5.65c0,.24-.12.34-.37.34h-1.59a.3.3,0,0,1-.35-.34v-4h-12.2v16h14.14a.33.33,0,0,1,.37.37v1.55C1428.68,680.88,1428.58,681,1428.31,681Z"/><path class="cls-4" d="M1441.2,667.87h-6.09l-1.82,1.42v11.52a.32.32,0,0,1-.36.34h-1.52c-.23,0-.35-.1-.35-.34V668.73a.53.53,0,0,1,.25-.42l3-2.41a.71.71,0,0,1,.49-.17h6.43c.25,0,.34.12.34.35v1.44A.31.31,0,0,1,1441.2,667.87Z"/><path class="cls-4" d="M1457.87,681.08h-14.21c-.4,0-.57-.2-.57-.59V666.27c0-.37.17-.56.59-.56h14a.49.49,0,0,1,.56.54v7.63c0,.37-.19.54-.59.54h-12.35V679h12.57c.23,0,.37.1.37.34v1.38A.35.35,0,0,1,1457.87,681.08ZM1456,667.75h-10.68v5H1456Z"/><path class="cls-4" d="M1475.15,681.08h-14.21a.47.47,0,0,1-.54-.54v-7.71c0-.37.17-.57.54-.57h12.52v-4.49h-12.72c-.24,0-.34-.1-.34-.34v-1.38c0-.24.1-.34.34-.34h14.44a.49.49,0,0,1,.54.56v14.24A.5.5,0,0,1,1475.15,681.08Zm-1.69-7.15h-10.75V679h10.75Z"/><path class="cls-4" d="M1489.24,667.89H1483V679h5.92c.19,0,.29.1.29.35v1.42c0,.25-.1.35-.32.35h-7.78a.32.32,0,0,1-.35-.35V667.89h-3c-.25,0-.37-.1-.37-.34V666.1a.31.31,0,0,1,.34-.34h3v-2.63a.31.31,0,0,1,.32-.34h1.58a.3.3,0,0,1,.34.34v2.63h6.28a.3.3,0,0,1,.32.34v1.45C1489.56,667.79,1489.44,667.89,1489.24,667.89Z"/><path class="cls-4" d="M1505.28,681.08h-13.46c-.39,0-.56-.18-.56-.54V666.27a.48.48,0,0,1,.54-.54h13.48a.5.5,0,0,1,.56.54v14.27A.49.49,0,0,1,1505.28,681.08Zm-1.65-13.21h-10.14V679h10.14Z"/><path class="cls-4" d="M1518.31,667.87h-6.09l-1.82,1.42v11.52a.32.32,0,0,1-.36.34h-1.53a.3.3,0,0,1-.34-.34V668.73a.53.53,0,0,1,.25-.42l3-2.41a.71.71,0,0,1,.49-.17h6.43c.25,0,.34.12.34.35v1.44A.31.31,0,0,1,1518.31,667.87Z"/><path class="cls-4" d="M1533.85,681.08h-13.43c-.22,0-.32-.1-.32-.35v-1.37c0-.25.1-.35.32-.35h11.83v-5h-11.61c-.37,0-.54-.15-.54-.54v-7.22a.48.48,0,0,1,.52-.54H1534a.33.33,0,0,1,.37.35v1.4c0,.24-.15.34-.37.34h-11.69v4.59h11.57a.51.51,0,0,1,.58.56v7.57C1534.46,680.9,1534.27,681.08,1533.85,681.08Z"/><path class="cls-4" d="M1561.42,681h-15.91c-.39,0-.56-.15-.56-.57V661.09c0-.37.17-.56.54-.56h15.68c.42,0,.62.19.62.61v5.65c0,.24-.12.34-.37.34h-1.6a.3.3,0,0,1-.34-.34v-4h-12.2v16h14.14a.33.33,0,0,1,.37.37v1.55C1561.79,680.88,1561.69,681,1561.42,681Z"/><path class="cls-4" d="M1566.25,663.06h-1.57c-.22,0-.34-.1-.34-.35v-2a.3.3,0,0,1,.32-.34h1.59c.25,0,.35.12.35.34v2C1566.6,662.93,1566.5,663.06,1566.25,663.06Zm0,18h-1.57c-.22,0-.34-.1-.34-.32V666a.31.31,0,0,1,.32-.35h1.59c.25,0,.35.15.35.37v14.76C1566.6,681,1566.5,681.1,1566.25,681.1Z"/><path class="cls-4" d="M1579.27,667.87h-6.09l-1.82,1.42v11.52a.33.33,0,0,1-.37.34h-1.52a.3.3,0,0,1-.34-.34V668.73a.55.55,0,0,1,.24-.42l3-2.41a.76.76,0,0,1,.49-.17h6.44c.24,0,.34.12.34.35v1.44A.31.31,0,0,1,1579.27,667.87Z"/><path class="cls-4" d="M1595.3,681.08h-13.6a.47.47,0,0,1-.54-.54V666.3c0-.37.17-.57.51-.57h13.65c.2,0,.3.15.3.35v1.44c0,.25-.1.35-.3.35h-11.93V679h11.93c.2,0,.3.13.3.37v1.43A.29.29,0,0,1,1595.3,681.08Z"/><path class="cls-4" d="M1599.62,681.15h-1.55c-.22,0-.37-.1-.37-.34V660.72a.3.3,0,0,1,.32-.34h1.6c.24,0,.34.12.34.37v20.06C1600,681.05,1599.86,681.15,1599.62,681.15Z"/><path class="cls-4" d="M1617.24,681.08H1603c-.39,0-.57-.2-.57-.59V666.27c0-.37.18-.56.59-.56h14a.5.5,0,0,1,.57.54v7.63c0,.37-.2.54-.59.54H1604.7V679h12.57c.22,0,.37.1.37.34v1.38A.36.36,0,0,1,1617.24,681.08Zm-1.86-13.33H1604.7v5h10.68Z"/><path class="cls-4" d="M1626.57,671l-1.27,6.35a2,2,0,0,1-.15.4l-2.19,3.83c-.07.17-.19.19-.39.19h-1.74c-.15,0-.22,0-.22-.12a.25.25,0,0,1,.05-.17l2.47-4.27,1.28-6.41-1.28-6.43-2.47-4.25a.25.25,0,0,1-.05-.17c0-.1.07-.15.22-.15h1.76a.35.35,0,0,1,.37.25l2.19,3.85a1.2,1.2,0,0,1,.15.37l1.27,6.38a.31.31,0,0,1,0,.17A.45.45,0,0,1,1626.57,671Z"/><path class="cls-4" d="M1178.15,717.4h-1.59c-.25,0-.37-.1-.37-.35V697.19c0-.22.1-.34.37-.34h1.59c.27,0,.39.12.39.39v19.81C1178.54,717.3,1178.4,717.4,1178.15,717.4Z"/><path class="cls-4" d="M1197.35,717.42h-1.62a.52.52,0,0,1-.44-.2l-11.81-16.49v16.32c0,.25-.1.37-.34.37h-1.58c-.22,0-.34-.12-.34-.37V697.36a.41.41,0,0,1,.44-.46h1.45a.51.51,0,0,1,.42.22l12,16.67V697.17a.32.32,0,0,1,.37-.37h1.54a.35.35,0,0,1,.35.39V717A.43.43,0,0,1,1197.35,717.42Z"/><path class="cls-4" d="M1202.46,717.4h-1.6c-.24,0-.37-.1-.37-.35V697.19c0-.22.1-.34.37-.34h1.6c.27,0,.39.12.39.39v19.81C1202.85,717.3,1202.7,717.4,1202.46,717.4Z"/><path class="cls-4" d="M1222.07,717.47h-1.57c-.27,0-.34-.07-.34-.34v-7.57h-12.3v7.57c0,.24-.13.34-.37.34h-1.57c-.25,0-.37-.1-.37-.34V697.46c0-.39.17-.56.56-.56h15.77c.36,0,.56.19.56.61v19.62C1222.44,717.37,1222.34,717.47,1222.07,717.47Zm-1.91-18.34h-12.3v8.22h12.3Z"/><path class="cls-4" d="M1241.59,715l-2.21,2.19a.77.77,0,0,1-.49.17h-13.33c-.4,0-.59-.17-.59-.54V697.39a.52.52,0,0,1,.59-.59h13.38a.56.56,0,0,1,.46.19l2.19,2.21a.67.67,0,0,1,.22.47V714.5A.79.79,0,0,1,1241.59,715Zm-2.19-14.8-1.17-1.18h-11v16.16h11l1.17-1.16Z"/><path class="cls-4" d="M1266.41,717.44H1253c-.39,0-.56-.17-.56-.54V702.64a.48.48,0,0,1,.54-.54h13.48a.5.5,0,0,1,.56.54V716.9C1267,717.27,1266.78,717.44,1266.41,717.44Zm-1.65-13.2h-10.14v11.09h10.14Z"/><path class="cls-4" d="M1283.2,705.59h-8.49v11.56a.31.31,0,0,1-.35.34h-1.52c-.25,0-.37-.12-.37-.32V705.59H1269c-.22,0-.34-.13-.34-.37v-1.45a.31.31,0,0,1,.34-.34h3.51v-6c0-.37.17-.56.54-.56h9.7c.22,0,.34.12.34.36v1.4c0,.25-.12.35-.34.35h-8v4.47h8.49a.32.32,0,0,1,.34.36v1.43A.33.33,0,0,1,1283.2,705.59Z"/><path class="cls-4" d="M1292.65,705.24h-3.85V715.9c0,.19-.13.32-.37.32H1287c-.24,0-.34-.1-.34-.3V705.24h-1.5c-.24,0-.37-.1-.37-.34v-1.6a.31.31,0,0,1,.35-.34h1.52v-5.79c0-.37.17-.57.54-.57h5.18c.25,0,.34.12.34.37v1.42c0,.22-.09.35-.34.35h-3.58V703h3.85a.31.31,0,0,1,.34.34v1.6A.3.3,0,0,1,1292.65,705.24Zm3.54-5.4h-1.33c-.25,0-.34-.1-.34-.34V697c0-.25.09-.37.32-.37h1.35c.22,0,.34.12.34.37v2.53A.31.31,0,0,1,1296.19,699.84Zm0,16.4h-1.33c-.25,0-.34-.12-.34-.32V701.51c0-.24.09-.37.32-.37h1.35a.33.33,0,0,1,.34.37V715.9A.31.31,0,0,1,1296.19,716.24Z"/><path class="cls-4" d="M1314.08,717.44h-13.6a.47.47,0,0,1-.54-.54V702.67c0-.37.17-.57.52-.57h13.65c.19,0,.29.15.29.34v1.45c0,.25-.1.35-.29.35h-11.93v11.09h11.93c.19,0,.29.13.29.37v1.43A.28.28,0,0,1,1314.08,717.44Z"/><path class="cls-4" d="M1318.4,699.42h-1.57c-.22,0-.34-.09-.34-.34v-2a.3.3,0,0,1,.32-.34h1.59c.25,0,.35.12.35.34v2C1318.75,699.3,1318.65,699.42,1318.4,699.42Zm0,18.05h-1.57c-.22,0-.34-.1-.34-.32v-14.8c0-.23.12-.35.32-.35h1.59c.25,0,.35.15.35.37v14.76C1318.75,717.37,1318.65,717.47,1318.4,717.47Z"/><path class="cls-4" d="M1335.93,717.44h-14.21a.47.47,0,0,1-.54-.54v-7.7c0-.37.17-.57.54-.57h12.52v-4.49h-12.72c-.24,0-.34-.1-.34-.35v-1.37c0-.25.1-.34.34-.34H1336a.49.49,0,0,1,.54.56v14.24A.5.5,0,0,1,1335.93,717.44Zm-1.69-7.14h-10.76v5.08h10.76Z"/><path class="cls-4" d="M1340.89,717.52h-1.55a.31.31,0,0,1-.36-.35V697.09a.3.3,0,0,1,.31-.34h1.6c.25,0,.34.12.34.37v20C1341.23,717.42,1341.14,717.52,1340.89,717.52Z"/><path class="cls-4" d="M1368.31,699.15H1361v17.9c0,.25-.1.37-.37.37h-1.57c-.27,0-.37-.1-.37-.37v-17.9h-7.12c-.25,0-.37-.12-.37-.39v-1.47c0-.27.1-.39.34-.39h16.77c.27,0,.37.12.37.39v1.47C1368.68,699,1368.58,699.15,1368.31,699.15Z"/><path class="cls-4" d="M1385.06,717.44h-14.22c-.39,0-.56-.19-.56-.58V702.64c0-.37.17-.56.59-.56h14a.5.5,0,0,1,.57.54v7.63c0,.37-.2.54-.59.54h-12.35v4.57h12.57c.22,0,.37.1.37.34v1.38A.35.35,0,0,1,1385.06,717.44Zm-1.87-13.33h-10.68v5h10.68Z"/><path class="cls-4" d="M1401.53,717.52H1400c-.22,0-.35-.12-.35-.3v-13h-9.77v12.93a.31.31,0,0,1-.34.35H1388c-.22,0-.34-.1-.34-.35V702.64a.48.48,0,0,1,.54-.54h13.11a.5.5,0,0,1,.56.54v14.53A.31.31,0,0,1,1401.53,717.52Z"/><path class="cls-4" d="M1418.05,717.52h-1.52c-.22,0-.35-.12-.35-.3v-13h-9.77v12.93a.31.31,0,0,1-.34.35h-1.55c-.22,0-.34-.1-.34-.35V702.64a.48.48,0,0,1,.54-.54h13.11a.5.5,0,0,1,.56.54v14.53A.31.31,0,0,1,1418.05,717.52Z"/><path class="cls-4" d="M1422.81,699.42h-1.57c-.22,0-.34-.09-.34-.34v-2a.3.3,0,0,1,.31-.34h1.6c.25,0,.35.12.35.34v2C1423.16,699.3,1423.06,699.42,1422.81,699.42Zm0,18.05h-1.57c-.22,0-.34-.1-.34-.32v-14.8c0-.23.12-.35.31-.35h1.6c.25,0,.35.15.35.37v14.76C1423.16,717.37,1423.06,717.47,1422.81,717.47Z"/><path class="cls-4" d="M1439.31,717.44h-13.43c-.22,0-.32-.09-.32-.34v-1.37c0-.25.1-.35.32-.35h11.83v-5H1426.1c-.37,0-.54-.15-.54-.54v-7.22a.48.48,0,0,1,.52-.54h13.38a.33.33,0,0,1,.37.34v1.4c0,.25-.15.35-.37.35h-11.69v4.59h11.56c.42,0,.59.22.59.56v7.56C1439.92,717.27,1439.73,717.44,1439.31,717.44Z"/><path class="cls-4" d="M1453.18,708.31h-10.53c-.22,0-.35-.1-.35-.32v-1.47c0-.22.1-.34.35-.34h10.55a.34.34,0,0,1,.35.34V708C1453.55,708.21,1453.42,708.31,1453.18,708.31Z"/><path class="cls-4" d="M1470.19,717.44h-13.6a.47.47,0,0,1-.54-.54V702.67c0-.37.17-.57.52-.57h13.65c.19,0,.29.15.29.34v1.45c0,.25-.1.35-.29.35h-11.93v11.09h11.93c.19,0,.29.13.29.37v1.43A.28.28,0,0,1,1470.19,717.44Z"/><path class="cls-4" d="M1474.51,717.52H1473c-.23,0-.37-.1-.37-.35V697.09a.3.3,0,0,1,.32-.34h1.59c.25,0,.35.12.35.37v20C1474.86,717.42,1474.76,717.52,1474.51,717.52Z"/><path class="cls-4" d="M1490.64,717.44H1478c-.42,0-.59-.17-.59-.54V702.42c0-.25.1-.34.37-.34h1.5a.33.33,0,0,1,.36.36v12.89H1489V702.42c0-.25.15-.34.37-.34h1.5c.24,0,.34.09.34.36V716.9A.47.47,0,0,1,1490.64,717.44Z"/><path class="cls-4" d="M1507.38,717.44h-13.3c-.39,0-.57-.17-.57-.54V697.19c0-.25.1-.34.35-.34h1.52c.22,0,.37.09.37.34v4.91h11.63a.5.5,0,0,1,.57.57V716.9C1508,717.27,1507.78,717.44,1507.38,717.44Zm-1.62-13.2h-10v11.09h10Z"/><path class="cls-4" d="M1178.15,753.76h-1.59c-.25,0-.37-.09-.37-.34V733.56c0-.22.1-.35.37-.35h1.59c.27,0,.39.13.39.4v19.81C1178.54,753.67,1178.4,753.76,1178.15,753.76Z"/><path class="cls-4" d="M1183.31,753.76h-1.6c-.24,0-.37-.09-.37-.34V733.56c0-.22.1-.35.37-.35h1.6c.27,0,.39.13.39.4v19.81C1183.7,753.67,1183.55,753.76,1183.31,753.76Z"/><path class="cls-4" d="M1202.51,753.79h-1.62a.54.54,0,0,1-.45-.2l-11.81-16.5v16.33c0,.25-.09.37-.34.37h-1.57c-.22,0-.34-.12-.34-.37V733.73c0-.29.14-.47.44-.47h1.45a.52.52,0,0,1,.41.22l12,16.67V733.53a.33.33,0,0,1,.37-.36h1.55a.35.35,0,0,1,.34.39v19.76A.42.42,0,0,1,1202.51,753.79Z"/><path class="cls-4" d="M1207.61,753.76H1206c-.25,0-.37-.09-.37-.34V733.56c0-.22.1-.35.37-.35h1.59c.27,0,.39.13.39.4v19.81C1208,753.67,1207.86,753.76,1207.61,753.76Z"/><path class="cls-4" d="M1227.23,753.84h-1.57c-.27,0-.35-.08-.35-.35v-7.56H1213v7.56c0,.25-.12.35-.37.35h-1.57c-.24,0-.37-.1-.37-.35V733.83a.5.5,0,0,1,.57-.57H1227c.37,0,.57.2.57.62v19.61C1227.6,753.74,1227.5,753.84,1227.23,753.84Zm-1.92-18.34H1213v8.22h12.3Z"/><path class="cls-4" d="M1246.74,751.38l-2.2,2.19a.78.78,0,0,1-.5.17h-13.33c-.39,0-.59-.17-.59-.54V733.75a.52.52,0,0,1,.59-.58h13.38a.54.54,0,0,1,.47.19l2.18,2.21a.63.63,0,0,1,.23.47v14.83A.78.78,0,0,1,1246.74,751.38Zm-2.18-14.8-1.18-1.18h-11v16.15h11l1.18-1.15Z"/><path class="cls-4" d="M1260.44,744.68h-10.53c-.22,0-.34-.1-.34-.32v-1.47c0-.22.09-.35.34-.35h10.56a.34.34,0,0,1,.34.35v1.47C1260.81,744.58,1260.69,744.68,1260.44,744.68Z"/><path class="cls-4" d="M1279.64,735.52h-13.9v7H1279a.3.3,0,0,1,.34.34v1.5a.33.33,0,0,1-.34.37h-13.29v8.81a.31.31,0,0,1-.34.35h-1.6c-.24,0-.36-.08-.36-.32V733.83a.5.5,0,0,1,.56-.57h15.64a.33.33,0,0,1,.37.37v1.5A.35.35,0,0,1,1279.64,735.52Z"/><path class="cls-4" d="M1298.17,753.74h-15.31c-.4,0-.62-.17-.62-.57V733.88a.55.55,0,0,1,.62-.62h15.31a.34.34,0,0,1,.37.37v1.5c0,.27-.12.37-.39.37h-13.6v6.72h12.82c.24,0,.36.13.36.4V744c0,.27-.12.39-.36.39h-12.82v7.12h13.62c.25,0,.37.1.37.35v1.5C1298.54,753.64,1298.42,753.74,1298.17,753.74Z"/><path class="cls-4" d="M1316.91,753.74h-15.64c-.25,0-.37-.1-.37-.34v-1.53a.33.33,0,0,1,.37-.37h13.94v-7h-13.72c-.39,0-.59-.15-.59-.54V733.85a.52.52,0,0,1,.56-.59H1317c.27,0,.37.13.37.35v1.52c0,.27-.13.37-.37.37h-13.8v6.87h13.7a.51.51,0,0,1,.57.57v10.21C1317.5,753.57,1317.3,753.74,1316.91,753.74Z"/><path class="cls-4" d="M1349.78,748.39h-13.46l-4.88,5.72a.57.57,0,0,1-.42.19h-2.09c-.14,0-.19,0-.19-.09a.31.31,0,0,1,.07-.15l4.84-5.67h-5.16a.3.3,0,0,1-.34-.35v-1c0-.24.1-.37.32-.37h6.65l2.11-2.45h-7c-.22,0-.35-.07-.35-.35v-1a.31.31,0,0,1,.35-.34h7.9v-2.31h-8.64c-.25,0-.34-.12-.34-.37v-1c0-.22.07-.34.32-.34h8.66v-1.89c0-.22.1-.35.37-.35h1.4c.22,0,.34.13.34.37v1.87h8.62c.25,0,.35.12.35.37v.95c0,.25-.1.37-.37.37h-8.6v2.31h8a.3.3,0,0,1,.34.34v1c0,.25-.1.35-.37.35h-8.22l-2.09,2.45h12a.33.33,0,0,1,.34.37v1A.31.31,0,0,1,1349.78,748.39Zm-.22-10.49h-1.35c-.25,0-.35-.09-.35-.34V735.3h-17.43v2.26c0,.22-.12.34-.37.34h-1.35c-.22,0-.34-.09-.34-.34V734c0-.37.17-.56.54-.56h9.16v-.84c0-.24.1-.37.37-.37h1.42c.25,0,.34.13.34.37v.84h9.14a.5.5,0,0,1,.56.56v3.61A.31.31,0,0,1,1349.56,737.9Zm-.22,16.4h-2.09a.7.7,0,0,1-.47-.19l-4.93-4.54c-.08-.08-.1-.13-.1-.18s.07-.09.22-.09H1344a.63.63,0,0,1,.45.22l5,4.54c.08.07.1.12.1.17S1349.46,754.3,1349.34,754.3Z"/><path class="cls-4" d="M1358.93,738.69l-3.46,5.69h1.23a.34.34,0,0,1,.37.35V754a.34.34,0,0,1-.37.37h-1.4a.33.33,0,0,1-.37-.34v-8.74l-.86,1.4a.43.43,0,0,1-.39.22H1352c-.15,0-.22,0-.22-.15a.21.21,0,0,1,0-.15l4.89-8a.46.46,0,0,1,.37-.25h1.69c.15,0,.22.07.22.17A.3.3,0,0,1,1358.93,738.69Zm-.22-6.14-4.46,7.46a.46.46,0,0,1-.4.23h-1.72c-.17,0-.24,0-.24-.13a.29.29,0,0,1,.07-.17l4.5-7.46a.56.56,0,0,1,.41-.25h1.67c.15,0,.22,0,.22.15A.25.25,0,0,1,1358.71,732.55Zm15.86,8.77h-3v12.47a.52.52,0,0,1-.59.56h-6.09c-.27,0-.34-.1-.34-.37v-1.32c0-.22.07-.32.32-.32h4.51v-11h-9.15a.31.31,0,0,1-.35-.35v-1.35c0-.24.08-.34.3-.34h14.43c.22,0,.32.12.32.34V741C1374.89,741.19,1374.79,741.32,1374.57,741.32Zm-.68-6.58H1361c-.25,0-.37-.1-.37-.32v-1.35a.32.32,0,0,1,.37-.37h12.91a.33.33,0,0,1,.34.37v1.35C1374.25,734.64,1374.13,734.74,1373.89,734.74Z"/><path class="cls-4" d="M1399.05,738.2h-8l7.93,3.31a.41.41,0,0,1,.27.4V743c0,.17-.07.29-.17.29a.44.44,0,0,1-.15-.05l-9.57-4.27v3.8a.31.31,0,0,1-.35.35h-1.52c-.24,0-.37-.1-.37-.35v-3.75l-9.57,4.22a.44.44,0,0,1-.15.05c-.12,0-.17-.12-.17-.29v-1.13a.41.41,0,0,1,.27-.4l8-3.31h-8.15a.32.32,0,0,1-.37-.35v-1c0-.22.1-.35.37-.35h9.72v-2.23l-9,.42c-.22,0-.32-.1-.32-.35v-.95c0-.25.1-.37.32-.37l20.18-.94c.22,0,.34.1.34.35v.91a.32.32,0,0,1-.34.36l-9,.45v2.35h9.72a.32.32,0,0,1,.37.35v1A.33.33,0,0,1,1399.05,738.2Zm0,8.37h-2v3a.3.3,0,0,1-.24.34l-4.91,1.18,7,1.52c.17,0,.27.15.27.3v1.15c0,.2-.07.32-.25.32l-10.63-2.33-10.7,2.5c-.12,0-.2-.12-.2-.27v-1.15a.28.28,0,0,1,.22-.32l7.17-1.67-5.92-1.32c-.14,0-.22-.1-.22-.18a.27.27,0,0,1,.08-.17l1.94-2.92h-3.22c-.24,0-.37-.07-.37-.34v-1.08a.32.32,0,0,1,.35-.35h4.42l1.25-1.91a.44.44,0,0,1,.39-.22h1.77c.15,0,.22.05.22.12a.4.4,0,0,1-.07.2l-1.13,1.81h14.85c.22,0,.34.13.34.37v1.06A.3.3,0,0,1,1399.05,746.57Zm-4.22-.07h-11.69l-1.47,2.3,6.65,1.5,6.51-1.55Z"/><path class="cls-4" d="M1422.59,751.68h-1.13l1.45,2.28a.45.45,0,0,1,0,.17c0,.1-.07.12-.22.12H1421a.36.36,0,0,1-.39-.22l-1.43-2.35h-12.72L1405,754a.38.38,0,0,1-.36.22h-1.87c-.15,0-.22,0-.22-.12s0-.07,0-.15l1.45-2.3h-1.11a.49.49,0,0,1-.56-.54v-11a.49.49,0,0,1,.56-.54h19.72a.5.5,0,0,1,.56.54v11C1423.18,751.5,1423,751.68,1422.59,751.68Zm-.71-13.73h-18.26a.47.47,0,0,1-.54-.54v-4.2a.49.49,0,0,1,.54-.56h18.26a.52.52,0,0,1,.57.59v4.15A.5.5,0,0,1,1421.88,738Zm-.81,3.19h-16.65v2h16.65Zm0,3.49h-16.65v2h16.65Zm0,3.46h-16.65v2h16.65Zm-.71-13.87h-15.2v2.16h15.2Z"/><path class="cls-4" d="M1448.47,739.92a.77.77,0,0,1-.17,0l-11-5.92-11,5.92-.14,0c-.1,0-.15-.08-.15-.25V738a.37.37,0,0,1,.22-.37l10-5.43a1.18,1.18,0,0,1,.42-.1h1.3a1,1,0,0,1,.37.1l10,5.43a.37.37,0,0,1,.25.37v1.64C1448.62,739.84,1448.57,739.92,1448.47,739.92Zm-.52,7.34h-15.49l-2.67,4.66h15.41l-1.49-3.68a.45.45,0,0,1,0-.17c0-.1.09-.17.29-.17h1.65a.33.33,0,0,1,.34.27l2.16,5.45a.42.42,0,0,1,0,.14c0,.13-.07.18-.24.18h-20.13c-.4,0-.57-.18-.57-.57v-1.23a.76.76,0,0,1,.1-.39l2.6-4.49h-3.21a.31.31,0,0,1-.35-.35v-1.25c0-.22.1-.34.32-.34H1448a.33.33,0,0,1,.35.34v1.25A.32.32,0,0,1,1448,747.26Zm-2.06-5.35h-17.11a.31.31,0,0,1-.35-.35v-1.2c0-.22.1-.35.32-.35h17.14a.34.34,0,0,1,.37.37v1.18A.34.34,0,0,1,1445.89,741.91Z"/><path class="cls-4" d="M1178.15,790.13h-1.59c-.25,0-.37-.1-.37-.34V769.93c0-.22.1-.35.37-.35h1.59c.27,0,.39.13.39.4v19.81C1178.54,790,1178.4,790.13,1178.15,790.13Z"/><path class="cls-4" d="M1197.35,790.16h-1.62a.52.52,0,0,1-.44-.2l-11.81-16.5v16.33c0,.24-.1.37-.34.37h-1.58c-.22,0-.34-.13-.34-.37V770.1a.41.41,0,0,1,.44-.47h1.45a.54.54,0,0,1,.42.22l12,16.67V769.9a.33.33,0,0,1,.37-.37h1.54a.36.36,0,0,1,.35.4v19.76A.43.43,0,0,1,1197.35,790.16Z"/><path class="cls-4" d="M1202.46,790.13h-1.6c-.24,0-.37-.1-.37-.34V769.93c0-.22.1-.35.37-.35h1.6c.27,0,.39.13.39.4v19.81C1202.85,790,1202.7,790.13,1202.46,790.13Z"/><path class="cls-4" d="M1222.07,790.21h-1.57c-.27,0-.34-.08-.34-.35V782.3h-12.3v7.56c0,.25-.13.35-.37.35h-1.57c-.25,0-.37-.1-.37-.35V770.2c0-.4.17-.57.56-.57h15.77c.36,0,.56.2.56.62v19.61C1222.44,790.11,1222.34,790.21,1222.07,790.21Zm-1.91-18.34h-12.3v8.22h12.3Z"/><path class="cls-4" d="M1241.59,787.75l-2.21,2.19a.77.77,0,0,1-.49.17h-13.33c-.4,0-.59-.17-.59-.54V770.12a.52.52,0,0,1,.59-.59h13.38a.54.54,0,0,1,.46.2l2.19,2.21a.66.66,0,0,1,.22.47v14.83A.84.84,0,0,1,1241.59,787.75ZM1239.4,773l-1.17-1.18h-11v16.15h11l1.17-1.15Z"/><path class="cls-4" d="M1287.87,790.16h-1.58c-.22,0-.32-.13-.32-.37v-16.3l-6.4,12.47a.51.51,0,0,1-.47.22h-1.18a.43.43,0,0,1-.42-.22l-6.4-12.47v16.3c0,.24-.1.37-.32.37h-1.57c-.22,0-.32-.13-.32-.37V770.07a.43.43,0,0,1,.44-.49H1271a.65.65,0,0,1,.56.3l7,13.43,6.88-13.41a.61.61,0,0,1,.61-.32h1.67c.3,0,.44.15.44.49v19.72C1288.18,790,1288.09,790.16,1287.87,790.16Z"/><path class="cls-4" d="M1292.73,772.16h-1.58a.3.3,0,0,1-.34-.34v-2a.31.31,0,0,1,.32-.35h1.6a.3.3,0,0,1,.34.35v2C1293.07,772,1293,772.16,1292.73,772.16Zm0,18.05h-1.58c-.22,0-.34-.1-.34-.32V775.08a.3.3,0,0,1,.32-.34h1.6c.24,0,.34.15.34.37v14.75C1293.07,790.11,1293,790.21,1292.73,790.21Z"/><path class="cls-4" d="M1309.44,790.25h-1.52c-.22,0-.34-.12-.34-.29V777h-9.77v12.94a.31.31,0,0,1-.35.34h-1.54c-.22,0-.35-.09-.35-.34V775.38a.48.48,0,0,1,.54-.54h13.11a.5.5,0,0,1,.57.54v14.53A.31.31,0,0,1,1309.44,790.25Z"/><path class="cls-4" d="M1326.87,790.18h-14.21c-.39,0-.57-.2-.57-.59V775.38c0-.37.18-.57.59-.57h14a.5.5,0,0,1,.57.54V783c0,.37-.2.54-.59.54h-12.35v4.56h12.57c.22,0,.37.1.37.35v1.37A.36.36,0,0,1,1326.87,790.18ZM1325,776.85h-10.68v5H1325Z"/><path class="cls-4" d="M1343.62,790.18H1330c-.37,0-.55-.17-.55-.54V775.4c0-.37.18-.56.52-.56h13.65c.2,0,.3.14.3.34v1.45c0,.24-.1.34-.3.34h-11.93v11.1h11.93c.2,0,.3.12.3.37v1.42A.29.29,0,0,1,1343.62,790.18Z"/><path class="cls-4" d="M1356,777h-6.09l-1.82,1.43v11.51a.32.32,0,0,1-.37.34h-1.52c-.22,0-.34-.09-.34-.34V777.83a.55.55,0,0,1,.24-.42l3-2.4a.67.67,0,0,1,.49-.17H1356a.3.3,0,0,1,.34.34v1.45A.31.31,0,0,1,1356,777Z"/><path class="cls-4" d="M1372.56,790.18h-14.22a.47.47,0,0,1-.54-.54v-7.71a.49.49,0,0,1,.54-.56h12.53v-4.5h-12.72c-.25,0-.35-.09-.35-.34v-1.37c0-.25.1-.35.35-.35h14.43c.35,0,.54.17.54.57v14.24A.49.49,0,0,1,1372.56,790.18Zm-1.69-7.14h-10.76v5.08h10.76Z"/><path class="cls-4" d="M1389.33,778.32h-8.5v11.57a.31.31,0,0,1-.34.34H1379c-.25,0-.37-.12-.37-.32V778.32h-3.51a.32.32,0,0,1-.35-.37v-1.44a.32.32,0,0,1,.35-.35h3.51v-6c0-.37.17-.57.54-.57h9.7c.22,0,.34.13.34.37v1.4c0,.25-.12.34-.34.34h-8v4.47h8.5a.33.33,0,0,1,.34.37V778A.33.33,0,0,1,1389.33,778.32Z"/><path class="cls-4" d="M1402.56,777h-6.29v11.07h5.92c.2,0,.3.1.3.34v1.43c0,.24-.1.34-.32.34h-7.79a.31.31,0,0,1-.34-.34V777h-3c-.25,0-.37-.1-.37-.35v-1.44a.31.31,0,0,1,.35-.35h3v-2.63a.3.3,0,0,1,.32-.34h1.57c.25,0,.34.12.34.34v2.63h6.29c.2,0,.32.12.32.35v1.44C1402.88,776.9,1402.76,777,1402.56,777Z"/><path class="cls-4" d="M1459.1,774.25h-1.62v15.27c0,.42-.17.61-.62.61h-17.11c-.22,0-.34-.1-.34-.32v-1.49c0-.23.1-.35.34-.35h15.49V774.25h-13.52v9.23c0,.24-.13.34-.37.34h-1.5c-.25,0-.37-.07-.37-.32v-9.25h-1.74a.32.32,0,0,1-.35-.35v-1.52a.33.33,0,0,1,.35-.37h1.74v-2.65c0-.24.1-.37.35-.37h1.52c.24,0,.37.13.37.4V772h13.52v-2.65c0-.24.1-.37.35-.37h1.52a.33.33,0,0,1,.37.37V772h1.67c.22,0,.32.13.32.37v1.52C1459.47,774.12,1459.37,774.25,1459.1,774.25Z"/><path class="cls-4" d="M1482.17,780.78h-18.41c-.24,0-.34-.12-.34-.37v-1.6c0-.24.1-.36.34-.36h18.41a.32.32,0,0,1,.35.36v1.6C1482.52,780.66,1482.4,780.78,1482.17,780.78Z"/><path class="cls-4" d="M1506.82,790.13h-18.07c-.24,0-.34-.1-.34-.34v-1.45c0-.25.1-.37.32-.37h16.42V772.68h-14.07v6.4a.56.56,0,0,1-.63.62H1487c-.22,0-.34-.1-.34-.35V778c0-.22.09-.31.34-.31h1.89v-6.56c0-.39.17-.56.52-.56h17.43a.49.49,0,0,1,.56.56v18.41C1507.41,790,1507.22,790.13,1506.82,790.13Z"/><path class="cls-4" d="M1515,790.11h-3.71c-.24,0-.36-.1-.36-.32v-1.55c0-.24.1-.34.34-.34h2.09V769.78c0-.22.1-.34.32-.34h1.57c.24,0,.37.12.37.34v19.71C1515.59,789.94,1515.39,790.11,1515,790.11Zm16.87,0h-11.27c-.39,0-.57-.17-.57-.54V769.78c0-.22.1-.34.35-.34h1.55a.32.32,0,0,1,.34.34V788h8V777.86c0-.25.12-.35.34-.35h1.47a.31.31,0,0,1,.35.35v11.66C1532.43,789.94,1532.26,790.11,1531.84,790.11Z"/><path class="cls-4" d="M1192.2,826.52h-1.62a.53.53,0,0,1-.45-.19l-11.81-16.5v16.33c0,.24-.09.36-.34.36h-1.57c-.22,0-.34-.12-.34-.36V806.47c0-.3.14-.47.44-.47H1178a.49.49,0,0,1,.41.22l12,16.67V806.27a.33.33,0,0,1,.37-.37h1.55a.35.35,0,0,1,.34.39v19.77A.42.42,0,0,1,1192.2,826.52Z"/><path class="cls-4" d="M1209.11,826.55h-13.45c-.4,0-.57-.17-.57-.54V811.75a.48.48,0,0,1,.54-.54h13.48a.49.49,0,0,1,.56.54V826C1209.67,826.38,1209.48,826.55,1209.11,826.55Zm-1.65-13.21h-10.13v11.1h10.13Z"/><path class="cls-4" d="M1226.66,826.55h-14.21a.47.47,0,0,1-.54-.54V818.3c0-.37.17-.56.54-.56H1225v-4.5h-12.72c-.24,0-.34-.1-.34-.34v-1.38c0-.24.1-.34.34-.34h14.44c.34,0,.54.17.54.57V826A.5.5,0,0,1,1226.66,826.55Zm-1.69-7.14h-10.76v5.08H1225Z"/><path class="cls-4" d="M1243.18,826.6h-1.54c-.25,0-.35-.1-.35-.32v-13h-9.55v13c0,.22-.14.32-.39.32h-1.47c-.25,0-.37-.1-.37-.32v-20c0-.25.1-.35.32-.35h1.52c.25,0,.39.12.39.35v4.93H1243c.37,0,.54.2.54.59v14.51C1243.5,826.5,1243.41,826.6,1243.18,826.6Z"/><path class="cls-4" d="M1245.64,812.46a38,38,0,0,0,1.57-6.29l2.18-.27a32.24,32.24,0,0,1-2.43,6.39Z"/><path class="cls-4" d="M1277.11,826.55h-13.43c-.22,0-.32-.1-.32-.34v-1.38c0-.25.1-.34.32-.34h11.84v-5H1263.9c-.36,0-.54-.14-.54-.54v-7.21a.48.48,0,0,1,.52-.54h13.38a.33.33,0,0,1,.37.34V813c0,.24-.15.34-.37.34h-11.69v4.59h11.57a.52.52,0,0,1,.59.57V826C1277.73,826.38,1277.53,826.55,1277.11,826.55Z"/><path class="cls-4" d="M1296.58,826.57H1295c-.27,0-.34-.07-.34-.34v-7.56h-12.3v7.56c0,.25-.13.34-.37.34h-1.58c-.24,0-.36-.09-.36-.34V806.56c0-.39.17-.56.56-.56h15.76c.37,0,.57.2.57.61v19.62C1297,826.48,1296.85,826.57,1296.58,826.57Zm-1.91-18.34h-12.3v8.23h12.3Z"/><path class="cls-4" d="M1309.52,813.34h-6.09l-1.82,1.42v11.52a.33.33,0,0,1-.37.34h-1.52a.3.3,0,0,1-.34-.34V814.2a.55.55,0,0,1,.24-.42l3-2.4a.7.7,0,0,1,.49-.17h6.44a.3.3,0,0,1,.34.34V813A.31.31,0,0,1,1309.52,813.34Z"/><path class="cls-4" d="M1325.65,826.48h-2.09a.54.54,0,0,1-.49-.2l-7-7.34h-2.4v7.31c0,.25-.1.35-.35.35h-1.52c-.22,0-.34-.1-.34-.32v-20c0-.23.09-.35.34-.35h1.52c.25,0,.35.12.35.35v10.53h2.45l6.48-5.45a.66.66,0,0,1,.54-.2h2.07c.17,0,.27,0,.27.15s0,.12-.13.22l-7.53,6.33,8,8.3a.54.54,0,0,1,.12.22C1325.89,826.43,1325.79,826.48,1325.65,826.48Z"/><path class="cls-4" d="M1178.15,862.87h-1.59c-.25,0-.37-.1-.37-.35V842.66c0-.22.1-.34.37-.34h1.59c.27,0,.39.12.39.39v19.81C1178.54,862.77,1178.4,862.87,1178.15,862.87Z"/><path class="cls-4" d="M1197.35,862.89h-1.62a.54.54,0,0,1-.44-.19l-11.81-16.5v16.32c0,.25-.1.37-.34.37h-1.58c-.22,0-.34-.12-.34-.37V842.83a.41.41,0,0,1,.44-.46h1.45a.51.51,0,0,1,.42.22l12,16.67V842.64a.32.32,0,0,1,.37-.37h1.54a.35.35,0,0,1,.35.39v19.77A.42.42,0,0,1,1197.35,862.89Z"/><path class="cls-4" d="M1202.46,862.87h-1.6c-.24,0-.37-.1-.37-.35V842.66c0-.22.1-.34.37-.34h1.6c.27,0,.39.12.39.39v19.81C1202.85,862.77,1202.7,862.87,1202.46,862.87Z"/><path class="cls-4" d="M1222.07,862.94h-1.57c-.27,0-.34-.07-.34-.34V855h-12.3v7.56c0,.24-.13.34-.37.34h-1.57c-.25,0-.37-.1-.37-.34V842.93c0-.39.17-.56.56-.56h15.77c.36,0,.56.19.56.61V862.6C1222.44,862.84,1222.34,862.94,1222.07,862.94Zm-1.91-18.34h-12.3v8.23h12.3Z"/><path class="cls-4" d="M1241.59,860.49l-2.21,2.18a.77.77,0,0,1-.49.17h-13.33c-.4,0-.59-.17-.59-.54V842.86a.52.52,0,0,1,.59-.59h13.38a.54.54,0,0,1,.46.2l2.19,2.21a.65.65,0,0,1,.22.46V860A.84.84,0,0,1,1241.59,860.49Zm-2.19-14.81-1.17-1.18h-11v16.16h11l1.17-1.16Z"/><path class="cls-4" d="M1269.13,860.49l-2.21,2.18a.75.75,0,0,1-.49.17H1253.1c-.39,0-.59-.17-.59-.54V842.86a.52.52,0,0,1,.59-.59h13.38a.55.55,0,0,1,.47.2l2.18,2.21a.62.62,0,0,1,.22.46V860A.79.79,0,0,1,1269.13,860.49ZM1267,845.68l-1.18-1.18h-11v16.16h11l1.18-1.16Z"/><path class="cls-4" d="M1286.54,862.92h-14.22c-.39,0-.56-.2-.56-.59V848.11c0-.36.17-.56.59-.56h14a.5.5,0,0,1,.56.54v7.63c0,.37-.2.54-.59.54H1274v4.57h12.57c.22,0,.37.1.37.34v1.38A.36.36,0,0,1,1286.54,862.92Zm-1.87-13.33H1274v5h10.68Z"/><path class="cls-4" d="M1304.36,847.89,1299,862.62c-.09.25-.24.3-.49.3h-4a.41.41,0,0,1-.47-.3l-5.32-14.73a.45.45,0,0,1,0-.17c0-.15.12-.22.29-.22h1.7a.38.38,0,0,1,.39.27l4.64,13h1.69l4.62-13a.34.34,0,0,1,.37-.27h1.72c.19,0,.27,0,.27.22A.38.38,0,0,1,1304.36,847.89Z"/><path class="cls-4" d="M1321,862.92h-14.21c-.4,0-.57-.2-.57-.59V848.11c0-.36.17-.56.59-.56h14a.5.5,0,0,1,.56.54v7.63c0,.37-.19.54-.59.54h-12.35v4.57h12.57c.23,0,.37.1.37.34v1.38A.35.35,0,0,1,1321,862.92Zm-1.87-13.33h-10.68v5h10.68Z"/><path class="cls-4" d="M1325.74,863h-1.54c-.23,0-.37-.1-.37-.34V842.56a.3.3,0,0,1,.32-.34h1.59c.25,0,.35.12.35.37v20.06C1326.09,862.89,1326,863,1325.74,863Z"/><path class="cls-4" d="M1342.61,862.92h-13.45c-.4,0-.57-.17-.57-.54V848.11a.48.48,0,0,1,.54-.54h13.48a.5.5,0,0,1,.56.54v14.27C1343.17,862.75,1343,862.92,1342.61,862.92ZM1341,849.71h-10.14v11.1H1341Z"/><path class="cls-4" d="M1358.76,862.92h-11v2.43c0,.24-.12.32-.35.32h-1.54c-.22,0-.35-.08-.35-.3V848.06q0-.51.54-.51h12.72a.47.47,0,0,1,.54.54v14.29C1359.3,862.77,1359.11,862.92,1358.76,862.92Zm-1.67-13.26h-9.35v11.12h9.35Z"/><path class="cls-4" d="M1376.36,862.92h-14.21c-.39,0-.57-.2-.57-.59V848.11c0-.36.18-.56.59-.56h14a.5.5,0,0,1,.57.54v7.63c0,.37-.2.54-.59.54h-12.35v4.57h12.57c.22,0,.37.1.37.34v1.38A.36.36,0,0,1,1376.36,862.92Zm-1.86-13.33h-10.68v5h10.68Z"/><path class="cls-4" d="M1389.13,849.71H1383l-1.82,1.42v11.52a.32.32,0,0,1-.36.34h-1.53a.3.3,0,0,1-.34-.34V850.57a.53.53,0,0,1,.25-.42l3-2.4a.67.67,0,0,1,.49-.18h6.43c.25,0,.34.13.34.35v1.45A.31.31,0,0,1,1389.13,849.71Z"/><path class="cls-4" d="M1404.67,862.92h-13.43c-.22,0-.32-.1-.32-.35V861.2c0-.25.1-.34.32-.34h11.83v-5h-11.61c-.37,0-.54-.15-.54-.54v-7.22a.48.48,0,0,1,.52-.54h13.38a.34.34,0,0,1,.37.35v1.4c0,.24-.15.34-.37.34h-11.69v4.59h11.56a.51.51,0,0,1,.59.57v7.56C1405.28,862.75,1405.09,862.92,1404.67,862.92Z"/><path class="cls-4" d="M1185.54,881.29H1182v2h3.12a.51.51,0,0,1,.57.59V893c0,.37-.2.54-.57.54H1182v2.11h3.49c.22,0,.34.12.34.37v1c0,.25-.12.35-.37.35H1182v2.06a.3.3,0,0,1-.34.34h-1.2c-.23,0-.35-.1-.35-.34V897.4h-3.68c-.25,0-.34-.1-.34-.35v-1c0-.25.09-.37.34-.37h3.68v-2.11H1177c-.39,0-.57-.17-.57-.54v-9.11a.49.49,0,0,1,.54-.56h3.12v-2h-3.68c-.25,0-.34-.12-.34-.34v-1.06c0-.22.09-.34.34-.34h3.68V878.1c0-.25.12-.37.35-.37h1.2a.33.33,0,0,1,.34.37v1.45h3.59c.22,0,.34.12.34.36v1A.32.32,0,0,1,1185.54,881.29Zm-5.28,3.76H1178v2.65h2.28Zm0,4.15H1178v2.6h2.28Zm3.88-4.15h-2.31v2.65h2.31Zm0,4.15h-2.31v2.6h2.31Zm13.46,10.23h-11c-.24,0-.36-.1-.36-.34v-1.23a.31.31,0,0,1,.34-.32h4.62v-4.25h-4c-.22,0-.35-.07-.35-.34v-1.2c0-.25.1-.37.35-.37h4V888.8a.3.3,0,0,1,.34-.34h1.25c.25,0,.37.12.37.34v2.58H1197a.34.34,0,0,1,.37.37V893c0,.25-.13.34-.4.34h-3.8v4.25h4.47a.32.32,0,0,1,.34.32v1.23A.32.32,0,0,1,1197.6,899.43Zm.22-10.09a.29.29,0,0,1-.17-.07l-5.48-3.68-5.11,3.75a.26.26,0,0,1-.14.08c-.08,0-.13-.08-.13-.22v-1.63a.49.49,0,0,1,.2-.39l3.56-2.67-2.11-1.43a.5.5,0,0,1-.22-.42v-1.52c0-.14,0-.22.1-.22a.32.32,0,0,1,.17.08l3.56,2.38,3.44-2.63V880h-8.35a.31.31,0,0,1-.35-.34v-1.2c0-.25.1-.37.35-.37h9.67a.51.51,0,0,1,.57.59v2.8a.47.47,0,0,1-.22.41l-3.44,2.56,4,2.65a.54.54,0,0,1,.25.42v1.59C1198,889.27,1197.92,889.34,1197.82,889.34Z"/><path class="cls-4" d="M1222.25,887h-21.32c-.24,0-.34-.09-.34-.34v-1.2c0-.25.1-.37.32-.37h4v-4.2h-3.34c-.25,0-.34-.12-.34-.34v-1.21c0-.24.09-.34.34-.34h8.89v-1c0-.22.09-.34.34-.34h1.47c.25,0,.37.12.37.34v1h9a.3.3,0,0,1,.34.34v1.21c0,.22-.1.34-.37.34h-3.26v4.2h3.93c.22,0,.34.12.34.37v1.2C1222.59,886.94,1222.47,887,1222.25,887ZM1221,899.46h-18.83a.47.47,0,0,1-.54-.54v-9.09c0-.37.15-.56.54-.56H1221c.37,0,.54.19.54.59v9C1221.53,899.29,1221.36,899.46,1221,899.46Zm-1.62-8.5h-15.57v2.63h15.57Zm0,4.15h-15.57v2.65h15.57Zm-3.19-14.19h-9.11v4.2h9.11Z"/><path class="cls-4" d="M1246.84,883.35h-1.62v15.27c0,.42-.17.62-.61.62H1227.5c-.22,0-.35-.1-.35-.32v-1.5c0-.22.1-.34.35-.34H1243V883.35h-13.53v9.23c0,.25-.12.35-.37.35h-1.49c-.25,0-.37-.08-.37-.32v-9.26h-1.75a.31.31,0,0,1-.34-.34v-1.52c0-.25.12-.37.34-.37h1.75v-2.65c0-.25.1-.37.34-.37h1.52c.25,0,.37.12.37.39v2.63H1243v-2.65c0-.25.1-.37.34-.37h1.53a.32.32,0,0,1,.36.37v2.65h1.67c.22,0,.32.12.32.37V883C1247.21,883.23,1247.11,883.35,1246.84,883.35Z"/><path class="cls-4" d="M1269.92,889.88h-18.41c-.25,0-.35-.12-.35-.37v-1.59c0-.25.1-.37.35-.37h18.41c.22,0,.34.12.34.37v1.59C1270.26,889.76,1270.14,889.88,1269.92,889.88Z"/><path class="cls-4" d="M1294.57,899.24H1276.5c-.25,0-.34-.1-.34-.35v-1.45c0-.24.09-.36.31-.36h16.43v-15.3h-14.07v6.41a.56.56,0,0,1-.64.61h-3.43a.3.3,0,0,1-.35-.34v-1.4c0-.22.1-.32.35-.32h1.89v-6.56c0-.39.17-.56.51-.56h17.43a.5.5,0,0,1,.57.56V898.6C1295.16,899.06,1295,899.24,1294.57,899.24Z"/><path class="cls-4" d="M1302.72,899.21H1299c-.24,0-.37-.1-.37-.32v-1.54c0-.25.1-.35.35-.35h2.08V878.88c0-.22.1-.34.32-.34H1303c.25,0,.37.12.37.34V898.6C1303.33,899,1303.14,899.21,1302.72,899.21Zm16.86,0h-11.26c-.4,0-.57-.17-.57-.54V878.88a.3.3,0,0,1,.34-.34h1.55a.33.33,0,0,1,.35.34v18.17h8V887c0-.25.13-.34.35-.34h1.47c.25,0,.34.12.34.34v11.66C1320.17,899,1320,899.21,1319.58,899.21Z"/><path class="cls-4" d="M1346.15,899.16h-16.06c-.39,0-.56-.17-.56-.54V879.28c0-.37.17-.59.54-.59h16.1a.53.53,0,0,1,.57.59v7.14a.64.64,0,0,1-.25.54l-1.91,1.57,1.91,1.57a.64.64,0,0,1,.25.52v8C1346.74,899,1346.52,899.16,1346.15,899.16Zm-1.82-18.29h-12.5v6.63h11l1.52-1.2Zm0,10-1.55-1.28h-11V897h12.5Z"/><path class="cls-4" d="M1365.57,881h-7.32v17.89c0,.25-.1.37-.37.37h-1.57c-.27,0-.37-.1-.37-.37V881h-7.12c-.24,0-.37-.13-.37-.4v-1.47c0-.27.1-.39.35-.39h16.77c.27,0,.37.12.37.39v1.47C1365.94,880.87,1365.84,881,1365.57,881Z"/><path class="cls-4" d="M1383.1,899.21h-14.88c-.4,0-.57-.17-.57-.59V879.08c0-.27.1-.42.37-.42h1.6c.22,0,.34.15.34.42V897h13.16c.22,0,.34.12.34.37v1.47C1383.46,899.09,1383.34,899.21,1383.1,899.21Z"/><path class="cls-4" d="M1192.34,917.36H1185v17.9c0,.25-.1.37-.37.37h-1.57c-.27,0-.37-.1-.37-.37v-17.9h-7.12c-.25,0-.37-.12-.37-.39V915.5c0-.27.1-.4.34-.4h16.77c.27,0,.37.13.37.4V917C1192.71,917.24,1192.61,917.36,1192.34,917.36Z"/><path class="cls-4" d="M1208,935.7h-1.55c-.24,0-.34-.1-.34-.32v-13h-9.55v13c0,.22-.15.32-.39.32h-1.48c-.24,0-.36-.1-.36-.32v-20c0-.25.09-.34.31-.34h1.53c.24,0,.39.12.39.34v4.93h11.22c.37,0,.54.2.54.59v14.51A.28.28,0,0,1,1208,935.7Z"/><path class="cls-4" d="M1225.39,935.65h-14.22c-.39,0-.56-.19-.56-.59V920.85c0-.37.17-.57.59-.57h14a.5.5,0,0,1,.57.54v7.64c0,.37-.2.54-.59.54h-12.35v4.57h12.57c.22,0,.37.1.37.34v1.38A.35.35,0,0,1,1225.39,935.65Zm-1.87-13.33h-10.68v5h10.68Z"/><path class="cls-4" d="M1268.57,935.58h-15.64c-.25,0-.37-.1-.37-.34v-1.53a.32.32,0,0,1,.37-.36h14v-7h-13.73c-.39,0-.59-.15-.59-.54V915.69a.52.52,0,0,1,.57-.59h15.56c.27,0,.37.13.37.35V917c0,.27-.12.37-.37.37h-13.8v6.87h13.7a.51.51,0,0,1,.57.57V935C1269.16,935.41,1269,935.58,1268.57,935.58Z"/><path class="cls-4" d="M1285.17,935.7h-1.55c-.25,0-.35-.1-.35-.32v-13h-9.55v13c0,.22-.14.32-.39.32h-1.47c-.25,0-.37-.1-.37-.32v-20c0-.25.1-.34.32-.34h1.52c.25,0,.39.12.39.34v4.93h11.22c.37,0,.54.2.54.59v14.51C1285.48,935.6,1285.39,935.7,1285.17,935.7Z"/><path class="cls-4" d="M1302.47,935.65h-14.21a.47.47,0,0,1-.54-.54V927.4a.49.49,0,0,1,.54-.56h12.52v-4.49h-12.72c-.24,0-.34-.1-.34-.35v-1.37c0-.25.1-.35.34-.35h14.44c.34,0,.54.18.54.57v14.24A.5.5,0,0,1,1302.47,935.65Zm-1.69-7.14H1290v5.08h10.76Z"/><path class="cls-4" d="M1323.44,935.63h-17.56c-.39,0-.56-.17-.56-.57V920.6a.3.3,0,0,1,.34-.34h1.55c.22,0,.34.12.34.37v12.89h6.07V920.6a.3.3,0,0,1,.34-.34h1.35a.32.32,0,0,1,.37.37v12.89h6.06V920.6c0-.22.1-.34.32-.34h1.55a.31.31,0,0,1,.34.34V935C1324,935.46,1323.76,935.63,1323.44,935.63Z"/><path class="cls-4" d="M1339.91,935.65h-13.43c-.22,0-.32-.09-.32-.34v-1.37c0-.25.1-.35.32-.35h11.84v-5H1326.7c-.37,0-.54-.15-.54-.54v-7.22a.48.48,0,0,1,.52-.54h13.38a.33.33,0,0,1,.37.34v1.4c0,.25-.15.35-.37.35h-11.69V927h11.57a.51.51,0,0,1,.58.56v7.56C1340.52,935.48,1340.33,935.65,1339.91,935.65Z"/><path class="cls-4" d="M1356.38,935.7h-1.54c-.25,0-.35-.1-.35-.32v-13h-9.55v13c0,.22-.15.32-.39.32h-1.47c-.25,0-.37-.1-.37-.32v-20c0-.25.1-.34.32-.34h1.52c.24,0,.39.12.39.34v4.93h11.22c.37,0,.54.2.54.59v14.51A.28.28,0,0,1,1356.38,935.7Z"/><path class="cls-4" d="M1373.69,935.65h-14.21a.47.47,0,0,1-.54-.54V927.4a.49.49,0,0,1,.54-.56H1372v-4.49h-12.72c-.25,0-.34-.1-.34-.35v-1.37c0-.25.09-.35.34-.35h14.44c.34,0,.54.18.54.57v14.24A.5.5,0,0,1,1373.69,935.65Zm-1.69-7.14h-10.76v5.08H1372Z"/><path class="cls-4" d="M1390.41,935.73h-1.52a.31.31,0,0,1-.35-.3v-13h-9.77v12.93a.31.31,0,0,1-.34.35h-1.55c-.22,0-.34-.1-.34-.35V920.85a.48.48,0,0,1,.54-.54h13.11a.5.5,0,0,1,.56.54v14.53A.31.31,0,0,1,1390.41,935.73Z"/><path class="cls-4" d="M1407.3,935.58h-2.09a.54.54,0,0,1-.49-.2l-7-7.34h-2.4v7.32c0,.24-.1.34-.35.34h-1.52c-.22,0-.34-.1-.34-.32v-20a.3.3,0,0,1,.34-.34h1.52c.25,0,.35.12.35.34v10.53h2.45l6.49-5.45a.66.66,0,0,1,.54-.19h2.06c.17,0,.27,0,.27.14a.34.34,0,0,1-.12.22l-7.54,6.34,8,8.3a.4.4,0,0,1,.12.22C1407.54,935.53,1407.45,935.58,1407.3,935.58Z"/><path class="cls-4" d="M1178.15,972h-1.59c-.25,0-.37-.09-.37-.34V951.77c0-.22.1-.35.37-.35h1.59c.27,0,.39.13.39.4v19.81C1178.54,971.88,1178.4,972,1178.15,972Z"/><path class="cls-4" d="M1197.35,972h-1.62a.52.52,0,0,1-.44-.2l-11.81-16.5v16.33c0,.25-.1.37-.34.37h-1.58c-.22,0-.34-.12-.34-.37V951.94a.41.41,0,0,1,.44-.47h1.45a.54.54,0,0,1,.42.22l12,16.67V951.74a.33.33,0,0,1,.37-.37h1.54a.36.36,0,0,1,.35.4v19.76A.43.43,0,0,1,1197.35,972Z"/><path class="cls-4" d="M1202.46,972h-1.6c-.24,0-.37-.09-.37-.34V951.77c0-.22.1-.35.37-.35h1.6c.27,0,.39.13.39.4v19.81C1202.85,971.88,1202.7,972,1202.46,972Z"/><path class="cls-4" d="M1222.07,972.05h-1.57c-.27,0-.34-.08-.34-.35v-7.56h-12.3v7.56c0,.25-.13.35-.37.35h-1.57c-.25,0-.37-.1-.37-.35V952c0-.4.17-.57.56-.57h15.77c.36,0,.56.2.56.62V971.7C1222.44,972,1222.34,972.05,1222.07,972.05Zm-1.91-18.34h-12.3v8.22h12.3Z"/><path class="cls-4" d="M1239,972h-13.6c-.37,0-.55-.17-.55-.54V957.24c0-.37.18-.56.52-.56H1239c.2,0,.3.14.3.34v1.45c0,.24-.1.34-.3.34h-11.93v11.1H1239c.2,0,.3.12.3.37v1.42A.29.29,0,0,1,1239,972Z"/><path class="cls-4" d="M1252.44,958.84h-6.29v11.07h5.92c.2,0,.3.1.3.34v1.43c0,.24-.1.34-.32.34h-7.79a.31.31,0,0,1-.34-.34V958.84h-3c-.25,0-.37-.1-.37-.35v-1.44a.31.31,0,0,1,.35-.35h3v-2.62c0-.23.12-.35.32-.35h1.57c.25,0,.34.12.34.35v2.62h6.29c.2,0,.32.12.32.35v1.44C1252.76,958.74,1252.64,958.84,1252.44,958.84Z"/><path class="cls-4" d="M1268.47,972H1255c-.4,0-.57-.17-.57-.54V957.22a.48.48,0,0,1,.54-.54h13.48a.5.5,0,0,1,.57.54v14.26C1269,971.85,1268.84,972,1268.47,972Zm-1.64-13.21h-10.14v11.1h10.14Z"/><path class="cls-4" d="M1281.51,958.81h-6.09l-1.82,1.43v11.51a.34.34,0,0,1-.37.35h-1.52c-.22,0-.34-.1-.34-.35V959.67a.56.56,0,0,1,.24-.42l3-2.4a.7.7,0,0,1,.49-.17h6.44a.3.3,0,0,1,.34.34v1.45A.31.31,0,0,1,1281.51,958.81Z"/><path class="cls-4" d="M1297.05,972h-13.43c-.23,0-.32-.1-.32-.34V970.3c0-.24.09-.34.32-.34h11.83v-5h-11.61c-.37,0-.54-.15-.54-.54v-7.22c0-.35.17-.54.51-.54h13.38a.33.33,0,0,1,.37.34v1.4c0,.25-.15.34-.37.34h-11.68v4.6h11.56c.42,0,.59.22.59.56v7.56C1297.66,971.85,1297.46,972,1297.05,972Z"/><path class="cls-4" d="M1195.17,1008.32h-18.54c-.39,0-.56-.18-.56-.57V988.18c0-.24.09-.36.34-.36H1178a.33.33,0,0,1,.37.36V1006h6.44V988.18c0-.24.07-.36.34-.36h1.47a.33.33,0,0,1,.37.36V1006h6.43V988.18a.33.33,0,0,1,.37-.36h1.57a.33.33,0,0,1,.37.36v19.55C1195.73,1008.14,1195.54,1008.32,1195.17,1008.32Z"/><path class="cls-4" d="M1217.26,1008.32h-15.44a.47.47,0,0,1-.54-.54V993.71c0-.37.17-.57.54-.57h15.25a.52.52,0,0,1,.56.59V1001c0,.4-.2.57-.59.57h-13.45v4.71h13.67a.33.33,0,0,1,.37.37v1.3C1217.63,1008.22,1217.51,1008.32,1217.26,1008.32Zm-2-13.11h-11.71v4.41h11.71Z"/><path class="cls-4" d="M1241.34,1008.32h-15a.51.51,0,0,1-.56-.57V987.89a.3.3,0,0,1,.34-.34h1.6c.27,0,.39.12.39.36V993h13.23a.51.51,0,0,1,.57.57v14.16A.51.51,0,0,1,1241.34,1008.32Zm-1.74-13.07h-11.49v10.93h11.49Z"/><path class="cls-4" d="M1269,1005.3a.33.33,0,0,1-.2,0l-9.84-5.77-4.82,8.52a.54.54,0,0,1-.59.34h-5.35a.3.3,0,0,1-.34-.34v-1.53a.3.3,0,0,1,.32-.34h4.34l4.42-7.85-8.91-5.26a.31.31,0,0,1-.22-.34v-2c0-.15.07-.22.15-.22a.37.37,0,0,1,.17,0l9.89,5.81,4.52-8.05a.53.53,0,0,1,.47-.27h5.55a.32.32,0,0,1,.36.37v1.5c0,.22-.12.32-.36.32h-4.4l-4.12,7.31,8.93,5.21a.4.4,0,0,1,.2.39v2C1269.21,1005.22,1269.14,1005.3,1269,1005.3Z"/><path class="cls-4" d="M1293.34,997.81h-4.59v9.92c0,.41-.22.59-.61.59h-14.93c-.25,0-.37-.1-.37-.32v-1.5a.3.3,0,0,1,.34-.34h13.26v-8.35h-14a.32.32,0,0,1-.36-.35V996c0-.22.12-.34.36-.34h20.92c.27,0,.37.12.37.34v1.47C1293.71,997.69,1293.59,997.81,1293.34,997.81Zm-4.74-7h-16a.31.31,0,0,1-.34-.34V988.9c0-.25.12-.35.34-.35h16c.27,0,.37.1.37.35v1.52A.33.33,0,0,1,1288.6,990.76Zm5.72-1.52h-1.42c-.17,0-.27,0-.34-.12v1.57a.33.33,0,0,1-.37.34h-1.45a.31.31,0,0,1-.34-.34V989c0-.24.09-.34.34-.34h1.45a.34.34,0,0,1,.34.17v-1.59c0-.25.1-.37.37-.37h1.42a.34.34,0,0,1,.37.37v1.67C1294.69,989.17,1294.57,989.24,1294.32,989.24Z"/><path class="cls-4" d="M1315.53,997.51h-6.43v10.83a.28.28,0,0,1-.32.32h-1.45c-.19,0-.29-.07-.29-.32V997.51h-8.13c-.22,0-.32-.09-.32-.32v-1.42c0-.22.05-.32.27-.32h15.08v-3.88a.31.31,0,0,1,.34-.34h1.5c.22,0,.32.12.32.34V997C1316.1,997.39,1315.93,997.51,1315.53,997.51Z"/><path class="cls-4" d="M1342,999.28h-10v8.52a.47.47,0,0,1-.54.54h-8.67c-.22,0-.34-.1-.34-.32v-1.5c0-.27.1-.39.34-.39h7v-8.49c0-.35.15-.54.54-.54h10v-6.58h-18.63c-.25,0-.35-.13-.35-.32v-1.52c0-.27.1-.35.32-.35H1342c.37,0,.54.2.54.57v9.82C1342.49,999.11,1342.32,999.28,1342,999.28Z"/><path class="cls-4" d="M1354.3,989.22h-3.93l-1.87,6.06h5a.49.49,0,0,1,.56.56V1008c0,.4-.19.57-.59.57h-6c-.4,0-.57-.17-.57-.54v-8h-1.52c-.17,0-.27,0-.27-.19a.24.24,0,0,1,0-.13l3.21-10.45h-2.5c-.25,0-.35-.1-.35-.35v-1.3c0-.22.1-.34.32-.34h8.45a.33.33,0,0,1,.37.34v1.3C1354.67,989.12,1354.54,989.22,1354.3,989.22Zm-2,8h-3.59v9.33h3.59Zm14.93,1.18h-1.5v10c0,.25-.12.35-.37.35H1364c-.22,0-.34-.1-.34-.35v-10h-4l-1.06,10.07c0,.22-.12.32-.39.32H1357c-.2,0-.32-.08-.32-.25l1.06-10.14h-1.55c-.25,0-.35-.12-.35-.37v-1.3c0-.24.08-.37.32-.37h1.67v-7.12h-1.67c-.24,0-.36-.09-.36-.34v-1.35a.31.31,0,0,1,.34-.34h11.1a.32.32,0,0,1,.34.34v1.35a.31.31,0,0,1-.34.34h-1.5v7.12h1.5a.33.33,0,0,1,.34.37v1.3A.33.33,0,0,1,1367.24,998.42Zm-3.54-9.16h-3.88v7.12h3.88Z"/><path class="cls-4" d="M1391.79,993h-1.3c-.25,0-.35-.13-.35-.32V990h-5.5v4.49h5.82a.32.32,0,0,1,.37.37v1.08c0,.22-.12.34-.37.34h-7.32a.49.49,0,0,1-.56-.54V990h-3.22l-4.22,6.21a.5.5,0,0,1-.42.22h-1.79c-.17,0-.24,0-.24-.12a.25.25,0,0,1,.07-.15L1377,990h-4.91v2.67a.32.32,0,0,1-.37.35h-1.27c-.25,0-.35-.08-.35-.35v-4.07c0-.37.17-.57.54-.57H1380v-.83a.31.31,0,0,1,.35-.35h1.54c.25,0,.35.13.35.37V988h9.3a.52.52,0,0,1,.57.59v4A.31.31,0,0,1,1391.79,993Zm0,15.46H1387c-.36,0-.59-.17-.59-.54v-7h-9.08l-3.53,7.63a.37.37,0,0,1-.4.22h-1.76c-.18,0-.28-.05-.28-.14a1.26,1.26,0,0,1,.05-.15l3.64-7.56h-3.86c-.22,0-.34-.1-.34-.35v-1.27c0-.25.1-.35.34-.35h4.3v-2c0-.25.1-.37.34-.37h1.58c.22,0,.34.14.34.39v2h10.33a.5.5,0,0,1,.54.57v7h3.2c.19,0,.32.13.32.37v1.28C1392.11,1008.37,1392,1008.46,1391.79,1008.46Z"/><path class="cls-4" d="M1416.83,994.49a.68.68,0,0,1-.17,0l-11-5.92-11,5.92-.14,0c-.1,0-.15-.07-.15-.24V992.6a.36.36,0,0,1,.22-.36l10-5.43a1.13,1.13,0,0,1,.42-.1h1.3a1.08,1.08,0,0,1,.37.1l10,5.43a.35.35,0,0,1,.24.36v1.65C1417,994.42,1416.93,994.49,1416.83,994.49Zm-.52,7.34h-15.49l-2.68,4.67h15.42l-1.5-3.68a1.28,1.28,0,0,1,0-.17c0-.1.1-.18.3-.18H1414a.34.34,0,0,1,.34.27l2.16,5.45a.47.47,0,0,1,0,.15c0,.12-.07.17-.24.17h-20.13c-.4,0-.57-.17-.57-.56v-1.23a.73.73,0,0,1,.1-.39l2.6-4.5H1395c-.25,0-.35-.12-.35-.34v-1.25c0-.22.1-.34.32-.34h21.31a.32.32,0,0,1,.35.34v1.25A.31.31,0,0,1,1416.31,1001.83Zm-2.06-5.35h-17.11c-.25,0-.35-.12-.35-.34v-1.2c0-.23.1-.35.32-.35h17.14a.34.34,0,0,1,.37.37v1.18A.33.33,0,0,1,1414.25,996.48Z"/><path class="cls-4" d="M1192.34,1026.47H1185v17.9c0,.24-.1.36-.37.36h-1.57c-.27,0-.37-.09-.37-.36v-17.9h-7.12c-.25,0-.37-.12-.37-.39v-1.48c0-.27.1-.39.34-.39h16.77c.27,0,.37.12.37.39v1.48C1192.71,1026.35,1192.61,1026.47,1192.34,1026.47Z"/><path class="cls-4" d="M1208,1044.81h-1.55c-.24,0-.34-.1-.34-.32v-13h-9.55v13c0,.22-.15.32-.39.32h-1.48c-.24,0-.36-.1-.36-.32v-20c0-.25.09-.35.31-.35h1.53c.24,0,.39.12.39.35v4.93h11.22c.37,0,.54.2.54.59v14.51A.28.28,0,0,1,1208,1044.81Z"/><path class="cls-4" d="M1225.39,1044.76h-14.22c-.39,0-.56-.2-.56-.59V1030c0-.37.17-.57.59-.57h14a.5.5,0,0,1,.57.54v7.64c0,.36-.2.54-.59.54h-12.35v4.56h12.57c.22,0,.37.1.37.35v1.37A.36.36,0,0,1,1225.39,1044.76Zm-1.87-13.33h-10.68v5h10.68Z"/><path class="cls-4" d="M1252.19,1044.69h-15.63c-.25,0-.37-.1-.37-.35v-1.52a.32.32,0,0,1,.37-.37h13.94v-7h-13.72c-.4,0-.59-.14-.59-.54V1024.8c0-.39.19-.59.56-.59h15.57c.27,0,.37.12.37.34v1.53c0,.27-.13.36-.37.36h-13.8v6.88h13.7a.5.5,0,0,1,.56.56v10.22A.51.51,0,0,1,1252.19,1044.69Z"/><path class="cls-4" d="M1268.79,1044.81h-1.55c-.24,0-.34-.1-.34-.32v-13h-9.55v13c0,.22-.15.32-.39.32h-1.48c-.24,0-.37-.1-.37-.32v-20c0-.25.1-.35.32-.35H1257c.24,0,.39.12.39.35v4.93h11.22c.37,0,.54.2.54.59v14.51A.28.28,0,0,1,1268.79,1044.81Z"/><path class="cls-4" d="M1286.1,1044.76h-14.22a.47.47,0,0,1-.54-.54v-7.71c0-.37.17-.56.54-.56h12.52v-4.5h-12.71c-.25,0-.35-.1-.35-.34v-1.38c0-.24.1-.34.35-.34h14.43c.35,0,.54.17.54.57v14.23C1286.66,1044.59,1286.47,1044.76,1286.1,1044.76Zm-1.7-7.14h-10.75v5.08h10.75Z"/><path class="cls-4" d="M1307.06,1044.73h-17.55c-.39,0-.57-.17-.57-.56v-14.46c0-.22.1-.34.35-.34h1.54a.32.32,0,0,1,.35.36v12.89h6.06v-12.91c0-.22.1-.34.35-.34h1.35a.32.32,0,0,1,.36.36v12.89h6.07v-12.91c0-.22.1-.34.32-.34h1.54a.31.31,0,0,1,.35.34v14.44C1307.58,1044.56,1307.38,1044.73,1307.06,1044.73Z"/><path class="cls-4" d="M1323.54,1044.76h-13.43c-.23,0-.32-.1-.32-.34V1043c0-.25.09-.34.32-.34h11.83v-5h-11.61c-.37,0-.54-.14-.54-.54V1030c0-.35.17-.54.51-.54h13.38a.33.33,0,0,1,.37.34v1.4c0,.24-.15.34-.37.34H1312v4.59h11.56a.51.51,0,0,1,.59.57v7.56C1324.15,1044.59,1324,1044.76,1323.54,1044.76Z"/><path class="cls-4" d="M1340,1044.81h-1.55c-.24,0-.34-.1-.34-.32v-13h-9.55v13c0,.22-.15.32-.4.32h-1.47c-.24,0-.37-.1-.37-.32v-20c0-.25.1-.35.32-.35h1.52c.25,0,.4.12.4.35v4.93h11.22c.37,0,.54.2.54.59v14.51A.28.28,0,0,1,1340,1044.81Z"/><path class="cls-4" d="M1357.32,1044.76H1343.1a.47.47,0,0,1-.54-.54v-7.71c0-.37.17-.56.54-.56h12.52v-4.5H1342.9c-.24,0-.34-.1-.34-.34v-1.38c0-.24.1-.34.34-.34h14.44c.34,0,.54.17.54.57v14.23A.5.5,0,0,1,1357.32,1044.76Zm-1.7-7.14h-10.75v5.08h10.75Z"/><path class="cls-4" d="M1374,1044.83h-1.52c-.22,0-.34-.12-.34-.29v-13h-9.77v12.94a.31.31,0,0,1-.35.34h-1.54a.3.3,0,0,1-.35-.34V1030a.48.48,0,0,1,.54-.54h13.11a.5.5,0,0,1,.57.54v14.53A.31.31,0,0,1,1374,1044.83Z"/><path class="cls-4" d="M1390.92,1044.69h-2.08a.53.53,0,0,1-.49-.2l-7-7.34h-2.41v7.31c0,.25-.09.35-.34.35H1377c-.22,0-.35-.1-.35-.32v-20c0-.23.1-.35.35-.35h1.52c.25,0,.34.12.34.35V1035h2.46l6.48-5.45a.66.66,0,0,1,.54-.2h2.06c.17,0,.27.05.27.15a.32.32,0,0,1-.12.22L1383,1036l8,8.3a.54.54,0,0,1,.12.22C1391.17,1044.64,1391.07,1044.69,1390.92,1044.69Z"/><polygon class="cls-4" points="1996 783 1605 1162 1996 1162 1996 783"/><rect class="cls-13" x="1153.82" y="456.58" width="91.39" height="3.86" transform="translate(302.97 1377.9) rotate(-66.64)"/><rect class="cls-13" x="1237.71" y="477.43" width="45.76" height="3.86" transform="translate(329.15 1454.7) rotate(-67.14)"/><polygon class="cls-14" points="1262.17 544.56 1258.59 543.11 1293.65 456.88 1297.35 457.33 1303.39 498.97 1299.57 499.53 1294.55 464.92 1262.17 544.56"/><rect class="cls-14" x="1268.16" y="477.2" width="29.36" height="3.86"/><polygon class="cls-15" points="1310.02 500.04 1341.76 416.15 1363.78 458.83 1310.02 500.04"/><path class="cls-15" d="M1311.19,501.57l-3-2.21L1340,415.47l3.53-.2,22,42.67-.54,2.42ZM1342,420.89l-27.81,73.49,47.11-36.1Z"/><polygon class="cls-13" points="1396.25 502.35 1392.71 500.81 1410.99 458.7 1414.38 458.42 1423.15 471.89 1429.21 458.16 1432.46 457.71 1446.7 474.95 1446.99 476.94 1436.52 501.16 1432.97 499.63 1442.98 476.5 1431.48 462.58 1425.24 476.72 1421.86 476.99 1413.1 463.54 1396.25 502.35"/><g class="cls-16"><rect class="cls-17" x="1399.34" y="477.86" width="45.38" height="3.86" transform="translate(420.15 1597.2) rotate(-66.76)"/></g><polygon class="cls-18" points="1509.06 466.76 1513.29 467.78 1514.51 462.4 1510.26 461.49 1509.06 466.76"/><path class="cls-18" d="M1506.42,475.91l4,1.66.42-1.11c.54-1.56.93-2.95,1.33-4.41L1508,470.9c-.37,1.38-.78,2.8-1.23,4.09Z"/><path class="cls-18" d="M1501.77,484.14l3.66,2.34c1-1.56,2-3.14,2.9-4.78l-3.78-2.15C1503.67,481.1,1502.73,482.62,1501.77,484.14Z"/><polygon class="cls-18" points="1580.01 466.86 1584.23 467.88 1585.45 462.5 1581.2 461.59 1580.01 466.86"/><path class="cls-18" d="M1577.37,476l4,1.67.43-1.12c.53-1.56.93-2.95,1.33-4.41L1579,471c-.37,1.38-.78,2.79-1.23,4.08Z"/><path class="cls-18" d="M1572.71,484.24l3.66,2.34c1-1.56,2-3.14,2.91-4.78l-3.78-2.15C1574.62,481.2,1573.68,482.73,1572.71,484.24Z"/><ellipse class="cls-19" cx="1469.37" cy="471.16" rx="8.5" ry="14.07"/><ellipse class="cls-19" cx="1537.95" cy="470.62" rx="8.5" ry="14.07"/><rect class="cls-15" x="1595.51" y="456.34" width="48.3" height="3.86"/><polygon class="cls-13" points="1653.29 545 1488.74 545 1488.74 541.14 1648.66 541.14 1631.03 444.57 1652.95 444.57 1652.95 448.44 1635.66 448.44 1653.29 545"/><path class="cls-14" d="M1759.22,497.91a19.13,19.13,0,0,1-8.17-1.63c-12.16-5.71-9.06-16.64-7.89-20.76,3.19-11.25,16.11-23.21,33.88-23.56,5.69-.09,9.54,1.43,11.78,4.6,3.68,5.22.93,12.67.81,13l-1.8,1.25-38.42.1a21.83,21.83,0,0,0-2.49,5.5c-1.8,6.35-2.31,12.59,5.77,16.39,9.7,4.55,26.64-4.45,26.81-4.54l1.83,3.4C1780.74,492,1769.54,497.91,1759.22,497.91Zm18.38-42.1h-.48a34.48,34.48,0,0,0-24.8,11.21l34.06-.09c.49-1.92,1.07-5.63-.73-8.17C1784.26,456.81,1781.55,455.81,1777.6,455.81Z"/><polygon class="cls-15" points="1701.07 497.72 1698.32 495.28 1703.04 484.54 1681.34 497.71 1678.57 495.3 1696.74 453.19 1700.28 454.72 1684.51 491.27 1706.27 478.06 1709.04 480.49 1704.26 491.36 1725.32 478.94 1736.47 453.19 1740.02 454.72 1728.61 481.06 1727.82 481.95 1701.07 497.72"/><rect class="cls-15" x="1686.46" y="473" width="45.73" height="3.86" transform="translate(593.09 1853.83) rotate(-66.54)"/><rect class="cls-13" x="1831.91" y="413.62" width="3.86" height="3.86" transform="translate(702.74 1917.65) rotate(-65.79)"/><path class="cls-13" d="M1803.14,488.7l-3.52-1.59,3.16-7.06,3.52,1.59Zm6.33-14.12L1806,473l3.17-7.06,3.52,1.59Zm6.34-14.12-3.53-1.58,3.17-7.06,3.52,1.58Zm6.33-14.12-3.52-1.58,3.17-7.06,3.52,1.58Zm6.34-14.12-3.53-1.58,3.17-7.06,3.52,1.59Z"/><polygon class="cls-13" points="1798.02 499.82 1794.87 497.7 1796.45 494.17 1797.59 494.69 1797.9 494.36 1798.81 495.23 1799.97 495.75 1799.78 496.17 1800.69 497.03 1798.02 499.82"/><rect class="cls-13" x="1803.75" y="484.78" width="8.29" height="3.86" transform="translate(206.4 1456.55) rotate(-46.27)"/><polygon class="cls-13" points="1817.89 479.05 1815.1 476.38 1816.81 474.59 1815.66 472.4 1819.08 470.61 1820.88 474.03 1820.56 476.26 1817.89 479.05"/><rect class="cls-13" x="1811.68" y="462.41" width="3.86" height="3.86" transform="translate(-8.25 895.18) rotate(-27.67)"/><polygon class="cls-13" points="1813.71 459.13 1794.41 502.14 1852.74 458.27 1816.91 471.14 1813.71 459.13"/><path class="cls-13" d="M1795.58,503.68l-2.93-2.33,19.3-43,3.62.3,2.66,10,33.86-12.16,1.81,3.36Zm17.66-38.79-14,31.2,42.13-31.68L1817.56,473l-2.52-1.32Z"/><g class="cls-16"><polygon class="cls-17" points="1206.82 501.47 1203.28 499.94 1221.55 457.83 1225.24 458.35 1229.8 493.5 1245.15 457.99 1248.69 459.53 1230.56 501.47 1226.87 500.95 1222.31 465.79 1206.82 501.47"/></g><g class="cls-16"><rect class="cls-17" x="1399.19" y="478.12" width="45.38" height="3.86" transform="translate(419.82 1597.22) rotate(-66.76)"/></g><g class="cls-16"><rect class="cls-17" x="1579.16" y="473.25" width="56.17" height="3.86" transform="translate(539.35 1766.94) rotate(-66.89)"/></g><path class="cls-13" d="M1478.92,500.42c-1.07,0-2.19,0-3.36-.1-7.76-.41-13.46-3-16.94-7.82-5.6-7.69-4.12-19.34-1.88-27.76,5.56-21,19.86-32.55,40.26-32.55,7.67,0,13.14,2.27,16.27,6.74,5.51,7.88,1.36,19.51,1.18,20l-1.82,1.27h-50.38a52.62,52.62,0,0,0-1.78,5.53c-2,7.61-3.44,18,1.27,24.5,2.76,3.79,7.48,5.89,14,6.24,19.56,1,24-7.77,24-7.85l3.52,1.58C1503.09,490.64,1498.52,500.42,1478.92,500.42Zm-15-44.08h47.29c.81-2.93,2.33-10.3-1.11-15.21-2.36-3.37-6.77-5.08-13.1-5.08C1481.81,436.05,1470.34,443.18,1463.92,456.34Z"/><path class="cls-13" d="M1547.89,500.42c-1.08,0-2.2,0-3.36-.1-7.77-.41-13.47-3-17-7.82-5.6-7.69-4.11-19.34-1.88-27.76,5.57-21,19.87-32.55,40.27-32.55,7.67,0,13.14,2.27,16.27,6.74,5.51,7.88,1.35,19.51,1.17,20l-1.81,1.27h-50.39a55.06,55.06,0,0,0-1.77,5.53c-2,7.61-3.44,18,1.27,24.5,2.76,3.79,7.48,5.89,14,6.24,19.57,1,24-7.76,24-7.85l3.52,1.58C1572.05,490.64,1567.49,500.42,1547.89,500.42Zm-15-44.08h47.3c.81-2.93,2.33-10.3-1.12-15.21-2.36-3.37-6.77-5.08-13.09-5.08C1550.77,436.05,1539.3,443.18,1532.88,456.34Z"/></g></svg>