<svg id="レイヤー_1" data-name="レイヤー 1" xmlns="http://www.w3.org/2000/svg" xmlns:xlink="http://www.w3.org/1999/xlink" viewBox="0 0 1920 1080"><defs><style>.cls-1,.cls-11{fill:none;}.cls-2{clip-path:url(#clip-path);}.cls-3{fill:#36b0cc;}.cls-4,.cls-7{fill:#fff;}.cls-5{opacity:0.67;}.cls-6{fill:#d35f55;}.cls-7{opacity:0.23;}.cls-8{opacity:0.49;}.cls-9{fill:#333;}.cls-10{fill:#e5807a;}.cls-11{stroke:#e5807a;stroke-miterlimit:10;stroke-width:4.64px;}.cls-12{opacity:0.32;}.cls-13{fill:#4d4d4d;}.cls-14{fill:#c95c53;}.cls-15{fill:#f4d24b;}.cls-16{opacity:0.9;}.cls-17,.cls-18{fill:#f2f0ed;}.cls-18{fill-rule:evenodd;}.cls-19{fill:#323333;}</style><clipPath id="clip-path"><rect class="cls-1" x="-2" width="1922" height="1080"/></clipPath></defs><g class="cls-2"><rect class="cls-3" x="-2" y="-5.94" width="1968" height="1126.57"/><polygon class="cls-4" points="500 992.81 -0.13 497.27 500 1.73 1000.13 497.27 500 992.81"/><g class="cls-5"><polygon class="cls-4" points="36.55 1448.05 -459.82 956.23 -21.42 521.84 474.95 1013.66 36.55 1448.05"/></g><polygon class="cls-6" points="-29.32 491.44 -385 139.03 124.16 -365.45 479.84 -13.04 -29.32 491.44"/><path class="cls-4" d="M1209.18,621.55h-34.11q-1.29,0-1.29-1.11V598.17c0-1,.43-1.33,1.29-1.33h29.82V581.91h-30.31a.72.72,0,0,1-.75-.8v-3.19c0-.58.27-.8.75-.8h34a1.12,1.12,0,0,1,1.29,1.23v21.84c0,.85-.43,1.28-1.35,1.28h-29.76v15.3h30.41c.53,0,.75.27.75.85v3.19C1209.93,621.34,1209.71,621.55,1209.18,621.55Z"/><path class="cls-4" d="M1250.15,621.55h-33.52c-.91,0-1.28-.31-1.28-1.16v-42c0-.85.37-1.23,1.18-1.23h33.68c.86,0,1.29.38,1.29,1.23v42C1251.5,621.18,1251.07,621.55,1250.15,621.55Zm-3.7-39.59h-26.06v34.81h26.06Z"/><path class="cls-4" d="M1292.26,621.55h-34.11q-1.29,0-1.29-1.11V598.17c0-1,.43-1.33,1.29-1.33H1288V581.91h-30.31a.72.72,0,0,1-.75-.8v-3.19c0-.58.27-.8.75-.8h34a1.12,1.12,0,0,1,1.29,1.23v21.84c0,.85-.43,1.28-1.35,1.28h-29.76v15.3h30.41c.53,0,.75.27.75.85v3.19C1293,621.34,1292.79,621.55,1292.26,621.55Z"/><path class="cls-4" d="M1302.72,621.82h-3.38c-.49,0-.81-.21-.81-.74V577.6a.66.66,0,0,1,.7-.74h3.49c.53,0,.75.26.75.8v43.42C1303.47,621.61,1303.25,621.82,1302.72,621.82Z"/><path class="cls-4" d="M1315.21,621.55h-4.82c-.92,0-1.29-.37-1.29-1.22v-3.66c0-.85.37-1.28,1.29-1.28h4.82c.86,0,1.29.43,1.29,1.33v3.61C1316.5,621.18,1316.07,621.55,1315.21,621.55Z"/><path class="cls-4" d="M1357.16,621.82h-3.49c-.54,0-.75-.21-.75-.74V607.9H1323c-.91,0-1.28-.38-1.28-1.28V577.76c0-.53.21-.79.8-.79H1326c.54,0,.81.26.81.85v25.24h26.12v-25.3c0-.58.21-.79.75-.79h3.49a.7.7,0,0,1,.8.79V621A.76.76,0,0,1,1357.16,621.82Z"/><path class="cls-4" d="M1369.54,621.55h-4.82c-.91,0-1.29-.37-1.29-1.22v-3.66c0-.85.38-1.28,1.29-1.28h4.82c.86,0,1.29.43,1.29,1.33v3.61C1370.83,621.18,1370.4,621.55,1369.54,621.55Z"/><path class="cls-4" d="M1411.49,621.55h-34.6c-.59,0-.86-.15-.86-.74v-3.19c0-.58.27-.85.75-.85h31V601.31H1381.4a.71.71,0,0,1-.81-.8v-3.08c0-.59.22-.8.81-.8h26.33V581.91h-30.84c-.59,0-.86-.21-.86-.8v-3.19c0-.58.27-.8.86-.8h34.6a1.08,1.08,0,0,1,1.23,1.23v42C1412.72,621.18,1412.29,621.55,1411.49,621.55Z"/><path class="cls-4" d="M1453.16,621.55h-33.52c-.91,0-1.29-.31-1.29-1.16v-42c0-.85.38-1.23,1.18-1.23h33.68c.86,0,1.29.38,1.29,1.23v42C1454.5,621.18,1454.07,621.55,1453.16,621.55Zm-3.7-39.59h-26.07v34.81h26.07Z"/><polygon class="cls-7" points="-26.73 493.83 -382.4 141.42 126.75 -363.07 482.43 -10.65 -26.73 493.83"/><path d="M256.9,418.9a.58.58,0,0,1-.36-.25l-8.71-10.3V420a.62.62,0,0,1-.71.7h-2.84c-.51,0-.76-.2-.76-.7V408.35l-8.72,10.3c-.15.2-.26.25-.36.25s-.1-.1-.1-.41V414a1,1,0,0,1,.31-.75l8.26-9.14h-7.86c-.51,0-.71-.2-.71-.76v-2.41c0-.55.2-.7.66-.7h8.52v-5.27h-8.47c-.51,0-.71-.21-.71-.71v-2.36c0-.5.2-.75.66-.75h2.18v-8.59h-2.13c-.51,0-.71-.25-.71-.7v-2.42c0-.45.2-.7.66-.7h8.52V376.5a.67.67,0,0,1,.76-.75h2.84a.68.68,0,0,1,.71.75v2.21h8.51a.67.67,0,0,1,.76.7v2.42a.67.67,0,0,1-.76.7h-2v8.59h2a.74.74,0,0,1,.76.75v2.36c0,.5-.3.71-.76.71h-8.51v5.27h8.51c.46,0,.76.2.76.7v2.41a.71.71,0,0,1-.76.76h-7.91l8.27,9.14a1.13,1.13,0,0,1,.4.8v4.47C257.1,418.8,257.05,418.9,256.9,418.9Zm-6.34-36.37h-9.63v8.59h9.63Zm28.9,11.3h-3.71V420a.61.61,0,0,1-.7.7h-2.44c-.5,0-.76-.2-.76-.6V393.83H264.5v5.58l-2,20.69a.75.75,0,0,1-.86.6h-2.38c-.46,0-.66-.2-.66-.6l1.88-20.69V377.76c0-.51.15-.66.71-.71l17.64-1.25c.5-.05.66.3.66.7v2.41a.75.75,0,0,1-.77.86l-14.19.9v9.14h15c.4,0,.71.2.71.76v2.56A.66.66,0,0,1,279.46,393.83Z"/><path d="M327,419.6H290.15c-.76,0-1.32-.3-1.32-1.26V377.61c0-.46.21-.71.76-.71h3.15a.62.62,0,0,1,.71.71v37.57h30.11V393.83c0-.45.2-.7.71-.7h3.19a.66.66,0,0,1,.71.7v24.61A1,1,0,0,1,327,419.6Z"/><path d="M359.14,419.65H338.92c-.77,0-1.22-.25-1.22-1.26V378.26c0-.45.2-.7.66-.7h3.14a.63.63,0,0,1,.71.7v37h16.93c.46,0,.76.2.76.7v3A.67.67,0,0,1,359.14,419.65Zm19.57-2.31h-3.15c-.5,0-.71-.2-.71-.6V384.19h-9.22c-.56,0-.76-.2-.76-.71v-3.11c0-.5.2-.75.66-.75H378.3a1.08,1.08,0,0,1,1.17,1.2v35.87C379.47,417.14,379.21,417.34,378.71,417.34Z"/><path d="M398.12,383.73a2.17,2.17,0,0,0-.25-.05l-10.95-3.46c-.41-.15-.51-.3-.51-.71v-3c0-.4.1-.55.41-.55.1,0,.2.05.3.05l10.95,3.41a.65.65,0,0,1,.51.66v3.06C398.58,383.53,398.42,383.73,398.12,383.73Zm.05,12.31a.63.63,0,0,1-.3-.05l-10.95-3.42a.61.61,0,0,1-.51-.7v-3.06c0-.4.1-.56.41-.56.1,0,.2.06.3.06l10.95,3.51a.68.68,0,0,1,.51.65v3C398.58,395.84,398.48,396,398.17,396Zm1.07,5.68L391,420.35a.7.7,0,0,1-.76.46H387c-.41,0-.56-.11-.56-.41a2.17,2.17,0,0,0,0-.25l8.32-18.63a.7.7,0,0,1,.7-.51h3.35c.3,0,.51.15.51.36A1.27,1.27,0,0,1,399.24,401.72ZM431,393H419.21v7.78h10.08c.77,0,1.17.35,1.17,1.11v16.93c0,.8-.4,1.15-1.17,1.15H404.81c-.81,0-1.16-.35-1.16-1.15V401.92a1,1,0,0,1,1.11-1.11h10.09V393H402.78a.64.64,0,0,1-.71-.71v-2.56c0-.5.21-.75.71-.75h12.07v-8.29l-10.7.7c-.45.05-.61-.3-.61-.7v-2.51c0-.45.21-.65.71-.7l25.55-1.71c.46-.05.66.25.66.65V379c0,.5-.25.71-.76.76l-10.49.75V389h11.86a.67.67,0,0,1,.71.75v2.56C431.78,392.78,431.53,393,431,393Zm-4.87,11.65H408v11.45h18.2Z"/><path d="M461.08,386.85h-9.53V390h8a1,1,0,0,1,1.16,1.16v13.16c0,.75-.4,1.1-1.16,1.1h-8v3.47H460a.64.64,0,0,1,.71.7v1.71c0,.45-.25.7-.76.7h-8.41v4.22l9.33-.5a.61.61,0,0,1,.7.7V418a.72.72,0,0,1-.7.81l-23.22,1.3c-.41,0-.56-.3-.56-.7v-1.81c0-.5.2-.75.66-.75l9.83-.46V412h-8.46c-.46,0-.71-.2-.71-.7v-1.71c0-.45.2-.7.71-.7h8.46v-3.47h-8c-.81,0-1.16-.3-1.16-1.05V391.12a1,1,0,0,1,1.16-1.16h8v-3.11h-9.78c-.51,0-.71-.2-.71-.7v-1.71c0-.45.2-.71.66-.71h9.83V380l-8.61.6c-.41.05-.56-.25-.56-.65V378c0-.5.2-.71.66-.76l21.09-1.4c.35,0,.55.2.55.6v1.81a.71.71,0,0,1-.71.8l-8.46.66v4h9.58a.65.65,0,0,1,.71.71v1.71C461.84,386.65,461.58,386.85,461.08,386.85Zm-12.93,5.93H442v3.61h6.18Zm0,6.17H442v3.62h6.18Zm9-6.17H451v3.61h6.18Zm0,6.17H451v3.62h6.18ZM480.44,420h-6.79c-.51,0-.71-.2-.71-.65v-2.56a.62.62,0,0,1,.71-.71h4.16V383.73h-6.7l-3.9,36.32a.66.66,0,0,1-.76.65h-2.28c-.46,0-.66-.15-.66-.45l3.8-36.52h-4c-.51,0-.76-.25-.76-.7v-2.56c0-.45.2-.7.71-.7h4.46l.3-3.32a.8.8,0,0,1,.86-.75h2.39c.4,0,.66.15.66.5l-.41,3.57h9a1,1,0,0,1,1.17,1.15v37.93C481.66,419.65,481.25,420,480.44,420Z"/><path d="M531.79,384.54h-25v11.3h20.17v-4.12a.64.64,0,0,1,.71-.7h3.25a.66.66,0,0,1,.71.7V399a1,1,0,0,1-1.17,1.16H508.07v6.73c0,.5-.21.7-.71.7h-3.2a.62.62,0,0,1-.71-.7v-6.73h-9.32v15.17h37.51a.66.66,0,0,1,.71.75v2.87a.67.67,0,0,1-.76.75H490.78c-1,0-1.32-.35-1.32-1.26V397.1c0-.86.36-1.26,1.27-1.26H502v-11.3H488.91a.62.62,0,0,1-.71-.71v-3c0-.45.2-.7.71-.7H502V377a.61.61,0,0,1,.7-.7H506a.67.67,0,0,1,.76.75v3.07h25a.64.64,0,0,1,.71.7v3C532.5,384.29,532.25,384.54,531.79,384.54Z"/><path d="M583.14,420.2H564.43c-.81,0-1.16-.35-1.16-1.1V408.65h-8.21l-10.5,11.75a1,1,0,0,1-.86.41h-4.2c-.31,0-.46-.06-.46-.21s.05-.15.2-.3l10.65-11.65h-7.45c-.77,0-1.12-.35-1.12-1.16V377.71c0-.76.35-1.16,1.12-1.16h37.35a1,1,0,0,1,1.17,1.16v29.78a1,1,0,0,1-1.17,1.16H567.58v7.43h15.61a.64.64,0,0,1,.71.71v2.66A.67.67,0,0,1,583.14,420.2Zm-6.54-39.93H545.68v6H576.6Zm0,9.34H545.68v6H576.6Zm0,9.34H545.68v5.93H576.6Z"/><path d="M631.14,419.65h-29c-.51,0-.76-.2-.76-.75v-3a.64.64,0,0,1,.71-.7h25.7V386.7H590.89c-.81,0-1.16-.35-1.16-1.16v-6.48c0-.45.2-.7.71-.7h3.19a.67.67,0,0,1,.76.7v3.12h36.75c1,0,1.27.5,1.27,1.25v35C632.41,419.2,632.11,419.65,631.14,419.65Z"/><path d="M646.6,420.05h-3.09c-.46,0-.71-.2-.71-.75V378.51c0-.5.2-.75.71-.75h3.09c.51,0,.71.25.71.75V419.3C647.31,419.8,647.11,420.05,646.6,420.05Zm37.77-34h-2.59v32.3c0,1-.51,1.31-1.27,1.31h-15c-.51,0-.76-.2-.76-.75v-3.12c0-.5.25-.7.71-.7h11.81V386h-21.8c-.5,0-.76-.25-.76-.7v-3.11a.64.64,0,0,1,.71-.71h21.85v-4.47c0-.5.2-.7.71-.7h3.14c.46,0,.71.25.71.75v4.42h2.64a.64.64,0,0,1,.71.71v3.11A.68.68,0,0,1,684.37,386Z"/><path d="M697.29,420h-3a.62.62,0,0,1-.71-.7V378.36c0-.5.2-.7.71-.7h3c.51,0,.76.2.76.7V419.3C698.05,419.75,697.8,420,697.29,420Zm36.2-22.65h-3c-.5,0-.76-.2-.76-.71v-12.5H706.77a.62.62,0,0,1-.71-.71v-3a.64.64,0,0,1,.71-.7h26.31c.76,0,1.11.4,1.11,1.15v15.77C734.19,397.15,734,397.35,733.49,397.35Zm.4,22.25H707.38c-.76,0-1.22-.3-1.22-1.26V400.86a.62.62,0,0,1,.71-.7H710a.67.67,0,0,1,.7.75v14.32h23.27c.46,0,.71.25.71.75v2.92C734.65,419.4,734.4,419.6,733.89,419.6Z"/><path d="M756.7,420.35H742.31a1,1,0,0,1-1.12-1.15V405.28c0-.75.35-1.1,1.12-1.1h14.44a1,1,0,0,1,1.12,1.1V419.2A1,1,0,0,1,756.7,420.35Zm-2.33-12.6h-9.68v9.09h9.68Z"/><g class="cls-8"><polygon class="cls-4" points="720.12 1099.69 581.98 962.82 720.21 825.86 858.35 962.73 720.12 1099.69"/></g><polygon class="cls-6" points="1024.97 487.52 798.57 263.2 1025.11 38.75 1251.5 263.06 1024.97 487.52"/><g class="cls-8"><polygon class="cls-4" points="776.77 243.26 549.13 17.71 776.91 -207.98 1004.55 17.57 776.77 243.26"/></g><polygon class="cls-7" points="1024.96 489.43 797 263.56 1024.96 37.69 1252.92 263.56 1024.96 489.43"/><path class="cls-9" d="M964.64,243.82c-1.45,0-2.88.2-4.32.26-.9,0-1.4.33-1.55,1.32-.23,1.51-1.19,1.91-2.43,1.06q-2.24-1.52-4.37-3.16c-1.57-1.21-1.59-2.21-.06-3.48a51.59,51.59,0,0,1,5.4-3.88c1.15-.73,2-.29,2.27,1s.24,1.39,1.61,1.55c2.11.25,4.24.46,6.35.72.52.07.71-.11.8-.57a9,9,0,0,0,.09-2.14c0-.63-.5-.76-1-.81-1-.08-2-.16-3-.2-2.76-.14-5.52-.26-8.28-.39-1.41-.06-2.82-.09-4.23-.2-.64-.05-.79.19-.76.75a3.61,3.61,0,0,1-.19,1.49,1.33,1.33,0,0,1-2,.81,3,3,0,0,1-.68-.44,19.19,19.19,0,0,0-6.7-3.57c-1.28-.41-1.49-1.27-.56-2.22a59.23,59.23,0,0,1,6.3-5.86,7.65,7.65,0,0,0,.74-.65c.8-.79,1.62-.64,2,.41a14.85,14.85,0,0,1,.5,2,.7.7,0,0,0,.73.64c5.5.07,10.75,1.5,16,2.86l.52.14c1.27.31,1.3.31,1.52-.95.33-2,.89-3.89,1-5.88,0-.62-.1-.78-.69-.81a70.58,70.58,0,0,1-14.32-2.07,37,37,0,0,1-11.87-5.05c-3.14-2.16-5.18-5.26-7.09-8.46-3.21-5.39-3.86-11.23-3.27-17.33A42,42,0,0,1,938,175.1c1-1.88,2.09-2.42,4.24-2.26,1.23.09,2.46.17,3.67.36.18,0,.4.1.51-.06s0-.39-.15-.55a8.7,8.7,0,0,0-1.84-2.08c-.21-.17-.42-.33-.62-.51-1.56-1.4-1.44-2.67.34-3.8a24.72,24.72,0,0,0,2.81-2.5c5.05-4.34,11-6.54,17.52-7.62a27.71,27.71,0,0,1,13.8.75,44.61,44.61,0,0,1,14,7.92,31.49,31.49,0,0,1,10.78,18.8,19.9,19.9,0,0,1-.32,7.8c-.39,1.9-.34,1.93,1.53,1.43,2.46-.66,4.94-1.28,7.41-1.9a8.16,8.16,0,0,1,3.93,0,4.28,4.28,0,0,0,1.43.08,43.34,43.34,0,0,1,15.64,1.9c.67.19,1.33.4,2,.6.83.25.95.15.81-.73a23,23,0,0,1,0-9.13,35,35,0,0,1,3.56-8.46,38.33,38.33,0,0,1,6.42-9.24,30.63,30.63,0,0,1,17.24-8.65,44.56,44.56,0,0,1,22.61,2.18,22.69,22.69,0,0,1,9.91,7.61c.66.83.39,1.86-.71,2.57a5.67,5.67,0,0,0-1.85,2.25c-.31.56-.16.69.48.64a10.22,10.22,0,0,1,5.14.51,3.82,3.82,0,0,1,1.9,1.94,37.53,37.53,0,0,1,3.55,17.78A51.86,51.86,0,0,1,1101,207a16.86,16.86,0,0,1-6,8.1,51.44,51.44,0,0,1-17.7,9.16A31.21,31.21,0,0,1,1066,225c-.71-.07-.72.15-.5.67a52.51,52.51,0,0,1,1.87,5.86c.21.7.61.52,1,.41l7.86-2a49.81,49.81,0,0,1,11.19-1.69c.58,0,.89-.21,1-.79a10.47,10.47,0,0,1,.41-1.74c.38-1.16,1.17-1.26,2.1-.5a79.31,79.31,0,0,1,6.47,5.95c.21.21.43.42.63.65.76.88.56,1.68-.55,2.07a20.68,20.68,0,0,0-4.52,2c-.83.54-1.6,1.15-2.41,1.72-1.41,1-2.5.49-2.69-1.21-.16-1.47-.17-1.52-1.64-1.45-5.07.24-10.14.39-15.2.84a20.13,20.13,0,0,0-2.33.18c-.44.09-.66.27-.63.71.07.86.13,1.72.21,2.57,0,.42.34.43.67.37,3.25-.57,6.53-.92,9.83-1.18.47,0,.61-.29.61-.7,0-2.33,1.32-2.72,3.06-1.4,1.43,1.09,2.91,2.1,4.36,3.17a6.18,6.18,0,0,1,.92.85,1.48,1.48,0,0,1,0,2.3,31.07,31.07,0,0,1-5.49,4c-.8.48-1.63,0-1.91-1-.46-1.59-.46-1.54-2.14-1.68-2.85-.25-5.7-.13-8.55-.34-.79-.06-1.05.22-1,1,0,2.14,0,2.25,2.15,2.41a109.41,109.41,0,0,1,16.51,2.76,1,1,0,0,0,1.32-.57,7.24,7.24,0,0,1,.54-.82c.91-1.28,1.9-1.25,2.71.12.61,1,1.17,2.08,1.76,3.12s1.24,2.11,1.81,3.19.36,2.06-.88,2.53c-2.54,1-5.12,1.9-7.71,2.77-1.17.4-2-.29-2-1.53a3.92,3.92,0,0,1,.06-1.24c.3-1-.1-1.42-1-1.78a94.77,94.77,0,0,0-14.62-3.85c-.41-.08-.71-.06-.79.44a29.75,29.75,0,0,1-.65,4.14c-.43,1.5.38,2.4,1.13,3.49a54.67,54.67,0,0,1,5.12,10.48c0,.12.09.23.13.34.95,2.37.45,2,2.94,1.64,4-.55,7.89-1.25,11.84-1.81a10.55,10.55,0,0,1,5.92.67,6.68,6.68,0,0,1,3.83,6.94,16.14,16.14,0,0,1-4.82,9.38,64.55,64.55,0,0,1-13,10,1.31,1.31,0,0,0-.77,1.48c.17,1.42.18,2.85.23,4.28.07,1.87,0,3.75.13,5.63a75,75,0,0,1-.25,8.47c-.14,2.25,0,4.51-.32,6.77a27.4,27.4,0,0,1-2.74,8.74c-.13.26-.42.54-.23.81s.55.11.84.1a30.38,30.38,0,0,1,8,.85,53.2,53.2,0,0,0,11.23,1.48,28.83,28.83,0,0,0,11.14-1.75,10.79,10.79,0,0,0,7.24-10.51c.09-5.53-1.93-10.35-5.13-14.75-1-1.36-2-2.68-2.89-4.11-3.87-6.22-3.17-12.34.48-18.36.35-.58.3-.74-.3-1a6.77,6.77,0,0,1-4.07-7.35,12.18,12.18,0,0,1,1.32-4.24,6.69,6.69,0,0,1,9.44-2.84c5.92,3.16,6.15,10.29.62,14.07a7.76,7.76,0,0,0-3,5c-.56,2.95.45,5.59,1.59,8.19,1.46,3.34,3.77,6.15,5.85,9.1a36.18,36.18,0,0,1,6,12.32c1.67,7-.34,13.05-4.86,18.44-4.76,5.68-11.15,8.51-18.24,10.05A51.72,51.72,0,0,1,1087,349c-4.75-.37-9.46-1.3-14.26-1.14-2.2.07-2.2,0-1.18,1.88,1.42,2.59,2.92,5.14,4.13,7.83a18.35,18.35,0,0,1,1.57,7,26.25,26.25,0,0,1,.11,2.67c-.29,4.1-2.84,6.48-6.29,8.14-2.23,1.08-4.65,1-7.06,1-5.78-.13-11-2.45-16.34-4.16-2.66-.85-5.26-1.88-7.88-2.84a18,18,0,0,1-6.71-4.24,1.3,1.3,0,0,0-1.29-.41,72.12,72.12,0,0,1-14.52,1.17,84.43,84.43,0,0,1-9,0,5.7,5.7,0,0,0-3.83.85c-4.11,2.54-8.8,3.79-13.19,5.7a75.72,75.72,0,0,1-13.45,4.29,20.4,20.4,0,0,1-9.64-.15,8.42,8.42,0,0,1-6.41-7.55c-.55-4.61.77-8.84,2.34-13.05a38.07,38.07,0,0,1,3.19-6.7,1.07,1.07,0,0,0-.22-1.53c-3.5-3.67-6.8-7.49-8.78-12.23a15.47,15.47,0,0,1-1.22-4.45,22.22,22.22,0,0,0-.81-3.48,83.8,83.8,0,0,1-2.43-14.14,68,68,0,0,1-.3-7.94c.08-2.94.36-5.87.63-8.8a1.89,1.89,0,0,0-.87-2,50.38,50.38,0,0,1-9.81-8.5,13.88,13.88,0,0,1-3.63-8.3c-.21-3.71,1.59-6.42,5.6-7.26a18.47,18.47,0,0,1,6.71.24c2.2.35,4.39.71,6.57,1.1a.8.8,0,0,0,1.07-.63A51.32,51.32,0,0,1,968.29,256a1.37,1.37,0,0,0,.28-1.4,3.72,3.72,0,0,1-.26-1.39c0-.89-.28-1-1.11-.86a84.54,84.54,0,0,0-12.13,3.39,1.19,1.19,0,0,0-.9,1.54c.15.92.48,2-.48,2.74s-1.79.12-2.63-.22c-1.7-.69-3.45-1.23-5.19-1.82a13,13,0,0,1-1.5-.59,1.49,1.49,0,0,1-.81-2.22q1.89-3.51,3.94-6.93a1.25,1.25,0,0,1,2.18-.1c.09.11.18.24.26.36,1.1,1.55,1.1,1.53,3,1.1a103.38,103.38,0,0,1,14.2-2.37c.64-.05.83-.33.8-.9s0-1.19,0-1.79-.12-.81-.77-.75C966.32,243.88,965.48,243.82,964.64,243.82Zm30,37.95c0,.29-.1.58-.12.87-.09,2.35,0,4.69-.15,7-.17,4.13,0,8.28-.24,12.41-.07,1.28-.23,2.54-.4,3.81a10,10,0,0,0-.09,4.42,1.1,1.1,0,0,0,1.07.88c7,.79,14,1.09,21,1.22,5.92.12,11.83-.21,17.73-.54,3.06-.17,6.1-.56,9.15-.8.82-.06.85-.44.81-1.12-.1-2.07-.62-4.12-.48-6.22s.4-4.44.52-6.66c.2-3.86.32-7.73.24-11.59a48.8,48.8,0,0,1,.12-5.27c0-.21.1-.54-.2-.61a.67.67,0,0,0-.7.33,3.21,3.21,0,0,0-.29.65,16.1,16.1,0,0,1-1.86,3.56c-.92,1.28-1.69,1.54-3.07.8-3.88-2.06-8.12-3.34-12-5.28a18.85,18.85,0,0,0-9.68-1.81c-.21,0-.42,0-.63,0a1.19,1.19,0,0,0-.68.19,22.28,22.28,0,0,1-4.78,2.27A56.83,56.83,0,0,0,999.5,285a2.22,2.22,0,0,1-3.22-.74C995.71,283.45,995.21,282.6,994.63,281.77Zm-38.19,18.32c0,.42-.2,1.07.43,1.2,1.63.35,2.85,1.49,4.35,2.1,2.28.93,4.64,1.64,7,2.43A114.91,114.91,0,0,0,983,309.55c.55.1.78-.09.76-.66a45.93,45.93,0,0,1,.33-6.31c.3-3,.76-5.95,1.1-8.94.56-4.84.78-9.71,1-14.59,0-1-.29-1.32-1.18-1.51a34.62,34.62,0,0,1-13.14-6c-2.21-1.6-4.17-3.49-6.21-5.3-.4-.35-.62-.47-.92.11a50.22,50.22,0,0,0-2.35,5.5c-.16.43-.06.69.43.77a25.92,25.92,0,0,1,7.78,2.94,4.72,4.72,0,0,1,2.61,3.39,38,38,0,0,1,1.1,11.49,44,44,0,0,1-1.94,11.21c-.61,1.87-1.35,2.23-3.27,1.66a36.7,36.7,0,0,1-7.31-3.23c-1.46-.81-2.9-1.68-4.32-2.56-.63-.39-.84-.26-.86.45S956.5,299.35,956.44,300.09Zm96-17.81c-.08,5.61.29,10.54.35,15.48,0,3.63.24,7.25.35,10.88,0,.56.18.77.75.6s1.28-.33,1.92-.5c4.4-1.13,8.54-3,12.84-4.43,2.85-.93,5.49-2.39,8.34-3.32.53-.17.8-.55.55-1s-.62,0-.88.14a38.7,38.7,0,0,1-7.51,3.24c-1.56.43-2.35,0-2.9-1.52-.14-.4-.26-.8-.37-1.2a45.8,45.8,0,0,1-1.6-15.36,30.46,30.46,0,0,1,1.34-7.27,3.07,3.07,0,0,1,1.35-1.94,35.7,35.7,0,0,1,4.59-2.29c.79-.25.85-.64.54-1.33-.6-1.33-1.14-2.69-1.71-4-.4-1-.47-1-1.26-.24a35.93,35.93,0,0,1-15.84,9c-.7.18-.88.54-.86,1.21C1052.42,279.92,1052.4,281.43,1052.4,282.28Zm-62.48,31.25a4.86,4.86,0,0,1,.54,0c.88.11,1.08-.3,1.13-1.12a2.72,2.72,0,0,0-1.44-2.88,13.32,13.32,0,0,1-1.22-.91.78.78,0,0,0-.74-.18,3.38,3.38,0,0,0-2.7,3.37c0,.59.1,1,.72,1.12A14.6,14.6,0,0,0,989.92,313.53Zm61.71-1.38c0-1.43-.58-2.07-2.24-2.68a1.25,1.25,0,0,0-1.41.21c-.74.7-1.52,1.36-2.18,2.12s-.28,1.56,0,2.28.89.28,1.37.22c1-.13,2-.29,2.93-.42C1051.61,313.68,1051.65,313.65,1051.63,312.15Z"/><path class="cls-9" d="M1018.74,290.36a3.35,3.35,0,0,1-2.85-1.76,3.8,3.8,0,0,1,.14-4c.91-1.59,2.13-1.91,3.78-1.08.16.08.32.14.49.21,1.76.68,2.53,1.84,2.26,3.38A3.86,3.86,0,0,1,1018.74,290.36Z"/><path class="cls-9" d="M1018.8,306.45a3.28,3.28,0,0,1-3.4-3.29c0-1.83,1.64-3.79,3.24-3.8,2.38,0,3.9,1.21,3.93,3.21A3.87,3.87,0,0,1,1018.8,306.45Z"/><path class="cls-9" d="M695.55-76.65a21.09,21.09,0,0,0-2.86-1.78,5.75,5.75,0,0,1-1.1-.71,1.33,1.33,0,0,1-.3-2,29.88,29.88,0,0,1,11.59-11.4,36,36,0,0,1,12.57-3.73,30.49,30.49,0,0,1,11.34.51,27.91,27.91,0,0,1,10.83,5.61,31.23,31.23,0,0,1,11,17.41,39.19,39.19,0,0,1,.16,16.94c0,.23-.07.46-.13.69-.19.65.11.68.63.53a64.15,64.15,0,0,1,11.86-2.49c7.55-.69,15.06-.66,22.34,1.88.23.09.5.32.74.11s0-.49,0-.74c-1.4-7.31-1.26-14.56,1.65-21.49a30.88,30.88,0,0,1,19.28-18.14,26.75,26.75,0,0,1,11-1,37.54,37.54,0,0,1,13.73,3.78A28.62,28.62,0,0,1,840.47-83c.48.69.95,1.4,1.37,2.13a1.56,1.56,0,0,1-.76,2.44,17.37,17.37,0,0,0-3.53,1.71,2.08,2.08,0,0,0,1.09.31A31.86,31.86,0,0,1,843.88-75a2.47,2.47,0,0,1,1.73,2,60.75,60.75,0,0,1,1.56,7.68c.65,7.54-.76,14.45-6.17,20.19a45.45,45.45,0,0,1-11.9,9.27,30.28,30.28,0,0,1-10,2.93,51.33,51.33,0,0,1-7.54.36c-.93,0-1,0-.55.85a54.38,54.38,0,0,1,4,10.21c.19.62.43.81,1.05.47A76.32,76.32,0,0,1,827-25.91c.52-.19.59-.46.37-.93-.32-.66-.6-1.33-.87-2-.45-1.11.14-1.94,1.33-1.69A102.47,102.47,0,0,1,838.06-28c1.08.34,1.35,1,.83,2.05-.94,1.84-2.07,3.58-3.19,5.32a24.39,24.39,0,0,1-2,3c-.91,1.06-1.82,1-2.47-.26s-.66-1.25-1.94-.86c-3.93,1.2-7.81,2.51-11.79,3.52-.53.14-.73.38-.6.94.19.82.33,1.65.47,2.48.09.57.37.75.91.52a1.21,1.21,0,0,1,.25-.08c1.55-.45,1.56-.47,1.3-2.07s.36-2.29,2-1.79c2.3.7,4.58,1.45,6.92,2a1.3,1.3,0,0,1,.93,2.12,32.15,32.15,0,0,1-3.53,5c-.48.59-.95,1.18-1.45,1.75-.94,1.06-2.16.84-2.5-.52-.23-.94-.68-1.24-1.59-1.13a11.61,11.61,0,0,1-1.67,0c-.54,0-.74.23-.71.74.07,1.1.13,2.21.19,3.31.05.82.67.63,1.11.55,1.61-.31,3.26-.32,4.89-.49a91.69,91.69,0,0,1,11.24-.32c.92,0,1.36-.17,1.48-1.16.19-1.64,1-2.05,2.5-1.28,2.54,1.35,5,2.87,7.38,4.42,1.28.82,1.32,2,.16,3A65.38,65.38,0,0,1,840.05,8c-1.5,1-2.7.31-2.67-1.46,0-.89-.21-1.27-1.16-1.39-3.2-.41-6.38-.91-9.57-1.39-.52-.08-.62.1-.53.56a48.41,48.41,0,0,1,.65,8.41,84.55,84.55,0,0,1-.37,9.14c-.17,2.28-.41,4.56-.74,6.83a2.63,2.63,0,0,0,.15,1A110.9,110.9,0,0,1,829,49.32c.12,1.67.39,3.37.38,5,0,2.38,0,4.76-.1,7.14a101.89,101.89,0,0,1-1,10.31,68.21,68.21,0,0,1-6,19.41c-.45.91.1,1.38.64,1.84a169,169,0,0,0,13.51,10.31,143,143,0,0,0,18.32,11.05,54.05,54.05,0,0,0,15.85,5.3,12,12,0,0,0,4.88-.15,4.25,4.25,0,0,0,2.69-1.83,1.35,1.35,0,0,0,.28-1.06.8.8,0,0,1,0-.51c1-1.77.23-3.5-.09-5.25-.09-.46-.43-.63-.84-.78a8.23,8.23,0,0,1-5.77-7.31c-.33-2.83,1.35-6.58,3.6-7.66a7.08,7.08,0,0,1,7.78.86,6.85,6.85,0,0,1,2.57,7.77,7.64,7.64,0,0,1-2.3,3.85.85.85,0,0,0-.18,1.26,17.26,17.26,0,0,1,2,10.69c-.57,4.7-4,7.68-8.88,8.13a39.8,39.8,0,0,1-15-1.87,88.09,88.09,0,0,1-8.63-2.7c-4-1.62-8.07-3-12.13-4.41-9.45-3.32-18.69-7.19-28.06-10.74-.35-.13-.7-.29-1-.45-1.09-.5-1.65-.22-1.87,1-.31,1.72-.57,3.44-.91,5.15a94.21,94.21,0,0,1-7.06,22,25.42,25.42,0,0,1-4.21,6.3c-2.54,2.8-5.58,3.43-9.1,2.25a13.78,13.78,0,0,1-9-8.71,78.56,78.56,0,0,1-2.59-10.2c-.47-2.14-.48-2.09-2.66-1.88a76.26,76.26,0,0,1-8.4.55c-2.24,0-4.49-.34-6.74-.51-.76-.06-1.52-.09-2.28-.17-.57,0-.59.37-.67.73-.52,2.33-1,4.67-1.55,7-.85,3.39-1.76,6.84-4.29,9.43-2.86,2.92-6.31,4.75-10.6,4.21-2.46-.31-4-2-5.49-3.8-2.74-3.42-4.37-7.41-5.88-11.45A107.06,107.06,0,0,1,722.83,108a2.32,2.32,0,0,0-.79-1.39,57.38,57.38,0,0,1-11.78-16.39,68.58,68.58,0,0,1-5.61-18.83,87.89,87.89,0,0,1-1-14.58,110.87,110.87,0,0,1,3.18-25.58,7,7,0,0,0,0-2.84c-.52-3.44-.78-6.92-1-10.39A78.52,78.52,0,0,1,706.07,7c.08-.89.22-1.78.38-2.67.1-.51.09-.73-.57-.66-3.82.43-7.61,1-11.4,1.63-.52.08-.72.3-.69.79,0,.17,0,.35,0,.52,0,1.77-1.2,2.42-2.7,1.44A63.17,63.17,0,0,1,684,2.74a1.72,1.72,0,0,1,.18-3q3.6-2.26,7.3-4.37c1.51-.86,2.36-.41,2.59,1.33.12.86.44,1.09,1.29,1.07a132.33,132.33,0,0,1,14.49.54c1.34.12,2.65.33,4,.52.47.06.71,0,.74-.53.06-1.19.16-2.37.27-3.56,0-.42-.15-.56-.54-.61A38.73,38.73,0,0,0,710-6.08c-.55,0-.75.28-.87.77s-.3,1.35-1.14,1.49-1.28-.37-1.75-.94A61.55,61.55,0,0,1,702-10.24c-1.13-1.69-1.33-2.8,1.31-3.31A44.41,44.41,0,0,0,708.37-15c.42-.14.84-.27,1.27-.37,1.23-.3,1.86.25,1.74,1.51-.19,2-.19,2,1.72,2.57.47.15.95.29,1.42.47s.93.09,1-.58a16.68,16.68,0,0,1,.41-2.22c.23-.81-.1-1.09-.83-1.27-3.49-.89-6.94-1.92-10.38-3-1.14-.36-2.3-.69-3.43-1.08-.6-.2-1-.05-1.17.53a5,5,0,0,1-.21.48c-.66,1.28-1.65,1.4-2.5.24a71.59,71.59,0,0,1-5.12-8.13c-.63-1.14-.33-1.81.91-2.2,3.28-1,6.65-1.67,10-2.43a1.28,1.28,0,0,1,1.43.43c.35.47.16.93,0,1.39s-.48,1.19-.78,1.76-.16.87.47,1.1c2.26.81,4.47,1.74,6.65,2.75,1.86.86,3.65,1.85,5.46,2.82,1,.52,1,.49,1.3-.52A59.64,59.64,0,0,1,722-31.67c.47-.87.45-.91-.53-.88a42.19,42.19,0,0,1-13.13-1.54A33.67,33.67,0,0,1,696-41.3a31.77,31.77,0,0,1-7.56-8.77,24.34,24.34,0,0,1-2.61-9,35.67,35.67,0,0,1,1.61-13.84,3.91,3.91,0,0,1,2.51-2.41A26.06,26.06,0,0,1,695.55-76.65ZM788.48,32.83a13.43,13.43,0,0,1-.66,1.22c-2.12,3.06-3.77,3.5-6.36,1.88-3.63-2.25-7.42-4.24-10.86-6.77-1.15-.85-2.25-1.66-3.77-1.48-1,.12-2.07-.26-2.89.4-3.52,2.84-7.69,4.68-11.37,7.27a11.09,11.09,0,0,1-1.7.92c-1.91.9-3,.7-4.52-.76a8.39,8.39,0,0,1-1.86-2.83c-.32,1.77-.63,3.25-.86,4.74-1.07,6.7-1.06,13.47-1.39,20.22-.16,3.19,0,6.4,0,9.59,0,.81.27,1.1,1,1.26a66.71,66.71,0,0,0,10.91,1.2c3.89.15,7.78.19,11.67.19,2.33,0,4.66-.06,7-.12,3.6-.1,7.21,0,10.8-.38a61.31,61.31,0,0,0,6.34-.94c.43-.09.77-.24.77-.77,0-2.33.18-4.65.11-7-.16-5-.34-10-.62-15A82.54,82.54,0,0,0,788.48,32.83ZM708.26,36.9a1.89,1.89,0,0,0-.18.31,111.09,111.09,0,0,0-1.87,16.86c0,.41.21.56.49.74,1,.66,2.11,1.27,3.1,2A38.1,38.1,0,0,0,722,62.65c3,.85,6,1.75,9,2.62.26.08.65.37.61-.3-.17-3,.2-6.09.11-9.14-.1-3.34.12-6.68.21-10,0-1.82.23-3.64.39-5.46a95.06,95.06,0,0,1,1.77-11c.18-.89-.33-.88-.89-1s-.69.31-.7.78a29.05,29.05,0,0,1-.54,4.92c-1,5.75-3.56,10.6-8.49,14-3.07,2.14-6.28,2.94-9.83,1.22a4.55,4.55,0,0,1-2.22-2.13,30.1,30.1,0,0,1-1.58-4C709.23,41.19,708.74,39.13,708.26,36.9Zm116.23-1-.27,1.25a39.84,39.84,0,0,1-3.14,10,3.77,3.77,0,0,1-1.46,1.7,8.5,8.5,0,0,1-8.15.56,18.2,18.2,0,0,1-6.64-5.33c-3.37-4.2-4.39-9.22-4.81-14.42,0-.48.25-1.31-.66-1.2s-.46.87-.36,1.33a99.73,99.73,0,0,1,2.12,18c.12,4.12.15,8.25.21,12.37,0,1.39,0,2.79,0,4.18,0,1,.07,1.09,1,.8l6.59-1.9A45,45,0,0,0,820,58.87c2-1.18,3.79-2.54,5.75-3.7a1.81,1.81,0,0,0,1-1.9c-.2-3.07-.44-6.13-.8-9.19A52.57,52.57,0,0,0,824.49,35.91ZM796,71.82a6.11,6.11,0,0,0,3-.87,1.5,1.5,0,0,0,.86-1.47,5.9,5.9,0,0,0-.5-2,10,10,0,0,0-3-3.89c-.26-.25-.5-.27-.74,0-.65.81-1.31,1.62-2,2.45a1.27,1.27,0,0,0-.17,1.32,5.12,5.12,0,0,1,.16,2.06C793.64,71.67,793.66,71.76,796,71.82Zm-58.74,0a4.69,4.69,0,0,0,.53,0c1.39-.09,1.6-.31,1.51-1.71-.05-.69-.37-1.44-.09-2.06.58-1.24,0-2.11-.72-3a14.71,14.71,0,0,1-1-1.14c-.4-.55-.7-.42-1.2,0-1.51,1.15-2.23,2.8-3.06,4.38a2.25,2.25,0,0,0,1,2.82A5.81,5.81,0,0,0,737.28,71.81Z"/><path class="cls-9" d="M766.42,39.21a5.24,5.24,0,0,1,5.09,4.51c.83,3.81-1.64,6.19-4.82,6.63-1.64.23-4.15-1.14-5-3.33a5.8,5.8,0,0,1,4.21-7.73C766.09,39.24,766.33,39.23,766.42,39.21Z"/><path class="cls-9" d="M766.53,55.94c2.65,0,4.46,2,4.5,5a4.28,4.28,0,0,1-4.57,4.17c-2.34-.08-4.53-1.53-4.46-4.24C762.07,57.88,763.82,55.93,766.53,55.94Z"/><polygon class="cls-6" points="500.11 1475.98 273.72 1251.66 500.25 1027.21 726.64 1251.52 500.11 1475.98"/><polygon class="cls-7" points="500.18 1477.46 272.22 1251.59 500.18 1025.72 728.14 1251.59 500.18 1477.46"/><polygon class="cls-10" points="1007.75 1068.55 733.9 797.22 1007.75 525.88 1281.6 797.22 1007.75 1068.55"/><path d="M401.86,674.66h-15c-.37,0-.53-.16-.53-.54V656.33c0-.38.16-.56.53-.56h15a.49.49,0,0,1,.55.56v17.79C402.41,674.5,402.23,674.66,401.86,674.66Zm-1.6-16.81H388.5V672.6h11.76Z"/><path d="M419.89,667.75H407v6.64c0,.25-.12.36-.32.36h-1.49a.3.3,0,0,1-.34-.34v-18.1a.47.47,0,0,1,.54-.54h14.53a.48.48,0,0,1,.53.54v10.9A.47.47,0,0,1,419.89,667.75Zm-1.62-9.9H407v7.82h11.3Z"/><path d="M437.53,674.66H423.25c-.36,0-.57-.16-.57-.52V656.33a.5.5,0,0,1,.57-.56h14.28a.31.31,0,0,1,.34.34v1.38c0,.25-.11.34-.37.34H424.83V664h11.94c.23,0,.34.11.34.36v1.31c0,.25-.11.37-.34.37H424.83v6.57h12.7c.23,0,.34.09.34.31v1.39C437.87,674.57,437.76,674.66,437.53,674.66Z"/><path d="M455.19,674.71h-1.51a.51.51,0,0,1-.41-.18l-11-15.23v15.07c0,.23-.09.34-.32.34h-1.46c-.21,0-.32-.11-.32-.34V656.2a.38.38,0,0,1,.41-.43h1.35a.47.47,0,0,1,.39.2l11.21,15.39V656a.3.3,0,0,1,.34-.34h1.44c.21,0,.32.16.32.37v18.24A.39.39,0,0,1,455.19,674.71Z"/><path d="M494.4,674.94h-1.54c-.2,0-.32-.1-.32-.34v-17h-6.88a.3.3,0,0,1-.34-.32V655.9a.3.3,0,0,1,.32-.32h8.55a.49.49,0,0,1,.53.55V674.6A.31.31,0,0,1,494.4,674.94Z"/><path d="M518.74,674.69H504c-.25,0-.36-.07-.36-.32V673c0-.25.11-.36.32-.36h13.2v-6.6H505.9a.3.3,0,0,1-.34-.34V664.4c0-.25.09-.34.34-.34h11.24v-6.28H504c-.25,0-.36-.09-.36-.34v-1.36c0-.25.11-.34.36-.34h14.76a.46.46,0,0,1,.52.52v17.93C519.26,674.53,519.08,674.69,518.74,674.69Z"/><path d="M533.06,660.86H531c-.37,0-.55-.15-.55-.49v-1.61c0-.37.16-.55.55-.55h2.08a.52.52,0,0,1,.57.59v1.57C533.65,660.71,533.42,660.86,533.06,660.86Zm0,11.24H531a.48.48,0,0,1-.55-.54V670c0-.34.16-.5.55-.5h2.08c.34,0,.57.16.57.53v1.56C533.65,671.92,533.42,672.1,533.06,672.1Z"/><path d="M559.53,674.69H544.77c-.25,0-.36-.07-.36-.32V673c0-.25.11-.36.32-.36h13.19v-6.6H546.69a.3.3,0,0,1-.34-.34V664.4c0-.25.09-.34.34-.34h11.23v-6.28H544.77c-.25,0-.36-.09-.36-.34v-1.36c0-.25.11-.34.36-.34h14.76a.46.46,0,0,1,.52.52v17.93C560.05,674.53,559.87,674.69,559.53,674.69Z"/><path d="M580.75,674.69H564.67c-.36,0-.52-.16-.52-.5v-18a.46.46,0,0,1,.5-.52h16.1c.35,0,.53.2.53.57v18C581.28,674.53,581.1,674.69,580.75,674.69Zm-1.62-17H566.3V672.6h12.83Z"/><path d="M604,664.9l-4.64,2a.75.75,0,0,1-.21,0,.55.55,0,0,1-.25,0l-7.14-3.61L587,665.49a.35.35,0,0,1-.16.06c-.07,0-.12-.06-.12-.22v-1.81a.3.3,0,0,1,.21-.32l4.73-2.09a.51.51,0,0,1,.23,0,.47.47,0,0,1,.23,0l7.27,3.56,4.62-2.15a.39.39,0,0,1,.14,0c.09,0,.16.09.16.23v1.81A.45.45,0,0,1,604,664.9Z"/><path d="M399.06,715.51H384.49c-.23,0-.34-.09-.34-.32v-1.4a.3.3,0,0,1,.34-.34h13V707H384.7c-.37,0-.55-.13-.55-.5v-9.33c0-.37.18-.55.52-.55h14.51c.25,0,.34.12.34.32v1.41a.3.3,0,0,1-.34.34H386.32V705h12.76a.47.47,0,0,1,.53.52V715C399.61,715.35,399.43,715.51,399.06,715.51Z"/><path d="M417.06,698.7h-6.81v16.52c0,.22-.09.34-.34.34h-1.47c-.25,0-.34-.09-.34-.34V698.7h-6.63a.32.32,0,0,1-.35-.36V697c0-.25.09-.37.32-.37h15.62c.26,0,.35.12.35.37v1.36C417.41,698.58,417.32,698.7,417.06,698.7Z"/><path d="M434.43,715.6H433c-.25,0-.32-.07-.32-.31v-7H421.18v7c0,.22-.11.31-.34.31h-1.46c-.23,0-.35-.09-.35-.31V697.13c0-.36.16-.52.53-.52h14.68c.35,0,.53.18.53.57v18.11C434.77,715.51,434.68,715.6,434.43,715.6Zm-1.79-16.92H421.18v7.59h11.46Z"/><path d="M452.66,715.6H451a.4.4,0,0,1-.39-.2l-5.13-8.14H439.3v8c0,.25-.11.34-.32.34H437.5c-.23,0-.35-.09-.35-.31V697.16c0-.37.16-.55.55-.55h14.48a.48.48,0,0,1,.55.55v9.56a.48.48,0,0,1-.55.54h-4.39l5.17,7.89a.6.6,0,0,1,.11.25C453.07,715.56,452.91,715.6,452.66,715.6Zm-2.08-16.9H439.3v6.52h11.28Z"/><path d="M470.71,698.7h-6.82v16.52c0,.22-.09.34-.34.34h-1.46c-.26,0-.35-.09-.35-.34V698.7h-6.63c-.23,0-.34-.12-.34-.36V697c0-.25.09-.37.32-.37h15.62c.25,0,.34.12.34.37v1.36C471.05,698.58,471,698.7,470.71,698.7Z"/><path d="M493.81,715.78h-1.53c-.2,0-.32-.09-.32-.34v-17h-6.88c-.23,0-.35-.11-.35-.31v-1.43a.3.3,0,0,1,.32-.32h8.56c.34,0,.52.18.52.55v18.46A.3.3,0,0,1,493.81,715.78Z"/><path d="M518.15,715.65h-1.48c-.23,0-.32-.09-.32-.32v-5.62H503.61c-.39,0-.55-.16-.55-.54V696.86c0-.22.09-.34.34-.34h1.46c.23,0,.35.12.35.37v10.76h11.14V696.86c0-.25.09-.34.32-.34h1.48c.21,0,.35.09.35.34v18.45A.33.33,0,0,1,518.15,715.65Z"/><path d="M532.29,701.71h-2.06c-.36,0-.55-.16-.55-.5V699.6c0-.36.16-.54.55-.54h2.08a.53.53,0,0,1,.58.59v1.56C532.89,701.55,532.66,701.71,532.29,701.71Zm0,11.24h-2.06a.48.48,0,0,1-.55-.54v-1.59c0-.34.16-.5.55-.5h2.08c.35,0,.58.16.58.52v1.57C532.89,712.77,532.66,713,532.29,713Z"/><path d="M558.62,715.53H544.33c-.39,0-.55-.13-.55-.49V697.11c0-.36.16-.52.5-.52h14.37c.36,0,.54.16.54.52V715C559.19,715.38,559,715.53,558.62,715.53ZM557,698.65H545.93v14.84H557Z"/><path d="M579.87,715.53H563.79c-.36,0-.52-.15-.52-.49V697a.46.46,0,0,1,.5-.52h16.1a.49.49,0,0,1,.53.56v18C580.4,715.38,580.22,715.53,579.87,715.53Zm-1.62-17H565.42v14.89h12.83Z"/><path d="M353.14,322.34H347.6v12.85a.42.42,0,0,1-.46.46H345c-.33,0-.47-.1-.47-.43V322.34H325.21c-.33,0-.5-.17-.5-.46v-2c0-.29.13-.46.47-.46h19.3v-2.89c0-.33.14-.49.47-.49h2.19a.45.45,0,0,1,.46.49v2.89h5.54c.3,0,.46.17.46.49v2A.42.42,0,0,1,353.14,322.34Zm-1.63,22H326.93c-.53,0-.79-.2-.79-.82v-11a.4.4,0,0,1,.46-.46h2a.45.45,0,0,1,.49.5v8.74h22.39c.34,0,.47.16.47.49v2C352,344.2,351.85,344.36,351.51,344.36Z"/><path d="M386.38,321.62H370.43v5.58h14.89c.63,0,.86.3.86.79V343.9c0,.3-.16.46-.49.46h-2.06a.4.4,0,0,1-.46-.43V330h-6.94V343.6a.67.67,0,0,1-.76.76H359.12c-.5,0-.73-.23-.73-.72V327.93a.64.64,0,0,1,.73-.73h8.26v-5.58h-9c-.34,0-.47-.17-.47-.46v-2c0-.33.1-.49.43-.49h9v-2.2a.4.4,0,0,1,.46-.46h2.09a.44.44,0,0,1,.5.49v2.17h15.95a.44.44,0,0,1,.5.49v2A.44.44,0,0,1,386.38,321.62ZM373.31,330h-2.88v5.92c0,.33-.17.46-.5.46h-1.86c-.33,0-.5-.13-.5-.43v-6H361.3v11.67h12Z"/><path d="M406.26,344.82h-2c-.5,0-.73-.23-.73-.76v-1.74c0-.49.2-.72.73-.72h2a.7.7,0,0,1,.76.75v1.71A.67.67,0,0,1,406.26,344.82Zm.06-7.3c0,.33-.16.46-.49.46H404.7c-.33,0-.53-.13-.53-.46l-.47-10.81V316a.43.43,0,0,1,.47-.46h2.09c.33,0,.46.23.46.52v10.65Z"/><path d="M438.57,343.87a.4.4,0,0,1-.23-.17L432.63,337v7.63a.4.4,0,0,1-.46.46h-1.86c-.33,0-.5-.13-.5-.46V337l-5.7,6.74c-.1.13-.17.17-.23.17s-.07-.07-.07-.27v-3a.63.63,0,0,1,.2-.5l5.41-6h-5.15c-.33,0-.46-.13-.46-.49V332.1c0-.36.13-.46.43-.46h5.57v-3.45h-5.54c-.33,0-.46-.13-.46-.46v-1.55c0-.32.13-.49.43-.49h1.43v-5.62h-1.4a.4.4,0,0,1-.46-.46V318c0-.29.13-.46.43-.46h5.57v-1.44a.44.44,0,0,1,.5-.5h1.86a.44.44,0,0,1,.46.5v1.44h5.58a.44.44,0,0,1,.49.46v1.58a.44.44,0,0,1-.49.46h-1.33v5.62h1.33a.48.48,0,0,1,.49.49v1.55c0,.33-.2.46-.49.46h-5.58v3.45h5.58c.29,0,.49.13.49.46v1.58a.47.47,0,0,1-.49.49H433l5.41,6a.75.75,0,0,1,.26.53v2.92C438.7,343.8,438.67,343.87,438.57,343.87Zm-4.15-23.8h-6.3v5.62h6.3Zm18.91,7.4h-2.42v17.12a.4.4,0,0,1-.46.46h-1.6c-.33,0-.49-.13-.49-.39V327.47h-4.81v3.64l-1.33,13.55a.5.5,0,0,1-.56.39H440.1c-.3,0-.43-.13-.43-.39l1.22-13.55V317c0-.33.1-.43.47-.46l11.54-.82c.33,0,.43.19.43.46v1.57a.48.48,0,0,1-.5.56l-9.28.59v6h9.78a.43.43,0,0,1,.47.49V327A.44.44,0,0,1,453.33,327.47Z"/><path d="M486.18,344.69h-27.9c-.33,0-.5-.13-.5-.46v-1.78c0-.29.17-.46.5-.46h13.1v-8H460.07c-.33,0-.46-.13-.46-.46v-1.77c0-.3.1-.46.46-.46h11.31v-8h-9.52L460,328a.46.46,0,0,1-.49.33h-2.13c-.26,0-.36-.06-.36-.23a.42.42,0,0,1,0-.19l4.28-11.28a.5.5,0,0,1,.5-.36H464c.23,0,.36.1.36.26a.78.78,0,0,1-.06.23l-1.43,3.75h8.49v-4.47c0-.29.13-.46.5-.46h2c.33,0,.46.17.46.49v4.44h11.05c.33,0,.46.2.46.49v1.75a.4.4,0,0,1-.46.46H474.3v8h10.15c.33,0,.5.16.5.46v1.77c0,.3-.17.46-.5.46H474.3v8h11.94a.45.45,0,0,1,.5.46v1.78C486.74,344.52,486.51,344.69,486.18,344.69Z"/><path d="M497.82,320.86a1.16,1.16,0,0,0-.16,0l-7.17-2.27c-.26-.1-.33-.2-.33-.46v-2c0-.27.07-.36.27-.36s.13,0,.2,0l7.16,2.23a.42.42,0,0,1,.33.43v2Q498.12,320.86,497.82,320.86Zm0,8.05a.46.46,0,0,1-.2,0l-7.17-2.24a.4.4,0,0,1-.33-.46v-2c0-.26.07-.36.27-.36s.13,0,.2,0l7.16,2.3a.45.45,0,0,1,.33.43v1.94C498.12,328.78,498.06,328.91,497.86,328.91Zm.69,3.72-5.4,12.19a.46.46,0,0,1-.5.3h-2.12c-.27,0-.37-.07-.37-.27a1.57,1.57,0,0,0,0-.16l5.44-12.19a.48.48,0,0,1,.47-.33h2.19c.2,0,.33.09.33.23A.71.71,0,0,1,498.55,332.63Zm20.8-5.69h-7.73V332h6.61c.49,0,.76.23.76.73v11.07a.67.67,0,0,1-.76.76h-16c-.53,0-.76-.23-.76-.76V332.76a.64.64,0,0,1,.73-.73h6.6v-5.09h-7.89a.42.42,0,0,1-.47-.46V324.8c0-.32.13-.49.47-.49h7.89v-5.42l-7,.46c-.3,0-.4-.2-.4-.46v-1.65c0-.29.14-.42.47-.46l16.72-1.11c.3,0,.43.16.43.42v1.65c0,.33-.17.46-.5.49l-6.87.49v5.59h7.77a.44.44,0,0,1,.46.49v1.68C519.85,326.78,519.69,326.94,519.35,326.94Zm-3.18,7.63H504.26v7.49h11.91Z"/><path d="M551.1,344.33H545c-.3,0-.47-.13-.47-.46v-2c0-.3.13-.46.47-.46h3.91V320.93h-21v20.51h8.46v-18c0-.4.16-.56.6-.56h1.59c.43,0,.63.19.63.59v20.08c0,.53-.3.76-.83.76H525.59c-.53,0-.76-.23-.76-.76V318.82c0-.49.17-.82.86-.82H551c.63,0,.86.33.86.82v24.72A.71.71,0,0,1,551.1,344.33Z"/><path d="M570.51,319.38h-3.45v3.29c0,.33-.16.46-.49.46h-1.73c-.33,0-.46-.13-.46-.46v-3.29H560l-.76,2.76a.4.4,0,0,1-.43.3h-2.16c-.27,0-.4-.07-.4-.23a.46.46,0,0,1,0-.2l1.76-6a.48.48,0,0,1,.47-.37h2.05c.24,0,.37.1.37.3s0,.1,0,.16l-.24.92h9.82a.47.47,0,0,1,.53.5v1.41C571,319.22,570.84,319.38,570.51,319.38Zm14.93,24.82h-7.33c-.3,0-.43-.14-.43-.46v-1.39c0-.29.13-.45.43-.45h5.27v-4.47H572.8v7.16c0,.33-.13.46-.43.46h-2c-.33,0-.46-.13-.46-.46v-7.1H566.2l-6.2,7.3a.84.84,0,0,1-.6.23h-2.52c-.2,0-.3,0-.3-.1a.4.4,0,0,1,.1-.23l6.2-7.2h-4.74c-.53,0-.76-.23-.76-.76v-6.44a.66.66,0,0,1,.76-.75H570v-3.26H557.84a.4.4,0,0,1-.46-.46v-1.31c0-.33.13-.49.43-.49h26.8a.69.69,0,0,1,.73.78v6.25a.66.66,0,0,1-.76.75H572.8v3.39h12.67c.53,0,.8.26.8.72v7.53C586.27,344,586,344.2,585.44,344.2ZM570,331.74H560.3v3.52H570Zm15.72-12.36h-4.41v3.29a.4.4,0,0,1-.46.46h-1.73c-.3,0-.5-.13-.5-.46v-3.29h-3.91l-.73,2.76a.43.43,0,0,1-.46.3h-2.06c-.27,0-.4-.07-.4-.23a.46.46,0,0,1,0-.2l1.7-6a.46.46,0,0,1,.46-.37h2c.24,0,.37.1.37.3s0,.1,0,.16l-.24.92h10.35a.44.44,0,0,1,.5.5v1.41C586.17,319.22,586,319.38,585.67,319.38Zm-3.21,6.84H572.8v3.38h9.66Z"/><path d="M618.92,332H590.09c-.33,0-.47-.13-.47-.46v-2.37a.41.41,0,0,1,.47-.46H619a.43.43,0,0,1,.46.46v2.37C619.41,331.8,619.25,332,618.92,332Z"/><path d="M652.29,329.14H639.42v8.15c0,.53-.3.76-.8.76h-4.44c-.33,0-.5-.13-.5-.46v-1.48c0-.3.13-.46.5-.46h2.29v-6.51H623.2a.44.44,0,0,1-.5-.49v-1.74c0-.3.13-.46.47-.46h4.14v-9.24c0-.29.13-.46.47-.46h1.92a.44.44,0,0,1,.46.49v9.21h6.47V316a.42.42,0,0,1,.47-.46h2a.46.46,0,0,1,.5.5v2.72h11.67c.33,0,.5.17.5.46v1.52c0,.32-.2.46-.53.46H639.59v5.29h12.73a.42.42,0,0,1,.47.46v1.74A.44.44,0,0,1,652.29,329.14ZM629,331.38l-2.92,7.56a.48.48,0,0,1-.46.33h-2.19c-.26,0-.36-.07-.36-.23a.44.44,0,0,1,0-.2l3-7.59a.5.5,0,0,1,.5-.33h2.13c.23,0,.36.06.36.23A.71.71,0,0,1,629,331.38Zm18.28,7.56-17.22,6.18a1.57,1.57,0,0,1-.53.06H623.7c-.34,0-.47-.13-.47-.46v-1.84c0-.33.13-.46.47-.46h5.4l18.08-6.31a.46.46,0,0,1,.2,0c.17,0,.27.1.27.33v2A.45.45,0,0,1,647.28,338.94Zm5.41,2.43H650.6a.46.46,0,0,1-.5-.3l-3.48-9.69a.71.71,0,0,1-.07-.23c0-.17.17-.23.4-.23H649a.43.43,0,0,1,.46.33l3.55,9.69a.46.46,0,0,1,0,.2C653.05,341.3,652.92,341.37,652.69,341.37Z"/><line class="cls-11" x1="311.05" y1="354.22" x2="272" y2="315.53"/><line class="cls-11" x1="704" y1="317.53" x2="667.95" y2="353.25"/><g class="cls-12"><polygon class="cls-3" points="86.11 527.01 55.71 496.9 86.11 466.78 116.5 496.9 86.11 527.01"/></g><g class="cls-12"><polygon class="cls-3" points="926.19 525.33 895.24 494.66 926.19 464 957.14 494.66 926.19 525.33"/></g><g class="cls-12"><polygon class="cls-3" points="500.2 98.25 469.25 67.58 500.2 36.91 531.15 67.58 500.2 98.25"/></g><g class="cls-12"><polygon class="cls-3" points="500.2 958.28 469.25 927.62 500.2 896.95 531.15 927.62 500.2 958.28"/></g><path class="cls-4" d="M1178.15,674.78h-1.59c-.25,0-.37-.1-.37-.34V654.76c0-.22.1-.34.37-.34h1.59c.27,0,.39.12.39.39v19.63C1178.54,674.68,1178.4,674.78,1178.15,674.78Z"/><path class="cls-4" d="M1197.65,674.76h-15.84c-.42,0-.59-.18-.59-.56V655c0-.39.17-.56.59-.56h15.91c.27,0,.39.1.39.34v1.51c0,.27-.15.36-.39.36h-14.19v15.91h12.4v-6.91h-6.34c-.24,0-.34-.14-.34-.39v-1.36c0-.27.1-.36.32-.36h8.08a.52.52,0,0,1,.59.58v10A.52.52,0,0,1,1197.65,674.76Z"/><path class="cls-4" d="M1217.26,674.73h-15.91c-.39,0-.56-.15-.56-.56V655a.49.49,0,0,1,.54-.56H1217a.54.54,0,0,1,.61.61v5.59c0,.25-.12.34-.37.34h-1.59c-.23,0-.35-.09-.35-.34v-4h-12.2v15.84h14.14c.27,0,.37.14.37.36v1.54C1217.63,674.63,1217.53,674.73,1217.26,674.73Z"/><path class="cls-4" d="M1236.24,674.78h-15.62c-.39,0-.59-.17-.59-.51V664.08c0-.44.2-.61.59-.61h13.65v-6.84H1220.4a.33.33,0,0,1-.34-.36v-1.46c0-.27.12-.36.34-.36H1236c.39,0,.59.19.59.56v10c0,.39-.2.59-.62.59h-13.62v7h13.92c.24,0,.34.12.34.39v1.46C1236.58,674.68,1236.48,674.78,1236.24,674.78Z"/><path class="cls-4" d="M1247.51,654.06l-2.46,4.2-1.3,6.38,1.3,6.35,2.46,4.23a.3.3,0,0,1,0,.17c0,.07-.07.12-.22.12h-1.76c-.18,0-.32,0-.4-.2l-2.18-3.79a2.43,2.43,0,0,1-.12-.39l-1.31-6.47,1.31-6.49a1.46,1.46,0,0,1,.12-.37l2.18-3.82a.4.4,0,0,1,.4-.24h1.76c.18,0,.25,0,.25.12A.53.53,0,0,1,1247.51,654.06Z"/><path class="cls-4" d="M1252.83,674.78h-1.59c-.25,0-.37-.1-.37-.34V654.76c0-.22.1-.34.37-.34h1.59c.27,0,.39.12.39.39v19.63C1253.22,674.68,1253.08,674.78,1252.83,674.78Z"/><path class="cls-4" d="M1272,674.8h-1.62a.52.52,0,0,1-.44-.19l-11.81-16.35v16.18c0,.24-.1.36-.34.36h-1.58c-.22,0-.34-.12-.34-.36V654.93a.41.41,0,0,1,.44-.46h1.45a.51.51,0,0,1,.42.22l12,16.51V654.74a.33.33,0,0,1,.37-.37h1.54a.35.35,0,0,1,.35.39v19.58A.42.42,0,0,1,1272,674.8Z"/><path class="cls-4" d="M1277.14,674.78h-1.6c-.25,0-.37-.1-.37-.34V654.76c0-.22.1-.34.37-.34h1.6c.27,0,.39.12.39.39v19.63C1277.53,674.68,1277.38,674.78,1277.14,674.78Z"/><path class="cls-4" d="M1296.75,674.85h-1.57c-.27,0-.34-.07-.34-.34V667h-12.3v7.49c0,.25-.13.34-.37.34h-1.57c-.25,0-.37-.09-.37-.34V655c0-.39.17-.56.56-.56h15.77c.36,0,.56.2.56.61v19.43C1297.12,674.76,1297,674.85,1296.75,674.85Zm-1.91-18.17h-12.3v8.15h12.3Z"/><path class="cls-4" d="M1316.27,672.42l-2.21,2.16a.73.73,0,0,1-.49.18h-13.33c-.4,0-.59-.18-.59-.54V655a.52.52,0,0,1,.59-.59h13.38a.54.54,0,0,1,.46.2l2.19,2.19a.63.63,0,0,1,.22.46v14.69A.84.84,0,0,1,1316.27,672.42Zm-2.19-14.67-1.17-1.16h-11v16h11l1.17-1.14Z"/><path class="cls-4" d="M1343.62,674.76h-15.84c-.42,0-.59-.18-.59-.56V655c0-.39.17-.56.59-.56h15.91c.27,0,.39.1.39.34v1.51c0,.27-.14.36-.39.36H1329.5v15.91h12.4v-6.91h-6.34c-.24,0-.34-.14-.34-.39v-1.36c0-.27.1-.36.32-.36h8.08a.52.52,0,0,1,.59.58v10A.52.52,0,0,1,1343.62,674.76Z"/><path class="cls-4" d="M1361.32,674.83H1347.1a.47.47,0,0,1-.54-.54v-7.63c0-.37.17-.56.54-.56h12.52v-4.45h-12.71c-.25,0-.35-.1-.35-.35v-1.36c0-.24.1-.34.35-.34h14.43c.35,0,.54.17.54.56v14.11A.49.49,0,0,1,1361.32,674.83Zm-1.7-7.08h-10.75v5h10.75Z"/><path class="cls-4" d="M1383.51,674.9H1382a.31.31,0,0,1-.34-.34V661.72H1375v12.84a.31.31,0,0,1-.32.34h-1.35c-.25,0-.35-.12-.35-.34V661.72h-6.6v12.84c0,.22-.12.34-.37.34h-1.52a.31.31,0,0,1-.35-.34v-14.4a.47.47,0,0,1,.54-.53h18.59a.5.5,0,0,1,.56.58v14.37A.3.3,0,0,1,1383.51,674.9Z"/><path class="cls-4" d="M1400.94,674.83h-14.21c-.4,0-.57-.2-.57-.58V660.16c0-.36.17-.56.59-.56h14a.5.5,0,0,1,.56.54v7.56c0,.37-.19.54-.59.54h-12.35v4.52H1401c.23,0,.37.1.37.34v1.36A.35.35,0,0,1,1400.94,674.83Zm-1.87-13.21h-10.68v5h10.68Z"/><path class="cls-4" d="M1428.31,674.73H1412.4c-.39,0-.56-.15-.56-.56V655a.49.49,0,0,1,.54-.56h15.69a.53.53,0,0,1,.61.61v5.59c0,.25-.12.34-.37.34h-1.59c-.22,0-.35-.09-.35-.34v-4h-12.2v15.84h14.14c.27,0,.37.14.37.36v1.54C1428.68,674.63,1428.58,674.73,1428.31,674.73Z"/><path class="cls-4" d="M1441.2,661.74h-6.09l-1.82,1.41v11.41a.32.32,0,0,1-.36.34h-1.52c-.23,0-.35-.1-.35-.34v-12a.53.53,0,0,1,.25-.41l3-2.38a.67.67,0,0,1,.49-.17h6.43c.25,0,.34.12.34.34v1.43A.3.3,0,0,1,1441.2,661.74Z"/><path class="cls-4" d="M1457.87,674.83h-14.21c-.4,0-.57-.2-.57-.58V660.16c0-.36.17-.56.59-.56h14a.5.5,0,0,1,.56.54v7.56c0,.37-.19.54-.59.54h-12.35v4.52h12.57c.23,0,.37.1.37.34v1.36A.35.35,0,0,1,1457.87,674.83ZM1456,661.62h-10.68v5H1456Z"/><path class="cls-4" d="M1475.15,674.83h-14.21a.47.47,0,0,1-.54-.54v-7.63c0-.37.17-.56.54-.56h12.52v-4.45h-12.72c-.24,0-.34-.1-.34-.35v-1.36c0-.24.1-.34.34-.34h14.44a.49.49,0,0,1,.54.56v14.11A.5.5,0,0,1,1475.15,674.83Zm-1.69-7.08h-10.75v5h10.75Z"/><path class="cls-4" d="M1489.24,661.77H1483v11h5.92c.19,0,.29.09.29.34v1.41c0,.24-.1.34-.32.34h-7.78a.31.31,0,0,1-.35-.34V661.77h-3c-.25,0-.37-.1-.37-.34V660a.31.31,0,0,1,.34-.34h3v-2.6a.31.31,0,0,1,.32-.34h1.58a.3.3,0,0,1,.34.34v2.6h6.28a.3.3,0,0,1,.32.34v1.44C1489.56,661.67,1489.44,661.77,1489.24,661.77Z"/><path class="cls-4" d="M1505.28,674.83h-13.46c-.39,0-.56-.17-.56-.54V660.16a.47.47,0,0,1,.54-.53h13.48a.49.49,0,0,1,.56.53v14.13A.49.49,0,0,1,1505.28,674.83Zm-1.65-13.09h-10.14v11h10.14Z"/><path class="cls-4" d="M1518.31,661.74h-6.09l-1.82,1.41v11.41a.32.32,0,0,1-.36.34h-1.53a.3.3,0,0,1-.34-.34v-12a.53.53,0,0,1,.25-.41l3-2.38a.67.67,0,0,1,.49-.17h6.43c.25,0,.34.12.34.34v1.43A.3.3,0,0,1,1518.31,661.74Z"/><path class="cls-4" d="M1533.85,674.83h-13.43c-.22,0-.32-.1-.32-.34v-1.36c0-.25.1-.34.32-.34h11.83v-4.94h-11.61c-.37,0-.54-.15-.54-.54v-7.15a.47.47,0,0,1,.52-.53H1534a.33.33,0,0,1,.37.34v1.38c0,.25-.15.34-.37.34h-11.69v4.55h11.57a.51.51,0,0,1,.58.56v7.49C1534.46,674.66,1534.27,674.83,1533.85,674.83Z"/><path class="cls-4" d="M1561.42,674.73h-15.91c-.39,0-.56-.15-.56-.56V655a.49.49,0,0,1,.54-.56h15.68a.54.54,0,0,1,.62.61v5.59c0,.25-.12.34-.37.34h-1.6c-.22,0-.34-.09-.34-.34v-4h-12.2v15.84h14.14c.27,0,.37.14.37.36v1.54C1561.79,674.63,1561.69,674.73,1561.42,674.73Z"/><path class="cls-4" d="M1566.25,657h-1.57c-.22,0-.34-.1-.34-.35v-2a.31.31,0,0,1,.32-.35h1.59a.31.31,0,0,1,.35.35v1.94C1566.6,656.85,1566.5,657,1566.25,657Zm0,17.87h-1.57c-.22,0-.34-.09-.34-.31V659.87a.3.3,0,0,1,.32-.34h1.59a.32.32,0,0,1,.35.36v14.62C1566.6,674.76,1566.5,674.85,1566.25,674.85Z"/><path class="cls-4" d="M1579.27,661.74h-6.09l-1.82,1.41v11.41a.33.33,0,0,1-.37.34h-1.52a.3.3,0,0,1-.34-.34v-12a.55.55,0,0,1,.24-.41l3-2.38a.7.7,0,0,1,.49-.17h6.44a.3.3,0,0,1,.34.34v1.43A.31.31,0,0,1,1579.27,661.74Z"/><path class="cls-4" d="M1595.3,674.83h-13.6a.47.47,0,0,1-.54-.54v-14.1c0-.37.17-.56.51-.56h13.65c.2,0,.3.14.3.34v1.43c0,.25-.1.34-.3.34h-11.93v11h11.93q.3,0,.3.36v1.41A.29.29,0,0,1,1595.3,674.83Z"/><path class="cls-4" d="M1599.62,674.9h-1.55c-.22,0-.37-.1-.37-.34V654.67a.31.31,0,0,1,.32-.35h1.6c.24,0,.34.13.34.37v19.87C1600,674.8,1599.86,674.9,1599.62,674.9Z"/><path class="cls-4" d="M1617.24,674.83H1603a.51.51,0,0,1-.57-.58V660.16c0-.36.18-.56.59-.56h14a.5.5,0,0,1,.57.54v7.56c0,.37-.2.54-.59.54H1604.7v4.52h12.57c.22,0,.37.1.37.34v1.36A.36.36,0,0,1,1617.24,674.83Zm-1.86-13.21H1604.7v5h10.68Z"/><path class="cls-4" d="M1626.57,664.83l-1.27,6.3a1.93,1.93,0,0,1-.15.39l-2.19,3.79c-.07.18-.19.2-.39.2h-1.74c-.15,0-.22,0-.22-.12a.25.25,0,0,1,.05-.17l2.47-4.23,1.28-6.35-1.28-6.38-2.47-4.2a.26.26,0,0,1-.05-.17c0-.1.07-.15.22-.15h1.76a.36.36,0,0,1,.37.24l2.19,3.82a1.2,1.2,0,0,1,.15.37l1.27,6.32a.31.31,0,0,1,0,.17A.38.38,0,0,1,1626.57,664.83Z"/><path class="cls-4" d="M1178.15,710.81h-1.59c-.25,0-.37-.09-.37-.34V690.8c0-.22.1-.34.37-.34h1.59c.27,0,.39.12.39.39v19.62C1178.54,710.72,1178.4,710.81,1178.15,710.81Z"/><path class="cls-4" d="M1197.35,710.84h-1.62a.52.52,0,0,1-.44-.2l-11.81-16.34v16.17c0,.25-.1.37-.34.37h-1.58c-.22,0-.34-.12-.34-.37V691a.41.41,0,0,1,.44-.47h1.45a.54.54,0,0,1,.42.22l12,16.52V690.77a.32.32,0,0,1,.37-.36h1.54a.35.35,0,0,1,.35.39v19.58A.43.43,0,0,1,1197.35,710.84Z"/><path class="cls-4" d="M1202.46,710.81h-1.6c-.24,0-.37-.09-.37-.34V690.8c0-.22.1-.34.37-.34h1.6c.27,0,.39.12.39.39v19.62C1202.85,710.72,1202.7,710.81,1202.46,710.81Z"/><path class="cls-4" d="M1222.07,710.89h-1.57c-.27,0-.34-.08-.34-.34v-7.5h-12.3v7.5c0,.24-.13.34-.37.34h-1.57c-.25,0-.37-.1-.37-.34V691.06c0-.39.17-.56.56-.56h15.77c.36,0,.56.2.56.61v19.44C1222.44,710.79,1222.34,710.89,1222.07,710.89Zm-1.91-18.17h-12.3v8.15h12.3Z"/><path class="cls-4" d="M1241.59,708.46l-2.21,2.16a.77.77,0,0,1-.49.17h-13.33c-.4,0-.59-.17-.59-.54V691a.51.51,0,0,1,.59-.58h13.38a.56.56,0,0,1,.46.19l2.19,2.19a.65.65,0,0,1,.22.46v14.69A.84.84,0,0,1,1241.59,708.46Zm-2.19-14.67-1.17-1.17h-11v16h11l1.17-1.14Z"/><path class="cls-4" d="M1266.41,710.86H1253c-.39,0-.56-.17-.56-.53V696.2a.48.48,0,0,1,.54-.54h13.48a.5.5,0,0,1,.56.54v14.13C1267,710.69,1266.78,710.86,1266.41,710.86Zm-1.65-13.08h-10.14v11h10.14Z"/><path class="cls-4" d="M1283.2,699.12h-8.49v11.45a.31.31,0,0,1-.35.34h-1.52c-.25,0-.37-.12-.37-.32V699.12H1269c-.22,0-.34-.13-.34-.37v-1.43a.31.31,0,0,1,.34-.35h3.51v-6c0-.37.17-.56.54-.56h9.7c.22,0,.34.12.34.36v1.39a.3.3,0,0,1-.34.34h-8V697h8.49a.33.33,0,0,1,.34.37v1.41A.33.33,0,0,1,1283.2,699.12Z"/><path class="cls-4" d="M1292.65,698.77h-3.85v10.56c0,.2-.13.32-.37.32H1287c-.24,0-.34-.1-.34-.3V698.77h-1.5c-.24,0-.37-.09-.37-.34v-1.58a.31.31,0,0,1,.35-.34h1.52v-5.74a.49.49,0,0,1,.54-.56h5.18c.25,0,.34.12.34.37V692c0,.22-.09.34-.34.34h-3.58v4.18h3.85a.31.31,0,0,1,.34.34v1.58C1293,698.68,1292.87,698.77,1292.65,698.77Zm3.54-5.35h-1.33c-.25,0-.34-.09-.34-.34v-2.5c0-.25.09-.37.32-.37h1.35c.22,0,.34.12.34.37v2.5A.31.31,0,0,1,1296.19,693.42Zm0,16.25h-1.33c-.25,0-.34-.12-.34-.32V695.08c0-.25.09-.37.32-.37h1.35a.33.33,0,0,1,.34.37v14.25A.31.31,0,0,1,1296.19,709.67Z"/><path class="cls-4" d="M1314.08,710.86h-13.6c-.37,0-.54-.17-.54-.53V696.22c0-.36.17-.56.52-.56h13.65c.19,0,.29.15.29.34v1.44c0,.24-.1.34-.29.34h-11.93v11h11.93c.19,0,.29.12.29.37v1.41A.28.28,0,0,1,1314.08,710.86Z"/><path class="cls-4" d="M1318.4,693h-1.57a.3.3,0,0,1-.34-.34v-2a.3.3,0,0,1,.32-.34h1.59c.25,0,.35.12.35.34v1.95C1318.75,692.89,1318.65,693,1318.4,693Zm0,17.88h-1.57c-.22,0-.34-.1-.34-.32V695.9a.31.31,0,0,1,.32-.34h1.59c.25,0,.35.15.35.37v14.62C1318.75,710.79,1318.65,710.89,1318.4,710.89Z"/><path class="cls-4" d="M1335.93,710.86h-14.21c-.37,0-.54-.17-.54-.53v-7.64a.49.49,0,0,1,.54-.56h12.52v-4.45h-12.72c-.24,0-.34-.1-.34-.34V696c0-.25.1-.34.34-.34H1336a.49.49,0,0,1,.54.56v14.1A.5.5,0,0,1,1335.93,710.86Zm-1.69-7.07h-10.76v5h10.76Z"/><path class="cls-4" d="M1340.89,710.94h-1.55a.31.31,0,0,1-.36-.35V690.7a.3.3,0,0,1,.31-.34h1.6c.25,0,.34.12.34.36v19.87C1341.23,710.84,1341.14,710.94,1340.89,710.94Z"/><path class="cls-4" d="M1368.31,692.74H1361v17.73c0,.25-.1.37-.37.37h-1.57c-.27,0-.37-.1-.37-.37V692.74h-7.12c-.25,0-.37-.12-.37-.39v-1.46c0-.26.1-.39.34-.39h16.77c.27,0,.37.13.37.39v1.46C1368.68,692.62,1368.58,692.74,1368.31,692.74Z"/><path class="cls-4" d="M1385.06,710.86h-14.22c-.39,0-.56-.19-.56-.58V696.2c0-.37.17-.56.59-.56h14a.5.5,0,0,1,.57.53v7.57c0,.36-.2.53-.59.53h-12.35v4.52h12.57c.22,0,.37.1.37.35v1.36A.35.35,0,0,1,1385.06,710.86Zm-1.87-13.2h-10.68v5h10.68Z"/><path class="cls-4" d="M1401.53,710.94H1400a.31.31,0,0,1-.35-.3V697.78h-9.77v12.81a.31.31,0,0,1-.34.35H1388c-.22,0-.34-.1-.34-.35V696.2a.48.48,0,0,1,.54-.54h13.11a.5.5,0,0,1,.56.54v14.39A.31.31,0,0,1,1401.53,710.94Z"/><path class="cls-4" d="M1418.05,710.94h-1.52a.31.31,0,0,1-.35-.3V697.78h-9.77v12.81a.31.31,0,0,1-.34.35h-1.55c-.22,0-.34-.1-.34-.35V696.2a.48.48,0,0,1,.54-.54h13.11a.5.5,0,0,1,.56.54v14.39A.31.31,0,0,1,1418.05,710.94Z"/><path class="cls-4" d="M1422.81,693h-1.57a.3.3,0,0,1-.34-.34v-2a.3.3,0,0,1,.31-.34h1.6c.25,0,.35.12.35.34v1.95C1423.16,692.89,1423.06,693,1422.81,693Zm0,17.88h-1.57c-.22,0-.34-.1-.34-.32V695.9a.3.3,0,0,1,.31-.34h1.6c.25,0,.35.15.35.37v14.62C1423.16,710.79,1423.06,710.89,1422.81,710.89Z"/><path class="cls-4" d="M1439.31,710.86h-13.43c-.22,0-.32-.09-.32-.34v-1.36c0-.24.1-.34.32-.34h11.83v-4.94H1426.1c-.37,0-.54-.14-.54-.53V696.2a.48.48,0,0,1,.52-.54h13.38a.33.33,0,0,1,.37.34v1.39c0,.24-.15.34-.37.34h-11.69v4.55h11.56c.42,0,.59.22.59.56v7.49C1439.92,710.69,1439.73,710.86,1439.31,710.86Z"/><path class="cls-4" d="M1453.18,701.81h-10.53c-.22,0-.35-.09-.35-.31V700c0-.22.1-.34.35-.34h10.55a.34.34,0,0,1,.35.34v1.46C1453.55,701.72,1453.42,701.81,1453.18,701.81Z"/><path class="cls-4" d="M1470.19,710.86h-13.6c-.37,0-.54-.17-.54-.53V696.22c0-.36.17-.56.52-.56h13.65c.19,0,.29.15.29.34v1.44c0,.24-.1.34-.29.34h-11.93v11h11.93c.19,0,.29.12.29.37v1.41A.28.28,0,0,1,1470.19,710.86Z"/><path class="cls-4" d="M1474.51,710.94H1473c-.23,0-.37-.1-.37-.35V690.7a.3.3,0,0,1,.32-.34h1.59c.25,0,.35.12.35.36v19.87C1474.86,710.84,1474.76,710.94,1474.51,710.94Z"/><path class="cls-4" d="M1490.64,710.86H1478c-.42,0-.59-.17-.59-.53V696c0-.25.1-.34.37-.34h1.5a.33.33,0,0,1,.36.36v12.77H1489V696c0-.25.15-.34.37-.34h1.5c.24,0,.34.09.34.36v14.33C1491.18,710.69,1491,710.86,1490.64,710.86Z"/><path class="cls-4" d="M1507.38,710.86h-13.3c-.39,0-.57-.17-.57-.53V690.8c0-.25.1-.34.35-.34h1.52c.22,0,.37.09.37.34v4.86h11.63a.5.5,0,0,1,.57.56v14.11C1508,710.69,1507.78,710.86,1507.38,710.86Zm-1.62-13.08h-10v11h10Z"/><path class="cls-4" d="M1178.15,746.85h-1.59c-.25,0-.37-.1-.37-.34V726.83c0-.22.1-.34.37-.34h1.59c.27,0,.39.12.39.39v19.63C1178.54,746.75,1178.4,746.85,1178.15,746.85Z"/><path class="cls-4" d="M1183.31,746.85h-1.6c-.24,0-.37-.1-.37-.34V726.83c0-.22.1-.34.37-.34h1.6c.27,0,.39.12.39.39v19.63C1183.7,746.75,1183.55,746.85,1183.31,746.85Z"/><path class="cls-4" d="M1202.51,746.87h-1.62a.53.53,0,0,1-.45-.19l-11.81-16.35v16.18c0,.24-.09.36-.34.36h-1.57c-.22,0-.34-.12-.34-.36V727a.4.4,0,0,1,.44-.46h1.45a.49.49,0,0,1,.41.22l12,16.51V726.81a.33.33,0,0,1,.37-.37h1.55a.35.35,0,0,1,.34.39v19.58A.42.42,0,0,1,1202.51,746.87Z"/><path class="cls-4" d="M1207.61,746.85H1206c-.25,0-.37-.1-.37-.34V726.83c0-.22.1-.34.37-.34h1.59c.27,0,.39.12.39.39v19.63C1208,746.75,1207.86,746.85,1207.61,746.85Z"/><path class="cls-4" d="M1227.23,746.92h-1.57c-.27,0-.35-.07-.35-.34v-7.49H1213v7.49c0,.25-.12.34-.37.34h-1.57c-.24,0-.37-.09-.37-.34V727.1c0-.39.18-.56.57-.56H1227c.37,0,.57.19.57.61v19.43C1227.6,746.83,1227.5,746.92,1227.23,746.92Zm-1.92-18.17H1213v8.15h12.3Z"/><path class="cls-4" d="M1246.74,744.49l-2.2,2.16a.74.74,0,0,1-.5.18h-13.33c-.39,0-.59-.18-.59-.54V727a.52.52,0,0,1,.59-.59h13.38a.55.55,0,0,1,.47.2l2.18,2.19a.61.61,0,0,1,.23.46V744A.8.8,0,0,1,1246.74,744.49Zm-2.18-14.67-1.18-1.16h-11v16h11l1.18-1.14Z"/><path class="cls-4" d="M1260.44,737.85h-10.53c-.22,0-.34-.1-.34-.32v-1.46a.3.3,0,0,1,.34-.34h10.56a.33.33,0,0,1,.34.34v1.46C1260.81,737.75,1260.69,737.85,1260.44,737.85Z"/><path class="cls-4" d="M1279.64,728.78h-13.9v6.88H1279a.3.3,0,0,1,.34.34v1.49a.33.33,0,0,1-.34.36h-13.29v8.73a.3.3,0,0,1-.34.34h-1.6c-.24,0-.36-.07-.36-.31V727.1a.49.49,0,0,1,.56-.56h15.64a.32.32,0,0,1,.37.36v1.49A.35.35,0,0,1,1279.64,728.78Z"/><path class="cls-4" d="M1298.17,746.83h-15.31c-.4,0-.62-.18-.62-.56V727.15a.54.54,0,0,1,.62-.61h15.31a.33.33,0,0,1,.37.36v1.49c0,.27-.12.36-.39.36h-13.6v6.67h12.82c.24,0,.36.12.36.39v1.41c0,.27-.12.39-.36.39h-12.82v7h13.62c.25,0,.37.1.37.34v1.48C1298.54,746.73,1298.42,746.83,1298.17,746.83Z"/><path class="cls-4" d="M1316.91,746.83h-15.64c-.25,0-.37-.1-.37-.35V745a.32.32,0,0,1,.37-.37h13.94v-6.93h-13.72c-.39,0-.59-.15-.59-.54v-10a.51.51,0,0,1,.56-.58H1317c.27,0,.37.12.37.34v1.51c0,.27-.13.36-.37.36h-13.8v6.81h13.7a.51.51,0,0,1,.57.56v10.12A.52.52,0,0,1,1316.91,746.83Z"/><path class="cls-4" d="M1349.78,741.52h-13.46l-4.88,5.67a.57.57,0,0,1-.42.19h-2.09c-.14,0-.19,0-.19-.09a.31.31,0,0,1,.07-.15l4.84-5.62h-5.16a.3.3,0,0,1-.34-.34v-1c0-.24.1-.36.32-.36h6.65l2.11-2.44h-7c-.22,0-.35-.07-.35-.34v-1a.31.31,0,0,1,.35-.34h7.9v-2.28h-8.64c-.25,0-.34-.13-.34-.37v-1c0-.22.07-.34.32-.34h8.66v-1.88c0-.22.1-.34.37-.34h1.4c.22,0,.34.12.34.37v1.85h8.62c.25,0,.35.12.35.36v1c0,.24-.1.37-.37.37h-8.6v2.28h8a.3.3,0,0,1,.34.34v1c0,.25-.1.34-.37.34h-8.22l-2.09,2.44h12a.32.32,0,0,1,.34.36v1A.31.31,0,0,1,1349.78,741.52Zm-.22-10.38h-1.35c-.25,0-.35-.1-.35-.34v-2.24h-17.43v2.24c0,.22-.12.34-.37.34h-1.35a.3.3,0,0,1-.34-.34v-3.58a.49.49,0,0,1,.54-.56h9.16v-.83c0-.24.1-.36.37-.36h1.42c.25,0,.34.12.34.36v.83h9.14a.5.5,0,0,1,.56.56v3.58A.31.31,0,0,1,1349.56,731.14Zm-.22,16.24h-2.09a.7.7,0,0,1-.47-.19l-4.93-4.5c-.08-.07-.1-.12-.1-.17s.07-.1.22-.1H1344a.67.67,0,0,1,.45.22l5,4.5c.08.07.1.12.1.17S1349.46,747.38,1349.34,747.38Z"/><path class="cls-4" d="M1358.93,731.92l-3.46,5.64h1.23a.33.33,0,0,1,.37.34v9.17a.33.33,0,0,1-.37.36h-1.4a.33.33,0,0,1-.37-.34v-8.66l-.86,1.39a.43.43,0,0,1-.39.22H1352c-.15,0-.22,0-.22-.15a.19.19,0,0,1,0-.14l4.89-7.91a.47.47,0,0,1,.37-.24h1.69c.15,0,.22.07.22.17A.3.3,0,0,1,1358.93,731.92Zm-.22-6.09-4.46,7.4a.45.45,0,0,1-.4.22h-1.72c-.17,0-.24-.05-.24-.12a.29.29,0,0,1,.07-.17l4.5-7.4a.55.55,0,0,1,.41-.24h1.67c.15,0,.22.05.22.14A.25.25,0,0,1,1358.71,725.83Zm15.86,8.69h-3v12.35a.52.52,0,0,1-.59.56h-6.09c-.27,0-.34-.09-.34-.36v-1.32c0-.21.07-.31.32-.31h4.51V734.52h-9.15c-.25,0-.35-.12-.35-.34v-1.34c0-.24.08-.34.3-.34h14.43c.22,0,.32.12.32.34v1.31C1374.89,734.4,1374.79,734.52,1374.57,734.52Zm-.68-6.52H1361c-.25,0-.37-.1-.37-.32v-1.33a.32.32,0,0,1,.37-.37h12.91a.33.33,0,0,1,.34.37v1.33C1374.25,727.9,1374.13,728,1373.89,728Z"/><path class="cls-4" d="M1399.05,731.43h-8l7.93,3.28a.41.41,0,0,1,.27.39v1.12c0,.17-.07.29-.17.29a.3.3,0,0,1-.15,0l-9.57-4.23V736a.31.31,0,0,1-.35.34h-1.52c-.24,0-.37-.1-.37-.34v-3.72l-9.57,4.18a.3.3,0,0,1-.15,0c-.12,0-.17-.12-.17-.29V735.1a.41.41,0,0,1,.27-.39l8-3.28h-8.15c-.24,0-.37-.12-.37-.34v-1c0-.22.1-.34.37-.34h9.72v-2.21l-9,.41c-.22,0-.32-.1-.32-.34v-.95c0-.24.1-.36.32-.36l20.18-.93a.3.3,0,0,1,.34.34v.9a.33.33,0,0,1-.34.37l-9,.43v2.34h9.72c.25,0,.37.12.37.34v1A.33.33,0,0,1,1399.05,731.43Zm0,8.29h-2v3c0,.2-.07.3-.24.34l-4.91,1.17,7,1.51c.17,0,.27.15.27.29v1.15c0,.19-.07.31-.25.31l-10.63-2.31-10.7,2.48c-.12,0-.2-.12-.2-.27v-1.14a.28.28,0,0,1,.22-.32l7.17-1.65-5.92-1.31c-.14,0-.22-.1-.22-.17a.27.27,0,0,1,.08-.17l1.94-2.9h-3.22c-.24,0-.37-.07-.37-.34v-1.07a.31.31,0,0,1,.35-.34h4.42l1.25-1.9a.45.45,0,0,1,.39-.21h1.77c.15,0,.22,0,.22.12a.34.34,0,0,1-.07.19l-1.13,1.8h14.85c.22,0,.34.12.34.37v1A.3.3,0,0,1,1399.05,739.72Zm-4.22-.07h-11.69l-1.47,2.29,6.65,1.48,6.51-1.53Z"/><path class="cls-4" d="M1422.59,744.78h-1.13l1.45,2.26a.58.58,0,0,1,0,.17c0,.1-.07.13-.22.13H1421a.38.38,0,0,1-.39-.22l-1.43-2.34h-12.72l-1.45,2.34a.4.4,0,0,1-.36.22h-1.87c-.15,0-.22,0-.22-.13s0-.07,0-.14l1.45-2.29h-1.11c-.36,0-.56-.17-.56-.53V733.38a.49.49,0,0,1,.56-.54h19.72a.49.49,0,0,1,.56.54v10.87C1423.18,744.61,1423,744.78,1422.59,744.78Zm-.71-13.59h-18.26a.47.47,0,0,1-.54-.54v-4.16a.49.49,0,0,1,.54-.56h18.26a.52.52,0,0,1,.57.59v4.11A.5.5,0,0,1,1421.88,731.19Zm-.81,3.16h-16.65v2h16.65Zm0,3.45h-16.65v2h16.65Zm0,3.43h-16.65v2h16.65Zm-.71-13.74h-15.2v2.14h15.2Z"/><path class="cls-4" d="M1448.47,733.13a.45.45,0,0,1-.17,0l-11-5.86-11,5.86-.14,0c-.1,0-.15-.07-.15-.24v-1.63a.39.39,0,0,1,.22-.37l10-5.37a1.18,1.18,0,0,1,.42-.1h1.3a1,1,0,0,1,.37.1l10,5.37a.38.38,0,0,1,.25.37v1.63C1448.62,733.06,1448.57,733.13,1448.47,733.13Zm-.52,7.27h-15.49l-2.67,4.63h15.41l-1.49-3.65a.58.58,0,0,1,0-.17c0-.1.09-.17.29-.17h1.65a.33.33,0,0,1,.34.26l2.16,5.4a.47.47,0,0,1,0,.15c0,.12-.07.17-.24.17h-20.13c-.4,0-.57-.17-.57-.56v-1.22a.78.78,0,0,1,.1-.39l2.6-4.45h-3.21c-.25,0-.35-.12-.35-.34v-1.24c0-.22.1-.34.32-.34H1448a.33.33,0,0,1,.35.34v1.24A.31.31,0,0,1,1448,740.4Zm-2.06-5.3h-17.11c-.25,0-.35-.12-.35-.34v-1.19c0-.22.1-.34.32-.34h17.14a.33.33,0,0,1,.37.36v1.17A.33.33,0,0,1,1445.89,735.1Z"/><path class="cls-4" d="M1178.15,782.88h-1.59c-.25,0-.37-.09-.37-.34V762.87c0-.22.1-.34.37-.34h1.59c.27,0,.39.12.39.39v19.62C1178.54,782.79,1178.4,782.88,1178.15,782.88Z"/><path class="cls-4" d="M1197.35,782.91h-1.62a.52.52,0,0,1-.44-.2l-11.81-16.34v16.17c0,.25-.1.37-.34.37h-1.58c-.22,0-.34-.12-.34-.37V763a.41.41,0,0,1,.44-.47h1.45a.54.54,0,0,1,.42.22l12,16.52V762.84a.32.32,0,0,1,.37-.36h1.54a.35.35,0,0,1,.35.39v19.58A.43.43,0,0,1,1197.35,782.91Z"/><path class="cls-4" d="M1202.46,782.88h-1.6c-.24,0-.37-.09-.37-.34V762.87c0-.22.1-.34.37-.34h1.6c.27,0,.39.12.39.39v19.62C1202.85,782.79,1202.7,782.88,1202.46,782.88Z"/><path class="cls-4" d="M1222.07,783h-1.57c-.27,0-.34-.08-.34-.34v-7.5h-12.3v7.5c0,.24-.13.34-.37.34h-1.57c-.25,0-.37-.1-.37-.34V763.13c0-.39.17-.56.56-.56h15.77c.36,0,.56.2.56.61v19.44C1222.44,782.86,1222.34,783,1222.07,783Zm-1.91-18.17h-12.3v8.15h12.3Z"/><path class="cls-4" d="M1241.59,780.52l-2.21,2.17a.77.77,0,0,1-.49.17h-13.33c-.4,0-.59-.17-.59-.54V763.06a.51.51,0,0,1,.59-.58h13.38a.56.56,0,0,1,.46.19l2.19,2.19a.65.65,0,0,1,.22.46V780A.79.79,0,0,1,1241.59,780.52Zm-2.19-14.66-1.17-1.17h-11v16h11l1.17-1.14Z"/><path class="cls-4" d="M1287.87,782.91h-1.58c-.22,0-.32-.12-.32-.37V766.39l-6.4,12.36a.54.54,0,0,1-.47.22h-1.18a.45.45,0,0,1-.42-.22l-6.4-12.36v16.15c0,.25-.1.37-.32.37h-1.57c-.22,0-.32-.12-.32-.37V763a.43.43,0,0,1,.44-.48H1271a.64.64,0,0,1,.56.29l7,13.3,6.88-13.28a.6.6,0,0,1,.61-.31h1.67c.3,0,.44.14.44.48v19.53C1288.18,782.79,1288.09,782.91,1287.87,782.91Z"/><path class="cls-4" d="M1292.73,765.08h-1.58a.3.3,0,0,1-.34-.34v-2a.3.3,0,0,1,.32-.34h1.6a.3.3,0,0,1,.34.34v1.94C1293.07,765,1293,765.08,1292.73,765.08Zm0,17.88h-1.58c-.22,0-.34-.1-.34-.32V768a.3.3,0,0,1,.32-.34h1.6c.24,0,.34.15.34.37v14.62C1293.07,782.86,1293,783,1292.73,783Z"/><path class="cls-4" d="M1309.44,783h-1.52c-.22,0-.34-.12-.34-.29V769.85h-9.77v12.81a.31.31,0,0,1-.35.34h-1.54c-.22,0-.35-.09-.35-.34V768.27a.48.48,0,0,1,.54-.54h13.11a.5.5,0,0,1,.57.54v14.39A.31.31,0,0,1,1309.44,783Z"/><path class="cls-4" d="M1326.87,782.93h-14.21c-.39,0-.57-.19-.57-.58V768.27c0-.37.18-.56.59-.56h14a.5.5,0,0,1,.57.53v7.57c0,.36-.2.53-.59.53h-12.35v4.52h12.57c.22,0,.37.1.37.35v1.36A.35.35,0,0,1,1326.87,782.93ZM1325,769.72h-10.68v5H1325Z"/><path class="cls-4" d="M1343.62,782.93H1330c-.37,0-.55-.17-.55-.53V768.29c0-.37.18-.56.52-.56h13.65a.3.3,0,0,1,.3.34v1.44c0,.24-.1.34-.3.34h-11.93v11h11.93c.2,0,.3.12.3.37v1.41A.28.28,0,0,1,1343.62,782.93Z"/><path class="cls-4" d="M1356,769.85h-6.09l-1.82,1.41v11.4a.32.32,0,0,1-.37.34h-1.52c-.22,0-.34-.09-.34-.34v-12a.55.55,0,0,1,.24-.42l3-2.38a.67.67,0,0,1,.49-.17H1356a.3.3,0,0,1,.34.34v1.44A.31.31,0,0,1,1356,769.85Z"/><path class="cls-4" d="M1372.56,782.93h-14.22a.47.47,0,0,1-.54-.53v-7.64a.49.49,0,0,1,.54-.56h12.53v-4.45h-12.72c-.25,0-.35-.1-.35-.34v-1.36c0-.25.1-.34.35-.34h14.43c.35,0,.54.17.54.56v14.1A.49.49,0,0,1,1372.56,782.93Zm-1.69-7.08h-10.76v5h10.76Z"/><path class="cls-4" d="M1389.33,771.18h-8.5v11.46a.31.31,0,0,1-.34.34H1379c-.25,0-.37-.12-.37-.32V771.18h-3.51a.32.32,0,0,1-.35-.36v-1.44a.32.32,0,0,1,.35-.34h3.51v-6a.48.48,0,0,1,.54-.55h9.7c.22,0,.34.12.34.36v1.39a.3.3,0,0,1-.34.34h-8V769h8.5a.33.33,0,0,1,.34.37v1.41A.33.33,0,0,1,1389.33,771.18Z"/><path class="cls-4" d="M1402.56,769.87h-6.29v11h5.92c.2,0,.3.1.3.34v1.41c0,.24-.1.34-.32.34h-7.79a.31.31,0,0,1-.34-.34V769.87h-3c-.25,0-.37-.1-.37-.34V768.1a.32.32,0,0,1,.35-.35h3v-2.6a.3.3,0,0,1,.32-.34h1.57c.25,0,.34.12.34.34v2.6h6.29a.31.31,0,0,1,.32.35v1.43C1402.88,769.77,1402.76,769.87,1402.56,769.87Z"/><path class="cls-4" d="M1459.1,767.15h-1.62v15.13c0,.41-.17.6-.62.6h-17.11c-.22,0-.34-.09-.34-.31v-1.49a.3.3,0,0,1,.34-.34h15.49V767.15h-13.52v9.14c0,.25-.13.34-.37.34h-1.5c-.25,0-.37-.07-.37-.31v-9.17h-1.74a.31.31,0,0,1-.35-.34V765.3a.32.32,0,0,1,.35-.37h1.74v-2.62c0-.25.1-.37.35-.37h1.52c.24,0,.37.12.37.39v2.6h13.52v-2.62c0-.25.1-.37.35-.37h1.52a.33.33,0,0,1,.37.37v2.62h1.67c.22,0,.32.12.32.37v1.51C1459.47,767,1459.37,767.15,1459.1,767.15Z"/><path class="cls-4" d="M1482.17,773.62h-18.41c-.24,0-.34-.12-.34-.37v-1.58c0-.24.1-.36.34-.36h18.41a.32.32,0,0,1,.35.36v1.58C1482.52,773.5,1482.4,773.62,1482.17,773.62Z"/><path class="cls-4" d="M1506.82,782.88h-18.07c-.24,0-.34-.09-.34-.34v-1.43c0-.25.1-.37.32-.37h16.42V765.59h-14.07v6.35a.56.56,0,0,1-.63.61H1487a.3.3,0,0,1-.34-.34v-1.39c0-.22.09-.32.34-.32h1.89V764c0-.39.17-.56.52-.56h17.43a.49.49,0,0,1,.56.56v18.24C1507.41,782.71,1507.22,782.88,1506.82,782.88Z"/><path class="cls-4" d="M1515,782.86h-3.71c-.24,0-.36-.1-.36-.32V781c0-.24.1-.34.34-.34h2.09V762.72c0-.22.1-.34.32-.34h1.57c.24,0,.37.12.37.34v19.53C1515.59,782.69,1515.39,782.86,1515,782.86Zm16.87,0h-11.27c-.39,0-.57-.17-.57-.54v-19.6c0-.22.1-.34.35-.34h1.55a.32.32,0,0,1,.34.34v18h8v-10a.3.3,0,0,1,.34-.34h1.47c.25,0,.35.12.35.34v11.56C1532.43,782.69,1532.26,782.86,1531.84,782.86Z"/><path class="cls-4" d="M1192.2,818.94h-1.62a.56.56,0,0,1-.45-.19l-11.81-16.35v16.18c0,.24-.09.36-.34.36h-1.57c-.22,0-.34-.12-.34-.36V799.07a.4.4,0,0,1,.44-.46H1178a.49.49,0,0,1,.41.22l12,16.51V798.88a.33.33,0,0,1,.37-.37h1.55a.35.35,0,0,1,.34.39v19.58A.42.42,0,0,1,1192.2,818.94Z"/><path class="cls-4" d="M1209.11,819h-13.45c-.4,0-.57-.17-.57-.54V804.3a.47.47,0,0,1,.54-.53h13.48a.49.49,0,0,1,.56.53v14.13C1209.67,818.8,1209.48,819,1209.11,819Zm-1.65-13.09h-10.13v11h10.13Z"/><path class="cls-4" d="M1226.66,819h-14.21a.47.47,0,0,1-.54-.54v-7.64a.48.48,0,0,1,.54-.55H1225v-4.46h-12.72c-.24,0-.34-.09-.34-.34v-1.36c0-.24.1-.34.34-.34h14.44a.49.49,0,0,1,.54.56v14.11A.5.5,0,0,1,1226.66,819Zm-1.69-7.08h-10.76v5H1225Z"/><path class="cls-4" d="M1243.18,819h-1.54c-.25,0-.35-.1-.35-.32V805.86h-9.55V818.7c0,.22-.14.32-.39.32h-1.47c-.25,0-.37-.1-.37-.32V798.85c0-.24.1-.34.32-.34h1.52c.25,0,.39.12.39.34v4.89H1243c.37,0,.54.2.54.59V818.7C1243.5,818.92,1243.41,819,1243.18,819Z"/><path class="cls-4" d="M1245.64,805a37.26,37.26,0,0,0,1.57-6.23l2.18-.27a31.75,31.75,0,0,1-2.43,6.33Z"/><path class="cls-4" d="M1277.11,819h-13.43c-.22,0-.32-.1-.32-.34v-1.37c0-.24.1-.34.32-.34h11.84V812H1263.9c-.36,0-.54-.15-.54-.54V804.3a.47.47,0,0,1,.52-.53h13.38a.33.33,0,0,1,.37.34v1.38c0,.25-.15.34-.37.34h-11.69v4.55h11.57a.52.52,0,0,1,.59.56v7.49C1277.73,818.8,1277.53,819,1277.11,819Z"/><path class="cls-4" d="M1296.58,819H1295c-.27,0-.34-.07-.34-.34v-7.49h-12.3v7.49c0,.24-.13.34-.37.34h-1.58c-.24,0-.36-.1-.36-.34V799.17c0-.39.17-.56.56-.56h15.76c.37,0,.57.19.57.61v19.43C1297,818.89,1296.85,819,1296.58,819Zm-1.91-18.17h-12.3V809h12.3Z"/><path class="cls-4" d="M1309.52,805.88h-6.09l-1.82,1.41V818.7a.33.33,0,0,1-.37.34h-1.52a.3.3,0,0,1-.34-.34v-12a.55.55,0,0,1,.24-.41l3-2.38a.7.7,0,0,1,.49-.17h6.44a.3.3,0,0,1,.34.34v1.43A.31.31,0,0,1,1309.52,805.88Z"/><path class="cls-4" d="M1325.65,818.89h-2.09a.53.53,0,0,1-.49-.19l-7-7.27h-2.4v7.25c0,.24-.1.34-.35.34h-1.52c-.22,0-.34-.1-.34-.32V798.85c0-.22.09-.34.34-.34h1.52c.25,0,.35.12.35.34v10.44h2.45l6.48-5.4a.66.66,0,0,1,.54-.2h2.07c.17,0,.27,0,.27.15s0,.12-.13.22l-7.53,6.27,8,8.22a.54.54,0,0,1,.12.22C1325.89,818.85,1325.79,818.89,1325.65,818.89Z"/><path class="cls-4" d="M1178.15,855h-1.59c-.25,0-.37-.09-.37-.34V834.94c0-.22.1-.35.37-.35h1.59a.34.34,0,0,1,.39.39v19.63C1178.54,854.86,1178.4,855,1178.15,855Z"/><path class="cls-4" d="M1197.35,855h-1.62a.52.52,0,0,1-.44-.2l-11.81-16.34v16.17c0,.25-.1.37-.34.37h-1.58c-.22,0-.34-.12-.34-.37v-19.5a.41.41,0,0,1,.44-.47h1.45a.54.54,0,0,1,.42.22l12,16.52V834.91a.32.32,0,0,1,.37-.36h1.54a.35.35,0,0,1,.35.39v19.57A.43.43,0,0,1,1197.35,855Z"/><path class="cls-4" d="M1202.46,855h-1.6c-.24,0-.37-.09-.37-.34V834.94c0-.22.1-.35.37-.35h1.6a.34.34,0,0,1,.39.39v19.63C1202.85,854.86,1202.7,855,1202.46,855Z"/><path class="cls-4" d="M1222.07,855h-1.57c-.27,0-.34-.08-.34-.34v-7.5h-12.3v7.5c0,.24-.13.34-.37.34h-1.57c-.25,0-.37-.1-.37-.34V835.2c0-.39.17-.56.56-.56h15.77c.36,0,.56.2.56.61v19.44C1222.44,854.93,1222.34,855,1222.07,855Zm-1.91-18.17h-12.3V845h12.3Z"/><path class="cls-4" d="M1241.59,852.59l-2.21,2.17a.77.77,0,0,1-.49.17h-13.33c-.4,0-.59-.17-.59-.54V835.13a.51.51,0,0,1,.59-.58h13.38a.53.53,0,0,1,.46.19l2.19,2.19a.65.65,0,0,1,.22.46v14.69A.79.79,0,0,1,1241.59,852.59Zm-2.19-14.66-1.17-1.17h-11v16h11l1.17-1.14Z"/><path class="cls-4" d="M1269.13,852.59l-2.21,2.17a.75.75,0,0,1-.49.17H1253.1c-.39,0-.59-.17-.59-.54V835.13a.52.52,0,0,1,.59-.58h13.38a.54.54,0,0,1,.47.19l2.18,2.19a.62.62,0,0,1,.22.46v14.69A.75.75,0,0,1,1269.13,852.59ZM1267,837.93l-1.18-1.17h-11v16h11l1.18-1.14Z"/><path class="cls-4" d="M1286.54,855h-14.22c-.39,0-.56-.19-.56-.58V840.33c0-.36.17-.55.59-.55h14a.49.49,0,0,1,.56.53v7.57c0,.36-.2.53-.59.53H1274v4.52h12.57c.22,0,.37.1.37.34v1.37A.35.35,0,0,1,1286.54,855Zm-1.87-13.21H1274v5h10.68Z"/><path class="cls-4" d="M1304.36,840.12,1299,854.71c-.09.24-.24.29-.49.29h-4a.41.41,0,0,1-.47-.29l-5.32-14.59a.58.58,0,0,1,0-.17c0-.15.12-.22.29-.22h1.7a.37.37,0,0,1,.39.26l4.64,12.9h1.69L1302,840a.33.33,0,0,1,.37-.26h1.72c.19,0,.27,0,.27.22A.43.43,0,0,1,1304.36,840.12Z"/><path class="cls-4" d="M1321,855h-14.21c-.4,0-.57-.19-.57-.58V840.33c0-.36.17-.55.59-.55h14a.49.49,0,0,1,.56.53v7.57c0,.36-.19.53-.59.53h-12.35v4.52h12.57c.23,0,.37.1.37.34v1.37A.35.35,0,0,1,1321,855Zm-1.87-13.21h-10.68v5h10.68Z"/><path class="cls-4" d="M1325.74,855.07h-1.54c-.23,0-.37-.09-.37-.34V834.84a.3.3,0,0,1,.32-.34h1.59c.25,0,.35.12.35.36v19.87C1326.09,855,1326,855.07,1325.74,855.07Z"/><path class="cls-4" d="M1342.61,855h-13.45c-.4,0-.57-.17-.57-.53V840.33a.47.47,0,0,1,.54-.53h13.48a.49.49,0,0,1,.56.53v14.14C1343.17,854.83,1343,855,1342.61,855ZM1341,841.92h-10.14v11H1341Z"/><path class="cls-4" d="M1358.76,855h-11v2.41c0,.24-.12.32-.35.32h-1.54c-.22,0-.35-.08-.35-.3V840.29q0-.51.54-.51h12.72c.37,0,.54.17.54.53v14.16C1359.3,854.86,1359.11,855,1358.76,855Zm-1.67-13.13h-9.35v11h9.35Z"/><path class="cls-4" d="M1376.36,855h-14.21c-.39,0-.57-.19-.57-.58V840.33c0-.36.18-.55.59-.55h14a.5.5,0,0,1,.57.53v7.57c0,.36-.2.53-.59.53h-12.35v4.52h12.57c.22,0,.37.1.37.34v1.37A.35.35,0,0,1,1376.36,855Zm-1.86-13.21h-10.68v5h10.68Z"/><path class="cls-4" d="M1389.13,841.92H1383l-1.82,1.41v11.4a.32.32,0,0,1-.36.34h-1.53c-.22,0-.34-.09-.34-.34v-12a.53.53,0,0,1,.25-.42l3-2.38a.67.67,0,0,1,.49-.17h6.43c.25,0,.34.12.34.34v1.44A.31.31,0,0,1,1389.13,841.92Z"/><path class="cls-4" d="M1404.67,855h-13.43c-.22,0-.32-.1-.32-.34V853.3c0-.24.1-.34.32-.34h11.83V848h-11.61c-.37,0-.54-.14-.54-.53v-7.16a.47.47,0,0,1,.52-.53h13.38a.33.33,0,0,1,.37.34v1.39c0,.24-.15.34-.37.34h-11.69v4.55h11.56c.42,0,.59.21.59.55v7.5C1405.28,854.83,1405.09,855,1404.67,855Z"/><path class="cls-4" d="M1185.54,873.21H1182v2h3.12a.51.51,0,0,1,.57.58v9c0,.36-.2.53-.57.53H1182v2.1h3.49c.22,0,.34.12.34.36v1c0,.25-.12.34-.37.34H1182v2.05a.3.3,0,0,1-.34.34h-1.2c-.23,0-.35-.1-.35-.34v-2.05h-3.68c-.25,0-.34-.09-.34-.34v-1c0-.24.09-.36.34-.36h3.68v-2.1H1177c-.39,0-.57-.17-.57-.53v-9a.49.49,0,0,1,.54-.56h3.12v-2h-3.68c-.25,0-.34-.12-.34-.34v-1c0-.22.09-.34.34-.34h3.68V870a.32.32,0,0,1,.35-.36h1.2a.33.33,0,0,1,.34.36v1.44h3.59c.22,0,.34.12.34.36v1A.32.32,0,0,1,1185.54,873.21Zm-5.28,3.72H1178v2.63h2.28Zm0,4.11H1178v2.58h2.28Zm3.88-4.11h-2.31v2.63h2.31Zm0,4.11h-2.31v2.58h2.31Zm13.46,10.14h-11c-.24,0-.36-.1-.36-.34v-1.22a.3.3,0,0,1,.34-.31h4.62V885.1h-4c-.22,0-.35-.07-.35-.34v-1.19c0-.24.1-.37.35-.37h4v-2.55a.3.3,0,0,1,.34-.34h1.25c.25,0,.37.12.37.34v2.55H1197a.34.34,0,0,1,.37.37v1.19c0,.24-.13.34-.4.34h-3.8v4.21h4.47a.31.31,0,0,1,.34.31v1.22A.32.32,0,0,1,1197.6,891.18Zm.22-10a.29.29,0,0,1-.17-.07l-5.48-3.65-5.11,3.72a.26.26,0,0,1-.14.08c-.08,0-.13-.08-.13-.22v-1.61a.49.49,0,0,1,.2-.39l3.56-2.65-2.11-1.41a.49.49,0,0,1-.22-.41v-1.51c0-.14,0-.22.1-.22a.32.32,0,0,1,.17.08l3.56,2.35,3.44-2.6v-.73h-8.35a.31.31,0,0,1-.35-.34v-1.19c0-.24.1-.37.35-.37h9.67a.52.52,0,0,1,.57.59v2.77a.47.47,0,0,1-.22.42l-3.44,2.52,4,2.63a.54.54,0,0,1,.25.41V881Q1198,881.18,1197.82,881.18Z"/><path class="cls-4" d="M1222.25,878.9h-21.32c-.24,0-.34-.1-.34-.34v-1.19c0-.25.1-.37.32-.37h4v-4.16h-3.34c-.25,0-.34-.12-.34-.34v-1.19c0-.24.09-.34.34-.34h8.89v-1c0-.22.09-.34.34-.34h1.47c.25,0,.37.12.37.34v1h9a.3.3,0,0,1,.34.34v1.19c0,.22-.1.34-.37.34h-3.26V877h3.93c.22,0,.34.12.34.37v1.19A.3.3,0,0,1,1222.25,878.9ZM1221,891.21h-18.83a.47.47,0,0,1-.54-.54v-9c0-.36.15-.56.54-.56H1221c.37,0,.54.2.54.59v8.95C1221.53,891,1221.36,891.21,1221,891.21Zm-1.62-8.42h-15.57v2.6h15.57Zm0,4.11h-15.57v2.63h15.57Zm-3.19-14.06h-9.11V877h9.11Z"/><path class="cls-4" d="M1246.84,875.25h-1.62v15.13c0,.41-.17.61-.61.61H1227.5c-.22,0-.35-.1-.35-.32v-1.48c0-.22.1-.34.35-.34H1243v-13.6h-13.53v9.15c0,.24-.12.34-.37.34h-1.49c-.25,0-.37-.08-.37-.32v-9.17h-1.75a.31.31,0,0,1-.34-.34V873.4c0-.24.12-.36.34-.36h1.75v-2.63c0-.24.1-.37.34-.37h1.52c.25,0,.37.13.37.39V873H1243v-2.63c0-.24.1-.37.34-.37h1.53a.33.33,0,0,1,.36.37V873h1.67c.22,0,.32.12.32.36v1.51C1247.21,875.13,1247.11,875.25,1246.84,875.25Z"/><path class="cls-4" d="M1269.92,881.72h-18.41c-.25,0-.35-.12-.35-.36v-1.59c0-.24.1-.36.35-.36h18.41c.22,0,.34.12.34.36v1.59C1270.26,881.6,1270.14,881.72,1269.92,881.72Z"/><path class="cls-4" d="M1294.57,891H1276.5c-.25,0-.34-.1-.34-.34v-1.44c0-.24.09-.36.31-.36h16.43V873.69h-14.07V880a.56.56,0,0,1-.64.61h-3.43a.3.3,0,0,1-.35-.34v-1.39c0-.22.1-.31.35-.31h1.89v-6.5c0-.39.17-.56.51-.56h17.43a.5.5,0,0,1,.57.56v18.24C1295.16,890.82,1295,891,1294.57,891Z"/><path class="cls-4" d="M1302.72,891H1299c-.24,0-.37-.09-.37-.31v-1.54c0-.24.1-.34.35-.34h2.08V870.82c0-.22.1-.34.32-.34H1303c.25,0,.37.12.37.34v19.53C1303.33,890.79,1303.14,891,1302.72,891Zm16.86,0h-11.26c-.4,0-.57-.17-.57-.53V870.82a.3.3,0,0,1,.34-.34h1.55a.33.33,0,0,1,.35.34v18h8v-10c0-.25.13-.34.35-.34h1.47c.25,0,.34.12.34.34v11.55C1320.17,890.79,1320,891,1319.58,891Z"/><path class="cls-4" d="M1346.15,890.91h-16.06c-.39,0-.56-.17-.56-.53V871.21c0-.36.17-.58.54-.58h16.1a.52.52,0,0,1,.57.58v7.08a.64.64,0,0,1-.25.54l-1.91,1.55,1.91,1.56a.61.61,0,0,1,.25.51v7.93C1346.74,890.74,1346.52,890.91,1346.15,890.91Zm-1.82-18.12h-12.5v6.57h11l1.52-1.19Zm0,9.85-1.55-1.26h-11v7.42h12.5Z"/><path class="cls-4" d="M1365.57,872.92h-7.32v17.73c0,.24-.1.36-.37.36h-1.57c-.27,0-.37-.1-.37-.36V872.92h-7.12c-.24,0-.37-.13-.37-.39v-1.46c0-.27.1-.39.35-.39h16.77c.27,0,.37.12.37.39v1.46C1365.94,872.79,1365.84,872.92,1365.57,872.92Z"/><path class="cls-4" d="M1383.1,891h-14.88c-.4,0-.57-.17-.57-.58V871c0-.27.1-.42.37-.42h1.6c.22,0,.34.15.34.42V888.8h13.16c.22,0,.34.12.34.36v1.46C1383.46,890.84,1383.34,891,1383.1,891Z"/><path class="cls-4" d="M1192.34,909H1185v17.73c0,.24-.1.37-.37.37h-1.57c-.27,0-.37-.1-.37-.37V909h-7.12c-.25,0-.37-.12-.37-.39V907.1c0-.27.1-.39.34-.39h16.77c.27,0,.37.12.37.39v1.46C1192.71,908.83,1192.61,909,1192.34,909Z"/><path class="cls-4" d="M1208,927.12h-1.55c-.24,0-.34-.1-.34-.32V914h-9.55V926.8c0,.22-.15.32-.39.32h-1.48c-.24,0-.36-.1-.36-.32V907c0-.25.09-.34.31-.34h1.53c.24,0,.39.12.39.34v4.88h11.22c.37,0,.54.2.54.59V926.8A.28.28,0,0,1,1208,927.12Z"/><path class="cls-4" d="M1225.39,927.07h-14.22c-.39,0-.56-.19-.56-.58V912.4c0-.36.17-.56.59-.56h14a.5.5,0,0,1,.57.54v7.56c0,.37-.2.54-.59.54h-12.35V925h12.57c.22,0,.37.1.37.34v1.37A.36.36,0,0,1,1225.39,927.07Zm-1.87-13.21h-10.68v5h10.68Z"/><path class="cls-4" d="M1268.57,927h-15.64c-.25,0-.37-.1-.37-.34v-1.51a.33.33,0,0,1,.37-.37h14v-6.93h-13.73c-.39,0-.59-.14-.59-.53v-10a.52.52,0,0,1,.57-.59h15.56c.27,0,.37.12.37.34v1.51c0,.27-.12.37-.37.37h-13.8v6.81h13.7a.5.5,0,0,1,.57.56v10.11C1269.16,926.83,1269,927,1268.57,927Z"/><path class="cls-4" d="M1285.17,927.12h-1.55c-.25,0-.35-.1-.35-.32V914h-9.55V926.8c0,.22-.14.32-.39.32h-1.47c-.25,0-.37-.1-.37-.32V907c0-.25.1-.34.32-.34h1.52c.25,0,.39.12.39.34v4.88h11.22c.37,0,.54.2.54.59V926.8C1285.48,927,1285.39,927.12,1285.17,927.12Z"/><path class="cls-4" d="M1302.47,927.07h-14.21c-.37,0-.54-.17-.54-.53V918.9c0-.37.17-.56.54-.56h12.52v-4.45h-12.72c-.24,0-.34-.1-.34-.34v-1.36c0-.25.1-.35.34-.35h14.44a.49.49,0,0,1,.54.56v14.11A.5.5,0,0,1,1302.47,927.07Zm-1.69-7.08H1290v5h10.76Z"/><path class="cls-4" d="M1323.44,927.05h-17.56c-.39,0-.56-.17-.56-.56V912.16a.3.3,0,0,1,.34-.34h1.55c.22,0,.34.12.34.37V925h6.07v-12.8a.3.3,0,0,1,.34-.34h1.35a.32.32,0,0,1,.37.37V925h6.06v-12.8c0-.22.1-.34.32-.34h1.55a.31.31,0,0,1,.34.34v14.3C1324,926.88,1323.76,927.05,1323.44,927.05Z"/><path class="cls-4" d="M1339.91,927.07h-13.43c-.22,0-.32-.1-.32-.34v-1.36c0-.25.1-.34.32-.34h11.84v-4.94H1326.7c-.37,0-.54-.15-.54-.54V912.4a.47.47,0,0,1,.52-.53h13.38a.33.33,0,0,1,.37.34v1.39c0,.24-.15.34-.37.34h-11.69v4.54h11.57a.51.51,0,0,1,.58.56v7.5C1340.52,926.9,1340.33,927.07,1339.91,927.07Z"/><path class="cls-4" d="M1356.38,927.12h-1.54c-.25,0-.35-.1-.35-.32V914h-9.55V926.8c0,.22-.15.32-.39.32h-1.47c-.25,0-.37-.1-.37-.32V907c0-.25.1-.34.32-.34h1.52c.24,0,.39.12.39.34v4.88h11.22c.37,0,.54.2.54.59V926.8A.28.28,0,0,1,1356.38,927.12Z"/><path class="cls-4" d="M1373.69,927.07h-14.21c-.37,0-.54-.17-.54-.53V918.9c0-.37.17-.56.54-.56H1372v-4.45h-12.72c-.25,0-.34-.1-.34-.34v-1.36c0-.25.09-.35.34-.35h14.44a.49.49,0,0,1,.54.56v14.11A.5.5,0,0,1,1373.69,927.07ZM1372,920h-10.76v5H1372Z"/><path class="cls-4" d="M1390.41,927.14h-1.52c-.22,0-.35-.12-.35-.29V914h-9.77V926.8a.31.31,0,0,1-.34.34h-1.55c-.22,0-.34-.09-.34-.34V912.4a.47.47,0,0,1,.54-.53h13.11a.49.49,0,0,1,.56.53v14.4A.31.31,0,0,1,1390.41,927.14Z"/><path class="cls-4" d="M1407.3,927h-2.09a.54.54,0,0,1-.49-.2l-7-7.27h-2.4v7.25c0,.24-.1.34-.35.34h-1.52c-.22,0-.34-.1-.34-.32V907a.3.3,0,0,1,.34-.34h1.52c.25,0,.35.12.35.34v10.43h2.45l6.49-5.4a.66.66,0,0,1,.54-.19h2.06c.17,0,.27,0,.27.14a.37.37,0,0,1-.12.22l-7.54,6.28,8,8.22a.4.4,0,0,1,.12.22C1407.54,927,1407.45,927,1407.3,927Z"/><path class="cls-4" d="M1178.15,963.06h-1.59c-.25,0-.37-.1-.37-.34V943c0-.22.1-.34.37-.34h1.59c.27,0,.39.12.39.39v19.63C1178.54,963,1178.4,963.06,1178.15,963.06Z"/><path class="cls-4" d="M1197.35,963.08h-1.62a.54.54,0,0,1-.44-.19l-11.81-16.35v16.18c0,.24-.1.36-.34.36h-1.58c-.22,0-.34-.12-.34-.36V943.21a.41.41,0,0,1,.44-.46h1.45a.51.51,0,0,1,.42.22l12,16.51V943a.32.32,0,0,1,.37-.36h1.54a.35.35,0,0,1,.35.39v19.58A.42.42,0,0,1,1197.35,963.08Z"/><path class="cls-4" d="M1202.46,963.06h-1.6c-.24,0-.37-.1-.37-.34V943c0-.22.1-.34.37-.34h1.6c.27,0,.39.12.39.39v19.63C1202.85,963,1202.7,963.06,1202.46,963.06Z"/><path class="cls-4" d="M1222.07,963.13h-1.57c-.27,0-.34-.07-.34-.34V955.3h-12.3v7.49c0,.24-.13.34-.37.34h-1.57c-.25,0-.37-.1-.37-.34V943.31c0-.39.17-.56.56-.56h15.77c.36,0,.56.19.56.61v19.43C1222.44,963,1222.34,963.13,1222.07,963.13ZM1220.16,945h-12.3v8.15h12.3Z"/><path class="cls-4" d="M1239,963.1h-13.6c-.37,0-.55-.17-.55-.53V948.46c0-.36.18-.56.52-.56H1239a.3.3,0,0,1,.3.34v1.44c0,.24-.1.34-.3.34h-11.93v11H1239c.2,0,.3.12.3.37v1.41A.28.28,0,0,1,1239,963.1Z"/><path class="cls-4" d="M1252.44,950h-6.29v11h5.92c.2,0,.3.1.3.34v1.41c0,.25-.1.34-.32.34h-7.79a.31.31,0,0,1-.34-.34V950h-3c-.25,0-.37-.09-.37-.34v-1.43a.31.31,0,0,1,.35-.34h3v-2.6a.31.31,0,0,1,.32-.35h1.57c.25,0,.34.13.34.35v2.6h6.29a.3.3,0,0,1,.32.34v1.43C1252.76,950,1252.64,950,1252.44,950Z"/><path class="cls-4" d="M1268.47,963.1H1255c-.4,0-.57-.17-.57-.53V948.44a.48.48,0,0,1,.54-.54h13.48a.5.5,0,0,1,.57.54v14.13C1269,962.93,1268.84,963.1,1268.47,963.1ZM1266.83,950h-10.14v11h10.14Z"/><path class="cls-4" d="M1281.51,950h-6.09l-1.82,1.41v11.41a.33.33,0,0,1-.37.34h-1.52a.3.3,0,0,1-.34-.34v-12a.52.52,0,0,1,.24-.41l3-2.39a.76.76,0,0,1,.49-.17h6.44a.3.3,0,0,1,.34.34v1.44A.31.31,0,0,1,1281.51,950Z"/><path class="cls-4" d="M1297.05,963.1h-13.43c-.23,0-.32-.09-.32-.34V961.4c0-.24.09-.34.32-.34h11.83v-4.94h-11.61c-.37,0-.54-.14-.54-.53v-7.15a.47.47,0,0,1,.51-.54h13.38a.33.33,0,0,1,.37.34v1.39c0,.24-.15.34-.37.34h-11.68v4.55h11.56c.42,0,.59.22.59.56v7.49C1297.66,962.93,1297.46,963.1,1297.05,963.1Z"/><path class="cls-4" d="M1195.17,999.07h-18.54c-.39,0-.56-.17-.56-.56V979.12c0-.24.09-.36.34-.36H1178a.33.33,0,0,1,.37.36v17.66h6.44V979.12c0-.24.07-.36.34-.36h1.47a.33.33,0,0,1,.37.36v17.66h6.43V979.12a.33.33,0,0,1,.37-.36h1.57a.33.33,0,0,1,.37.36v19.36C1195.73,998.9,1195.54,999.07,1195.17,999.07Z"/><path class="cls-4" d="M1217.26,999.07h-15.44a.47.47,0,0,1-.54-.54V984.59a.48.48,0,0,1,.54-.55h15.25a.52.52,0,0,1,.56.58v7.22c0,.39-.2.56-.59.56h-13.45v4.67h13.67a.32.32,0,0,1,.37.37v1.29C1217.63,999,1217.51,999.07,1217.26,999.07Zm-2-13h-11.71v4.38h11.71Z"/><path class="cls-4" d="M1241.34,999.07h-15a.51.51,0,0,1-.56-.56V978.83a.3.3,0,0,1,.34-.34h1.6c.27,0,.39.12.39.36v5.06h13.23a.51.51,0,0,1,.57.56v14A.51.51,0,0,1,1241.34,999.07Zm-1.74-12.94h-11.49V997h11.49Z"/><path class="cls-4" d="M1269,996.07a.4.4,0,0,1-.2,0l-9.84-5.72-4.82,8.44a.54.54,0,0,1-.59.34h-5.35a.3.3,0,0,1-.34-.34v-1.51a.3.3,0,0,1,.32-.34h4.34l4.42-7.78-8.91-5.21a.31.31,0,0,1-.22-.34v-2c0-.14.07-.22.15-.22a.55.55,0,0,1,.17,0l9.89,5.77,4.52-8a.53.53,0,0,1,.47-.27h5.55a.32.32,0,0,1,.36.37v1.48c0,.22-.12.32-.36.32h-4.4l-4.12,7.24,8.93,5.16a.39.39,0,0,1,.2.39v2C1269.21,996,1269.14,996.07,1269,996.07Z"/><path class="cls-4" d="M1293.34,988.66h-4.59v9.82c0,.42-.22.59-.61.59h-14.93c-.25,0-.37-.1-.37-.32v-1.48a.3.3,0,0,1,.34-.34h13.26v-8.27h-14a.32.32,0,0,1-.36-.34v-1.46c0-.22.12-.34.36-.34h20.92c.27,0,.37.12.37.34v1.46C1293.71,988.53,1293.59,988.66,1293.34,988.66Zm-4.74-7h-16a.31.31,0,0,1-.34-.35v-1.5c0-.25.12-.34.34-.34h16c.27,0,.37.09.37.34v1.5A.34.34,0,0,1,1288.6,981.68Zm5.72-1.51h-1.42a.38.38,0,0,1-.34-.12v1.55a.33.33,0,0,1-.37.34h-1.45a.3.3,0,0,1-.34-.34v-1.68c0-.24.09-.34.34-.34h1.45a.34.34,0,0,1,.34.17v-1.58c0-.24.1-.36.37-.36h1.42a.33.33,0,0,1,.37.36v1.66C1294.69,980.09,1294.57,980.17,1294.32,980.17Z"/><path class="cls-4" d="M1315.53,988.36h-6.43v10.73a.28.28,0,0,1-.32.32h-1.45c-.19,0-.29-.08-.29-.32V988.36h-8.13c-.22,0-.32-.09-.32-.31v-1.41c0-.22.05-.32.27-.32h15.08v-3.84a.31.31,0,0,1,.34-.34h1.5c.22,0,.32.12.32.34v5.35C1316.1,988.24,1315.93,988.36,1315.53,988.36Z"/><path class="cls-4" d="M1342,990.12h-10v8.44c0,.36-.17.53-.54.53h-8.67c-.22,0-.34-.1-.34-.32v-1.48c0-.27.1-.39.34-.39h7v-8.41a.47.47,0,0,1,.54-.54h10v-6.52h-18.63c-.25,0-.35-.12-.35-.31v-1.51c0-.27.1-.34.32-.34H1342c.37,0,.54.19.54.56v9.73C1342.49,990,1342.32,990.12,1342,990.12Z"/><path class="cls-4" d="M1354.3,980.14h-3.93l-1.87,6h5a.49.49,0,0,1,.56.56v12c0,.38-.19.56-.59.56h-6c-.4,0-.57-.18-.57-.54v-7.93h-1.52c-.17,0-.27-.05-.27-.19a.24.24,0,0,1,0-.13l3.21-10.36h-2.5c-.25,0-.35-.09-.35-.34v-1.29c0-.22.1-.34.32-.34h8.45a.33.33,0,0,1,.37.34v1.29C1354.67,980.05,1354.54,980.14,1354.3,980.14Zm-2,8h-3.59v9.24h3.59Zm14.93,1.16h-1.5v10c0,.25-.12.34-.37.34H1364c-.22,0-.34-.09-.34-.34v-10h-4l-1.06,10c0,.22-.12.31-.39.31H1357c-.2,0-.32-.07-.32-.24l1.06-10h-1.55c-.25,0-.35-.12-.35-.36v-1.29c0-.24.08-.36.32-.36h1.67v-7.06h-1.67c-.24,0-.36-.1-.36-.34v-1.34a.31.31,0,0,1,.34-.34h11.1a.32.32,0,0,1,.34.34v1.34a.31.31,0,0,1-.34.34h-1.5v7.06h1.5a.33.33,0,0,1,.34.36v1.29A.33.33,0,0,1,1367.24,989.26Zm-3.54-9.07h-3.88v7.06h3.88Z"/><path class="cls-4" d="M1391.79,983.89h-1.3c-.25,0-.35-.12-.35-.32V980.9h-5.5v4.45h5.82a.32.32,0,0,1,.37.36v1.07c0,.22-.12.34-.37.34h-7.32c-.36,0-.56-.17-.56-.53V980.9h-3.22l-4.22,6.15a.47.47,0,0,1-.42.22h-1.79c-.17,0-.24,0-.24-.12a.25.25,0,0,1,.07-.15l4.27-6.1h-4.91v2.65c0,.22-.12.34-.37.34h-1.27c-.25,0-.35-.07-.35-.34v-4a.49.49,0,0,1,.54-.56H1380v-.83a.3.3,0,0,1,.35-.34h1.54c.25,0,.35.13.35.37v.8h9.3a.52.52,0,0,1,.57.59v4A.31.31,0,0,1,1391.79,983.89Zm0,15.32H1387c-.36,0-.59-.17-.59-.53v-7h-9.08l-3.53,7.56a.37.37,0,0,1-.4.22h-1.76c-.18,0-.28-.05-.28-.15s0-.07.05-.14l3.64-7.49h-3.86a.3.3,0,0,1-.34-.34v-1.27c0-.24.1-.34.34-.34h4.3v-2c0-.24.1-.36.34-.36h1.58c.22,0,.34.14.34.39v2h10.33a.5.5,0,0,1,.54.56v6.93h3.2c.19,0,.32.12.32.37v1.26A.3.3,0,0,1,1391.79,999.21Z"/><path class="cls-4" d="M1416.83,985.37a.45.45,0,0,1-.17,0l-11-5.86-11,5.86-.14,0c-.1,0-.15-.07-.15-.24V983.5a.39.39,0,0,1,.22-.37l10-5.37a1.13,1.13,0,0,1,.42-.1h1.3a1.08,1.08,0,0,1,.37.1l10,5.37a.37.37,0,0,1,.24.37v1.63C1417,985.3,1416.93,985.37,1416.83,985.37Zm-.52,7.27h-15.49l-2.68,4.63h15.42l-1.5-3.65a1,1,0,0,1,0-.17c0-.1.1-.17.3-.17H1414a.34.34,0,0,1,.34.26l2.16,5.4a.47.47,0,0,1,0,.15c0,.12-.07.17-.24.17h-20.13c-.4,0-.57-.17-.57-.56v-1.21a.73.73,0,0,1,.1-.39l2.6-4.46H1395c-.25,0-.35-.12-.35-.34v-1.24c0-.22.1-.34.32-.34h21.31a.33.33,0,0,1,.35.34v1.24A.31.31,0,0,1,1416.31,992.64Zm-2.06-5.3h-17.11c-.25,0-.35-.12-.35-.34v-1.19c0-.22.1-.34.32-.34h17.14a.33.33,0,0,1,.37.36V987A.33.33,0,0,1,1414.25,987.34Z"/><path class="cls-4" d="M1192.34,1017.05H1185v17.74c0,.24-.1.36-.37.36h-1.57c-.27,0-.37-.1-.37-.36v-17.74h-7.12c-.25,0-.37-.12-.37-.38v-1.46c0-.27.1-.39.34-.39h16.77c.27,0,.37.12.37.39v1.46C1192.71,1016.93,1192.61,1017.05,1192.34,1017.05Z"/><path class="cls-4" d="M1208,1035.22h-1.55c-.24,0-.34-.09-.34-.31v-12.85h-9.55v12.85c0,.22-.15.31-.39.31h-1.48c-.24,0-.36-.09-.36-.31v-19.85c0-.24.09-.34.31-.34h1.53c.24,0,.39.12.39.34V1020h11.22c.37,0,.54.19.54.58v14.38C1208.3,1035.13,1208.2,1035.22,1208,1035.22Z"/><path class="cls-4" d="M1225.39,1035.17h-14.22c-.39,0-.56-.19-.56-.58v-14.08c0-.37.17-.56.59-.56h14a.5.5,0,0,1,.57.53v7.57c0,.36-.2.53-.59.53h-12.35v4.53h12.57c.22,0,.37.09.37.34v1.36A.35.35,0,0,1,1225.39,1035.17Zm-1.87-13.2h-10.68v5h10.68Z"/><path class="cls-4" d="M1252.19,1035.1h-15.63c-.25,0-.37-.1-.37-.34v-1.51a.32.32,0,0,1,.37-.36h13.94V1026h-13.72c-.4,0-.59-.15-.59-.54v-10a.5.5,0,0,1,.56-.58h15.57c.27,0,.37.12.37.34v1.51c0,.26-.13.36-.37.36h-13.8v6.81h13.7a.5.5,0,0,1,.56.56v10.12C1252.78,1034.93,1252.59,1035.1,1252.19,1035.1Z"/><path class="cls-4" d="M1268.79,1035.22h-1.55c-.24,0-.34-.09-.34-.31v-12.85h-9.55v12.85c0,.22-.15.31-.39.31h-1.48c-.24,0-.37-.09-.37-.31v-19.85c0-.24.1-.34.32-.34H1257c.24,0,.39.12.39.34V1020h11.22c.37,0,.54.19.54.58v14.38C1269.11,1035.13,1269,1035.22,1268.79,1035.22Z"/><path class="cls-4" d="M1286.1,1035.17h-14.22c-.37,0-.54-.17-.54-.53V1027a.49.49,0,0,1,.54-.56h12.52V1022h-12.71c-.25,0-.35-.1-.35-.34v-1.36c0-.24.1-.34.35-.34h14.43c.35,0,.54.17.54.56v14.11A.49.49,0,0,1,1286.1,1035.17Zm-1.7-7.07h-10.75v5h10.75Z"/><path class="cls-4" d="M1307.06,1035.15h-17.55c-.39,0-.57-.17-.57-.56v-14.33a.3.3,0,0,1,.35-.34h1.54a.32.32,0,0,1,.35.37v12.77h6.06v-12.8a.3.3,0,0,1,.35-.34h1.35a.33.33,0,0,1,.36.37v12.77h6.07v-12.8c0-.21.1-.34.32-.34h1.54a.31.31,0,0,1,.35.34v14.31C1307.58,1035,1307.38,1035.15,1307.06,1035.15Z"/><path class="cls-4" d="M1323.54,1035.17h-13.43c-.23,0-.32-.09-.32-.34v-1.36c0-.24.09-.34.32-.34h11.83v-4.94h-11.61c-.37,0-.54-.14-.54-.53v-7.15a.47.47,0,0,1,.51-.54h13.38a.33.33,0,0,1,.37.34v1.39c0,.24-.15.34-.37.34H1312v4.55h11.56c.42,0,.59.22.59.56v7.49C1324.15,1035,1324,1035.17,1323.54,1035.17Z"/><path class="cls-4" d="M1340,1035.22h-1.55c-.24,0-.34-.09-.34-.31v-12.85h-9.55v12.85c0,.22-.15.31-.4.31h-1.47c-.24,0-.37-.09-.37-.31v-19.85c0-.24.1-.34.32-.34h1.52c.25,0,.4.12.4.34V1020h11.22c.37,0,.54.19.54.58v14.38C1340.33,1035.13,1340.23,1035.22,1340,1035.22Z"/><path class="cls-4" d="M1357.32,1035.17H1343.1c-.37,0-.54-.17-.54-.53V1027a.49.49,0,0,1,.54-.56h12.52V1022H1342.9c-.24,0-.34-.1-.34-.34v-1.36c0-.24.1-.34.34-.34h14.44a.49.49,0,0,1,.54.56v14.11A.49.49,0,0,1,1357.32,1035.17Zm-1.7-7.07h-10.75v5h10.75Z"/><path class="cls-4" d="M1374,1035.25h-1.52c-.22,0-.34-.12-.34-.29v-12.87h-9.77v12.82a.31.31,0,0,1-.35.34h-1.54a.3.3,0,0,1-.35-.34v-14.4a.48.48,0,0,1,.54-.54h13.11a.5.5,0,0,1,.57.54v14.4A.31.31,0,0,1,1374,1035.25Z"/><path class="cls-4" d="M1390.92,1035.1h-2.08a.55.55,0,0,1-.49-.19l-7-7.28h-2.41v7.25c0,.25-.09.34-.34.34H1377c-.22,0-.35-.09-.35-.31v-19.85c0-.22.1-.34.35-.34h1.52c.25,0,.34.12.34.34v10.43h2.46l6.48-5.4a.69.69,0,0,1,.54-.19h2.06c.17,0,.27.05.27.15a.3.3,0,0,1-.12.21l-7.54,6.28,8,8.22a.54.54,0,0,1,.12.22C1391.17,1035.05,1391.07,1035.1,1390.92,1035.1Z"/><polygon class="cls-4" points="1996 775.82 1605 1151.34 1996 1151.34 1996 775.82"/><path class="cls-4" d="M1488.92,578.26l-5,8.56-2.65,13,2.65,12.91,5,8.61a.54.54,0,0,1,.1.35c0,.15-.15.25-.45.25H1485c-.35,0-.65,0-.8-.4l-4.45-7.72a6.42,6.42,0,0,1-.25-.79l-2.64-13.16,2.64-13.21a3.3,3.3,0,0,1,.25-.75l4.45-7.76a.81.81,0,0,1,.8-.5h3.59c.35,0,.5.1.5.25A.74.74,0,0,1,1488.92,578.26Z"/><path class="cls-4" d="M1528.47,583.66h-28.26v14h27a.6.6,0,0,1,.69.69v3a.66.66,0,0,1-.69.74h-27v17.77a.63.63,0,0,1-.7.69h-3.25c-.5,0-.75-.15-.75-.64V580.24a1,1,0,0,1,1.15-1.14h31.81a.66.66,0,0,1,.75.75v3A.72.72,0,0,1,1528.47,583.66Z"/><path class="cls-4" d="M1554.19,593.9h-12.38l-3.7,2.87V620a.67.67,0,0,1-.75.69h-3.09a.61.61,0,0,1-.7-.69V595.63a1.1,1.1,0,0,1,.5-.84l6-4.85a1.41,1.41,0,0,1,1-.35h13.08a.61.61,0,0,1,.7.7v2.92A.63.63,0,0,1,1554.19,593.9Z"/><path class="cls-4" d="M1562.33,584.2h-3.19a.61.61,0,0,1-.7-.69v-4a.61.61,0,0,1,.65-.69h3.24c.5,0,.7.24.7.69v4C1563,584,1562.83,584.2,1562.33,584.2Zm0,36.37h-3.19c-.45,0-.7-.2-.7-.64V590.09a.61.61,0,0,1,.65-.69h3.24c.5,0,.7.29.7.74v29.74C1563,620.37,1562.83,620.57,1562.33,620.57Z"/><path class="cls-4" d="M1574,620.42h-4.5c-.84,0-1.19-.34-1.19-1.13v-3.42a1,1,0,0,1,1.19-1.19h4.5c.8,0,1.2.4,1.2,1.24v3.37C1575.17,620.08,1574.77,620.42,1574,620.42Z"/><path class="cls-4" d="M1593.7,600.18,1591.1,613a3,3,0,0,1-.3.79l-4.45,7.72c-.14.35-.39.4-.79.4H1582c-.3,0-.45-.1-.45-.25a.54.54,0,0,1,.1-.35l5-8.61,2.6-12.91-2.6-13-5-8.56a.5.5,0,0,1-.1-.34q0-.3.45-.3h3.6a.73.73,0,0,1,.74.5l4.45,7.76a2,2,0,0,1,.3.75l2.6,12.86a.74.74,0,0,1,0,.35A.9.9,0,0,1,1593.7,600.18Z"/><rect class="cls-1" x="-2" y="17.83" width="1922" height="1052.26"/></g><rect class="cls-13" x="1147.87" y="429.54" width="88.08" height="3.72" transform="matrix(0.4, -0.92, 0.92, 0.4, 323.27, 1354.56)"/><rect class="cls-13" x="1228.72" y="449.64" width="44.1" height="3.72" transform="translate(348.82 1428.62) rotate(-67.14)"/><polygon class="cls-14" points="1252.3 514.34 1248.85 512.94 1282.63 429.84 1286.2 430.27 1292.03 470.4 1288.34 470.94 1283.5 437.59 1252.3 514.34"/><rect class="cls-14" x="1258.06" y="449.42" width="28.29" height="3.72"/><polygon class="cls-15" points="1298.41 471.43 1329 390.58 1350.23 431.71 1298.41 471.43"/><path class="cls-15" d="M1299.54,472.91l-2.87-2.14,30.59-80.84,3.4-.2,21.22,41.13-.52,2.33Zm29.72-77.76L1302.46,466l45.4-34.8Z"/><polygon class="cls-13" points="1381.52 473.65 1378.11 472.17 1395.72 431.59 1398.98 431.32 1407.44 444.31 1413.28 431.07 1416.42 430.64 1430.14 447.25 1430.42 449.17 1420.33 472.51 1416.91 471.04 1426.55 448.74 1415.47 435.33 1409.46 448.95 1406.2 449.22 1397.76 436.25 1381.52 473.65"/><g class="cls-16"><rect class="cls-17" x="1384.49" y="450.06" width="43.74" height="3.72" transform="translate(436.28 1565.92) rotate(-66.76)"/></g><polygon class="cls-18" points="1490.24 439.36 1494.31 440.34 1495.49 435.15 1491.39 434.28 1490.24 439.36"/><path class="cls-18" d="M1487.7,448.17l3.87,1.61.41-1.08c.51-1.5.9-2.84,1.28-4.25l-4-1.1c-.36,1.33-.75,2.69-1.18,3.94Z"/><path class="cls-18" d="M1483.21,456.1l3.53,2.26c1-1.5,1.9-3,2.8-4.6l-3.64-2.07C1485.05,453.17,1484.14,454.65,1483.21,456.1Z"/><polygon class="cls-18" points="1558.62 439.46 1562.69 440.44 1563.87 435.25 1559.77 434.38 1558.62 439.46"/><path class="cls-18" d="M1556.08,448.27l3.87,1.61.41-1.08c.51-1.5.89-2.84,1.28-4.25l-4-1.1c-.36,1.33-.76,2.69-1.18,3.94Z"/><path class="cls-18" d="M1551.59,456.2l3.53,2.26c1-1.51,1.89-3,2.79-4.6l-3.63-2.08C1553.43,453.27,1552.52,454.75,1551.59,456.2Z"/><ellipse class="cls-19" cx="1451.99" cy="443.6" rx="8.19" ry="13.56"/><ellipse class="cls-19" cx="1518.08" cy="443.08" rx="8.19" ry="13.56"/><rect class="cls-15" x="1573.56" y="429.31" width="46.55" height="3.72"/><polygon class="cls-13" points="1629.25 514.76 1470.66 514.76 1470.66 511.04 1624.79 511.04 1607.8 417.98 1628.92 417.98 1628.92 421.7 1612.26 421.7 1629.25 514.76"/><path class="cls-14" d="M1731.34,469.38a18.6,18.6,0,0,1-7.88-1.57c-11.72-5.51-8.72-16-7.6-20,3.07-10.84,15.53-22.37,32.66-22.71,5.48-.08,9.19,1.38,11.34,4.43,3.55,5,.9,12.22.78,12.53l-1.73,1.2-37,.1a20.91,20.91,0,0,0-2.39,5.3c-1.74,6.12-2.23,12.13,5.56,15.79,9.34,4.39,25.67-4.29,25.84-4.37l1.76,3.27C1752.07,463.65,1741.28,469.38,1731.34,469.38Zm17.71-40.57h-.46a33.24,33.24,0,0,0-23.9,10.81l32.83-.09c.46-1.85,1-5.43-.7-7.87C1755.47,429.77,1752.86,428.81,1749.05,428.81Z"/><polygon class="cls-15" points="1675.29 469.2 1672.64 466.85 1677.2 456.49 1656.28 469.19 1653.61 466.86 1671.12 426.28 1674.54 427.75 1659.34 462.98 1680.31 450.25 1682.97 452.59 1678.37 463.06 1698.66 451.1 1709.42 426.27 1712.83 427.76 1701.84 453.13 1701.07 454 1675.29 469.2"/><rect class="cls-15" x="1661.22" y="445.37" width="44.07" height="3.72" transform="translate(602.8 1813.24) rotate(-66.54)"/><rect class="cls-13" x="1801.39" y="388.15" width="3.72" height="3.72" transform="translate(708 1874.68) rotate(-65.79)"/><path class="cls-13" d="M1773.67,460.5l-3.4-1.53,3-6.8,3.4,1.52Zm6.1-13.61-3.39-1.53,3-6.8,3.39,1.53Zm6.11-13.6-3.4-1.53,3-6.8,3.4,1.52Zm6.1-13.61-3.39-1.53,3.05-6.8,3.39,1.53Zm6.11-13.61-3.4-1.52,3-6.81,3.4,1.53Z"/><polygon class="cls-13" points="1768.74 471.22 1765.69 469.18 1767.22 465.78 1768.32 466.27 1768.62 465.96 1769.49 466.8 1770.61 467.3 1770.43 467.7 1771.31 468.53 1768.74 471.22"/><rect class="cls-13" x="1774.26" y="456.72" width="7.99" height="3.72" transform="translate(217.58 1426.45) rotate(-46.27)"/><polygon class="cls-13" points="1787.89 451.2 1785.2 448.63 1786.85 446.9 1785.74 444.79 1789.03 443.06 1790.76 446.36 1790.46 448.51 1787.89 451.2"/><rect class="cls-13" x="1781.9" y="435.16" width="3.72" height="3.72" transform="translate(1.02 878.2) rotate(-27.67)"/><polygon class="cls-13" points="1783.85 432.01 1765.26 473.45 1821.47 431.18 1786.94 443.58 1783.85 432.01"/><path class="cls-13" d="M1766.38,474.94l-2.82-2.25,18.6-41.45,3.49.29,2.56,9.61,32.63-11.72,1.75,3.24Zm17-37.39-13.49,30.07,40.6-30.53-22.94,8.24-2.43-1.27Z"/><g class="cls-16"><polygon class="cls-17" points="1198.95 472.81 1195.54 471.33 1213.15 430.75 1216.7 431.25 1221.09 465.13 1235.89 430.91 1239.31 432.38 1221.83 472.81 1218.27 472.31 1213.88 438.42 1198.95 472.81"/></g><g class="cls-16"><rect class="cls-17" x="1384.35" y="450.3" width="43.74" height="3.72" transform="translate(435.96 1565.94) rotate(-66.76)"/></g><g class="cls-16"><rect class="cls-17" x="1557.81" y="445.61" width="54.14" height="3.72" transform="translate(551.24 1729.53) rotate(-66.89)"/></g><path class="cls-13" d="M1461.2,471.8q-1.56,0-3.24-.09c-7.49-.4-13-2.94-16.33-7.54-5.4-7.42-4-18.64-1.82-26.76,5.37-20.23,19.15-31.37,38.81-31.37,7.39,0,12.67,2.18,15.68,6.49,5.31,7.6,1.31,18.81,1.13,19.29l-1.74,1.22h-48.57a53.45,53.45,0,0,0-1.71,5.32c-1.94,7.34-3.31,17.39,1.23,23.62,2.66,3.65,7.21,5.68,13.51,6,18.85,1,23.09-7.48,23.13-7.57l3.39,1.53C1484.48,462.37,1480.08,471.79,1461.2,471.8Zm-14.47-42.49h45.58c.78-2.82,2.25-9.92-1.07-14.66-2.28-3.24-6.52-4.89-12.62-4.89C1464,409.76,1452.92,416.63,1446.73,429.31Z"/><path class="cls-13" d="M1527.66,471.8q-1.54,0-3.24-.09c-7.48-.4-13-2.94-16.33-7.54-5.39-7.42-4-18.64-1.81-26.76,5.37-20.23,19.15-31.37,38.8-31.37,7.4,0,12.67,2.18,15.69,6.49,5.31,7.6,1.3,18.81,1.13,19.29l-1.75,1.22h-48.56a51,51,0,0,0-1.71,5.32c-2,7.34-3.31,17.39,1.22,23.62,2.67,3.65,7.21,5.68,13.52,6,18.86,1,23.09-7.48,23.12-7.57l3.4,1.53C1551,462.37,1546.55,471.79,1527.66,471.8Zm-14.46-42.49h45.58c.78-2.82,2.25-9.92-1.07-14.66-2.28-3.24-6.53-4.89-12.63-4.89C1530.44,409.76,1519.39,416.63,1513.2,429.31Z"/></svg>