<svg xmlns="http://www.w3.org/2000/svg" viewBox="0 0 144.83 57.96"><defs><style>.cls-1{fill:#fff;}</style></defs><g id="レイヤー_2" data-name="レイヤー 2"><g id="レイヤー_1-2" data-name="レイヤー 1"><path class="cls-1" d="M26.91,19.66l-20,37.71a1.06,1.06,0,0,1-1,.59H.65C.26,58,0,57.83,0,57.57a.86.86,0,0,1,.13-.39L20.31,19.4a1.15,1.15,0,0,1,1-.64h5.11c.39,0,.59.13.59.45A.68.68,0,0,1,26.91,19.66ZM58.73,58h-5a1,1,0,0,1-1-.59L30.21,6.92h-19a.81.81,0,0,1-.9-.9V1.94a.82.82,0,0,1,.9-.91H33.57a.92.92,0,0,1,.91.65l24.77,55.5a1,1,0,0,1,.13.39C59.38,57.83,59.12,58,58.73,58Z"/><path class="cls-1" d="M143.86,31.05H118.69l-3.1,4.65h27.49c1,0,1.42.52,1.42,1.56V56.47c0,1-.45,1.49-1.49,1.49h-9c-.65,0-.91-.26-.91-.91V54.72c0-.65.26-.9.84-.9h5.7V40h-2.2L126.91,57.31a1.06,1.06,0,0,1-1,.58h-3.49c-.39,0-.58-.06-.58-.32a.72.72,0,0,1,.13-.46L132.6,40h-7.24l-11.45,17.4a1.15,1.15,0,0,1-1.1.52h-3.37c-.45,0-.64-.06-.64-.32a1.86,1.86,0,0,1,.13-.39L120.38,40h-7.57l-5.43,8.09a1.3,1.3,0,0,1-1.1.52h-2.46V52.2a.81.81,0,0,1-.78.9L86.22,56c-.32,0-.51-.26-.51-.84V51.94c0-.65.26-1,.84-1.1l6.21-1V18.76H86.61c-.64,0-.9-.26-.9-.91V14.49c0-.65.26-.91.84-.91h6.21V.91c0-.59.26-.91.9-.91H97a.86.86,0,0,1,1,1V13.58h5.17a.8.8,0,0,1,.91.91v3.36a.8.8,0,0,1-.91.91H98V49l4.46-.71a1.56,1.56,0,0,1,.13-.46l11.19-16.81h-6.92c-.65,0-.91-.26-.91-1V27.62c0-.58.26-.91.84-.91h37.13a.85.85,0,0,1,.91,1v2.4A.86.86,0,0,1,143.86,31.05Zm-2.27-8.93H109.25c-1,0-1.49-.45-1.49-1.49V2.52c0-1,.46-1.49,1.43-1.49h32.4a1.36,1.36,0,0,1,1.49,1.56v18A1.31,1.31,0,0,1,141.59,22.12Zm-4-17.2H113.33V9.7h24.25Zm0,8.53H113.33v4.79h24.25Z"/></g></g></svg>