<svg id="Instagram" xmlns="http://www.w3.org/2000/svg" width="35.726" height="35.727" viewBox="0 0 35.726 35.727">
  <path id="パス_51" data-name="パス 51" d="M263.571,1003.164a2.828,2.828,0,0,0-.673-1.031,2.774,2.774,0,0,0-1.031-.669,4.909,4.909,0,0,0-1.665-.309c-.943-.042-1.227-.052-3.625-.052s-2.682.01-3.625.052a4.944,4.944,0,0,0-1.665.309,2.982,2.982,0,0,0-1.7,1.7,4.9,4.9,0,0,0-.308,1.666c-.043.943-.053,1.23-.053,3.624s.01,2.679.053,3.625a4.914,4.914,0,0,0,.308,1.665,2.977,2.977,0,0,0,1.7,1.7,4.921,4.921,0,0,0,1.665.308c.943.042,1.23.053,3.625.053s2.678-.011,3.625-.053a4.945,4.945,0,0,0,1.665-.308,2.816,2.816,0,0,0,1.03-.673,2.776,2.776,0,0,0,.67-1.031,4.922,4.922,0,0,0,.309-1.665c.042-.943.052-1.231.052-3.625s-.01-2.678-.052-3.625A4.933,4.933,0,0,0,263.571,1003.164Zm-6.994,9.907a4.61,4.61,0,1,1,4.61-4.61A4.611,4.611,0,0,1,256.577,1013.071Zm4.792-8.326a1.076,1.076,0,1,1,1.077-1.076A1.076,1.076,0,0,1,261.369,1004.745Z" transform="translate(-238.709 -990.596)" fill="#4b4b4b"/>
  <path id="パス_52" data-name="パス 52" d="M256.572,990.6a17.863,17.863,0,1,0,17.863,17.863A17.862,17.862,0,0,0,256.572,990.6Zm8.917,21.567a6.576,6.576,0,0,1-.418,2.177,4.584,4.584,0,0,1-2.622,2.622,6.551,6.551,0,0,1-2.177.417c-.957.042-1.262.053-3.7.053s-2.742-.011-3.7-.053a6.578,6.578,0,0,1-2.177-.417,4.591,4.591,0,0,1-2.625-2.626,6.573,6.573,0,0,1-.418-2.177c-.042-.957-.052-1.262-.052-3.7s.01-2.741.052-3.7a6.59,6.59,0,0,1,.418-2.177,4.613,4.613,0,0,1,2.629-2.626,6.55,6.55,0,0,1,2.177-.417c.957-.042,1.262-.052,3.7-.052s2.742.01,3.7.056a6.566,6.566,0,0,1,2.177.417,4.385,4.385,0,0,1,1.588,1.034,4.186,4.186,0,0,1,1.027,1.595,6.549,6.549,0,0,1,.418,2.177c.042.957.052,1.262.052,3.7S265.531,1011.206,265.489,1012.163Z" transform="translate(-238.709 -990.596)" fill="#4b4b4b"/>
  <circle id="楕円形_4" data-name="楕円形 4" cx="2.99" cy="2.99" r="2.99" transform="translate(14.878 14.875)" fill="#4b4b4b"/>
</svg>
