<svg id="資料ボタン" xmlns="http://www.w3.org/2000/svg" width="23.51" height="30.707" viewBox="0 0 23.51 30.707">
  <path id="パス_49" data-name="パス 49" d="M610.589,863.422H608.9v9.508a.8.8,0,0,1-.441.717.787.787,0,0,1-.832-.085l-2.355-1.824-2.355,1.824a.786.786,0,0,1-.831.085.8.8,0,0,1-.443-.717v-9.508H594.3a1.772,1.772,0,0,1-1.263-.527,1.81,1.81,0,0,1,0-2.545,1.772,1.772,0,0,1,1.263-.527h15.932a.99.99,0,1,0,0-1.979H594.276a3.8,3.8,0,0,0-2.676,1.1,3.71,3.71,0,0,0-1.11,2.644v24.493a2.474,2.474,0,0,0,2.474,2.474h17.625A3.408,3.408,0,0,0,614,885.145V866.828A3.408,3.408,0,0,0,610.589,863.422Z" transform="translate(-590.49 -857.844)" fill="#d35f55"/>
</svg>
