<svg id="返信ボタン" xmlns="http://www.w3.org/2000/svg" width="21.415" height="19.81" viewBox="0 0 21.415 19.81">
  <path id="返信ボタン-2" data-name="返信ボタン" d="M1652.361,475.34c-6.407,0-10.755,3.266-10.755,8.347a8.174,8.174,0,0,0,3.811,7.243c.167.108.365.124.29.434-.3,1.252-.82,3.483-.82,3.483a.247.247,0,0,0,.358.273s3.675-2.177,4.165-2.449a5.6,5.6,0,0,1,2.867-.781c5.081,0,10.744-2.033,10.744-8.257C1663.021,478.8,1659.13,475.34,1652.361,475.34Zm-5.029,9.993a1.277,1.277,0,1,1,1.278-1.277A1.277,1.277,0,0,1,1647.332,485.333Zm4.981,0a1.277,1.277,0,1,1,1.277-1.277A1.277,1.277,0,0,1,1652.313,485.333Zm4.981,0a1.277,1.277,0,1,1,1.277-1.277A1.277,1.277,0,0,1,1657.294,485.333Z" transform="translate(-1641.606 -475.34)" fill="#4b4b4b"/>
</svg>
