<?xml version="1.0" encoding="utf-8"?>
<!-- Generator: Adobe Illustrator 25.2.1, SVG Export Plug-In . SVG Version: 6.00 Build 0)  -->
<svg version="1.1" id="レイヤー_1" xmlns="http://www.w3.org/2000/svg" xmlns:xlink="http://www.w3.org/1999/xlink" x="0px"
	 y="0px" viewBox="0 0 31 32" style="enable-background:new 0 0 31 32;" xml:space="preserve">
<style type="text/css">
	.st0{fill:#FFFFFF;}
</style>
<path class="st0" d="M0,16.1V2.8c0-0.7,0.2-1.4,0.8-1.9C1.3,0.3,2.1,0,2.9,0h14.9c0.5,0,0.9,0,1.4,0.1c0.5,0.1,1.1,0.2,1.6,0.3
	c1,0.3,2.7,1.1,2.7,1.1L0,16.1z"/>
<path class="st0" d="M0,18v11.3c0,0.8,0.4,1.6,1,2.1c0.4,0.3,0.8,0.5,1.3,0.7h15.6c0,0,1.4-0.2,1.9-0.3c0.6-0.1,1.2-0.3,1.8-0.5
	c0.4-0.1,1-0.4,1-0.4L0,18z"/>
<path class="st0" d="M2.6,17l7.9-4.9c0,0,1.3,1.3,1.3,4.9c0,3.3-1.3,4.6-1.3,4.6L2.6,17z"/>
<path class="st0" d="M12.2,11l5.5-3.3c0.8,0.9,1.5,2,2,3.1c0.8,2,1.3,4.1,1.2,6.2c-0.1,2-0.5,3.9-1.4,5.7c-0.5,1-1.1,2-1.8,2.9
	l-5.5-3c0,0,1.7-1.6,1.7-5.6S12.2,11,12.2,11z"/>
<path class="st0" d="M19.4,6.5l6-3.7c0,0,5.5,4.5,5.5,14.2c0,7.1-6.2,12.9-6.2,12.9l-5.4-3.1c2.2-2.8,3.4-6.2,3.5-9.8
	C23,13.2,21.8,9.5,19.4,6.5z"/>
</svg>
