<svg id="Twitter" xmlns="http://www.w3.org/2000/svg" width="35.727" height="35.727" viewBox="0 0 35.727 35.727">
  <g id="グループ_28" data-name="グループ 28" transform="translate(-184.98 -990.596)">
    <path id="パス_50" data-name="パス 50" d="M202.844,990.6a17.863,17.863,0,1,0,17.863,17.863A17.863,17.863,0,0,0,202.844,990.6Zm.343,15.169.018,0a3.579,3.579,0,0,1,6.1-3.262,7.167,7.167,0,0,0,1.893-.665c.124-.06.249-.12.371-.187a3.567,3.567,0,0,1-1.126,1.642,3.289,3.289,0,0,1-.442.3l.032-.005c-.01.006-.019.015-.03.021a7.134,7.134,0,0,0,1.683-.414c.12-.042.239-.083.358-.129a7.308,7.308,0,0,1-1.771,1.832c.007.153.01.307.01.463a10.172,10.172,0,0,1-15.659,8.569,7.26,7.26,0,0,0,.853.05,7.165,7.165,0,0,0,3.655-1,7.808,7.808,0,0,0,.787-.514l-.02,0,.02-.015a3.576,3.576,0,0,1-3.11-1.936,3.524,3.524,0,0,1-.221-.546,3.619,3.619,0,0,0,.663.062,3.562,3.562,0,0,0,.689-.074c.083-.012.167-.021.25-.035-.011,0-.021-.007-.032-.009l.035-.007a3.58,3.58,0,0,1-2.869-3.507v-.041l0,0a3.554,3.554,0,0,0,1.272.415c.112.019.225.036.337.046l-.022-.017.031,0a3.56,3.56,0,0,1-1.216-4.556c.037-.072.071-.145.114-.214a10.161,10.161,0,0,0,6.475,3.639c.291.042.582.079.876.1Z" fill="#4b4b4b"/>
  </g>
</svg>
