<svg id="Webサイト" xmlns="http://www.w3.org/2000/svg" width="35.727" height="35.727" viewBox="0 0 35.727 35.727">
  <path id="パス_53" data-name="パス 53" d="M308.665,1016.434a3.283,3.283,0,0,0,.279.2c.225.033.452.055.682.07v-2.782h-2.653A6.351,6.351,0,0,0,308.665,1016.434Z" transform="translate(-292.273 -990.596)" fill="#4b4b4b"/>
  <path id="パス_54" data-name="パス 54" d="M306.589,1012.88h3.037v-3.873h-3.635A15.308,15.308,0,0,0,306.589,1012.88Z" transform="translate(-292.273 -990.596)" fill="#4b4b4b"/>
  <path id="パス_55" data-name="パス 55" d="M305.995,1007.961h3.631v-3.873h-3.032A15.247,15.247,0,0,0,305.995,1007.961Z" transform="translate(-292.273 -990.596)" fill="#4b4b4b"/>
  <path id="パス_56" data-name="パス 56" d="M315.341,1007.961h3.032a8.228,8.228,0,0,0-1.249-3.873h-2.336A16.567,16.567,0,0,1,315.341,1007.961Z" transform="translate(-292.273 -990.596)" fill="#4b4b4b"/>
  <path id="パス_57" data-name="パス 57" d="M305.487,1004.088h-2.336a8.227,8.227,0,0,0-1.252,3.873h3.03A16.56,16.56,0,0,1,305.487,1004.088Z" transform="translate(-292.273 -990.596)" fill="#4b4b4b"/>
  <path id="パス_58" data-name="パス 58" d="M305.822,1013.925h-1.876c.145.166.3.326.455.48a8.289,8.289,0,0,0,2.5,1.66,8.513,8.513,0,0,1-.552-.924A10.748,10.748,0,0,1,305.822,1013.925Z" transform="translate(-292.273 -990.596)" fill="#4b4b4b"/>
  <path id="パス_59" data-name="パス 59" d="M306.906,1000.9a8.261,8.261,0,0,0-2.7,1.855c-.091.093-.179.189-.265.287h1.877A9.566,9.566,0,0,1,306.906,1000.9Z" transform="translate(-292.273 -990.596)" fill="#4b4b4b"/>
  <path id="パス_60" data-name="パス 60" d="M304.933,1009.007H301.9a8.218,8.218,0,0,0,1.25,3.873h2.336A16.529,16.529,0,0,1,304.933,1009.007Z" transform="translate(-292.273 -990.596)" fill="#4b4b4b"/>
  <path id="パス_61" data-name="パス 61" d="M308.665,1000.533a5.59,5.59,0,0,0-1.356,1.78c-.119.227-.228.474-.333.729h2.65v-2.781q-.347.023-.686.072A3.391,3.391,0,0,0,308.665,1000.533Z" transform="translate(-292.273 -990.596)" fill="#4b4b4b"/>
  <path id="パス_62" data-name="パス 62" d="M313.368,1016.067a8.273,8.273,0,0,0,2.7-1.855c.09-.093.178-.189.264-.287h-1.876A9.589,9.589,0,0,1,313.368,1016.067Z" transform="translate(-292.273 -990.596)" fill="#4b4b4b"/>
  <path id="パス_63" data-name="パス 63" d="M314.786,1012.88h2.336a8.219,8.219,0,0,0,1.252-3.873h-3.029A16.569,16.569,0,0,1,314.786,1012.88Z" transform="translate(-292.273 -990.596)" fill="#4b4b4b"/>
  <path id="パス_64" data-name="パス 64" d="M314.452,1003.042h1.876c-.146-.165-.3-.326-.455-.48a8.284,8.284,0,0,0-2.5-1.659,8.239,8.239,0,0,1,.552.923A10.9,10.9,0,0,1,314.452,1003.042Z" transform="translate(-292.273 -990.596)" fill="#4b4b4b"/>
  <path id="パス_65" data-name="パス 65" d="M310.137,990.6A17.863,17.863,0,1,0,328,1008.459,17.863,17.863,0,0,0,310.137,990.6Zm7.125,24.757a9.886,9.886,0,0,1-6.814,3.016c-.107,0-.212.005-.316.005a9.915,9.915,0,0,1-9.9-9.6c0-.105-.005-.211-.005-.316a9.915,9.915,0,0,1,9.6-9.9h0c.106,0,.211-.005.317-.005a9.915,9.915,0,0,1,9.9,9.6l-.833.026.833-.026c0,.106,0,.211,0,.316A9.883,9.883,0,0,1,317.262,1015.353Z" transform="translate(-292.273 -990.596)" fill="#4b4b4b"/>
  <path id="パス_66" data-name="パス 66" d="M310.672,1016.706c.232-.015.46-.039.686-.072a3.039,3.039,0,0,0,.275-.2,5.6,5.6,0,0,0,1.356-1.779c.118-.228.228-.475.333-.73h-2.65Z" transform="translate(-292.273 -990.596)" fill="#4b4b4b"/>
  <path id="パス_67" data-name="パス 67" d="M314.3,1009.007h-3.631v3.873H313.7A15.261,15.261,0,0,0,314.3,1009.007Z" transform="translate(-292.273 -990.596)" fill="#4b4b4b"/>
  <path id="パス_68" data-name="パス 68" d="M311.633,1000.533a3.263,3.263,0,0,0-.28-.2c-.224-.033-.452-.055-.681-.07v2.782h2.653A6.366,6.366,0,0,0,311.633,1000.533Z" transform="translate(-292.273 -990.596)" fill="#4b4b4b"/>
  <path id="パス_69" data-name="パス 69" d="M313.709,1004.088h-3.037v3.873h3.635A15.3,15.3,0,0,0,313.709,1004.088Z" transform="translate(-292.273 -990.596)" fill="#4b4b4b"/>
</svg>
