<svg id="レイヤー_1" data-name="レイヤー 1" xmlns="http://www.w3.org/2000/svg" viewBox="0 0 350 60"><defs><style>.cls-1{fill:#23ade5;}</style></defs><path class="cls-1" d="M3.64,17.32c0-1.06,1-1.59,2-1.59a1.74,1.74,0,0,1,2,1.59V42.57a1.74,1.74,0,0,1-1.95,1.59c-1,0-2-.53-2-1.59Z"/><path class="cls-1" d="M17.19,21.24v21.3a1.68,1.68,0,0,1-1.88,1.59,1.69,1.69,0,0,1-1.87-1.59V18.63a2.87,2.87,0,0,1,3-2.9A2.76,2.76,0,0,1,18.85,17L32,38.61V17.32a1.71,1.71,0,0,1,1.88-1.63,1.68,1.68,0,0,1,1.87,1.63v24a2.81,2.81,0,0,1-3,2.79,2.77,2.77,0,0,1-2.44-1.27Z"/><path class="cls-1" d="M41.67,17.32c0-1.06,1-1.59,2-1.59a1.74,1.74,0,0,1,1.94,1.59V42.57a1.74,1.74,0,0,1-1.94,1.59c-1,0-2-.53-2-1.59Z"/><path class="cls-1" d="M70.64,36.28h-15L52.6,43a1.93,1.93,0,0,1-1.81,1.2A1.76,1.76,0,0,1,49,41.65l11-24a3.47,3.47,0,0,1,6.23,0l11,24a1.92,1.92,0,0,1,.21.82,1.83,1.83,0,0,1-2,1.69A2,2,0,0,1,73.71,43ZM63.49,20.47a.37.37,0,0,0-.32-.22.38.38,0,0,0-.35.22L57.23,32.74H69Z"/><path class="cls-1" d="M84.4,43.74q-3.83,0-3.82-3.82V20q0-3.82,3.82-3.82h6.4c8.77,0,14.43,6.08,14.43,13.76,0,8.31-5.2,13.83-13.93,13.83Zm6.9-3.57c6.29,0,10.22-4.49,10.22-10.26A10.22,10.22,0,0,0,91,19.72H85.42c-.74,0-1.06.32-1.06,1.1V39.07c0,.78.32,1.1,1.06,1.1Z"/><path class="cls-1" d="M141.6,45.19V33.6c0-1.13-.38-1.63-1.9-1.63V45.19h-7.86V32c-1.14.08-1.94.57-1.94,1.63V45.19H119.83v-15c0-4.79,3.57-7.94,9.12-7.94h13.64c5.51,0,9.12,3.15,9.12,7.94v15Z"/><path class="cls-1" d="M170.06,36.28H157.75V38.4c0,2.51.88,4,4.38,4h14.15v2.87H161.71c-4.88,0-7.15-2.37-7.15-6.87V29.8c0-3.39,2-6.4,7.43-6.4h8c5.2,0,6.65,2.94,6.65,5.94v1.49C176.6,34.08,175.25,36.28,170.06,36.28Zm3.36-6.76c0-1.91-.89-3.22-3.72-3.22h-7.32c-3.71,0-4.63,1.7-4.63,3.68V33.8H169.7c2.83,0,3.72-1.06,3.72-3Z"/><path class="cls-1" d="M195.21,36.28H182.9V38.4c0,2.51.88,4,4.38,4h14.15v2.87H186.86c-4.88,0-7.15-2.37-7.15-6.87V29.8c0-3.39,2-6.4,7.43-6.4h8c5.2,0,6.65,2.94,6.65,5.94v1.49C201.75,34.08,200.4,36.28,195.21,36.28Zm3.36-6.76c0-1.91-.89-3.22-3.72-3.22h-7.32c-3.71,0-4.63,1.7-4.63,3.68V33.8h11.95c2.83,0,3.72-1.06,3.72-3Z"/><path class="cls-1" d="M213.78,26.48V38.33c0,2.86,1.41,3.82,4.14,3.82h5.41v3h-5.91c-4.53,0-6.79-2.12-6.79-6.3V26.48h-6.12V23.4h6.12V18.2h3.15v5.2h10.71v3.08Z"/><path class="cls-1" d="M242.61,45.19H227.89V42.4H242c3.12,0,4.14-1.14,4.14-3.12V38.4c0-2-1-3.11-4.14-3.11h-6.68c-5.06,0-7.11-2.16-7.11-5.73v-.32c0-4.14,1.95-5.91,7.07-5.91h13V26.2H235.57c-3,0-4,.77-4,3.11v.21c0,1.95,1.06,3.11,4,3.11h6.82c5,0,7.08,2.13,7.08,5.73v1C249.47,42.93,247.56,45.19,242.61,45.19Z"/><path class="cls-1" d="M286.33,45.23H272.67c-5.41,0-7.42-2.55-7.42-7.54V16.4h3v21c0,3.29,1.06,4.74,4.63,4.74H278V16.4h2.9V42.15H286c3.58,0,4.6-1.52,4.6-4.74v-21h3.08V37.69C293.72,42.89,291.74,45.23,286.33,45.23Z"/><path class="cls-1" d="M313.14,36.28H300.83V38.4c0,2.51.89,4,4.39,4h14.15v2.87H304.79c-4.88,0-7.14-2.37-7.14-6.87V29.8c0-3.39,2-6.4,7.43-6.4H313c5.2,0,6.65,2.94,6.65,5.94v1.49C319.68,34.08,318.34,36.28,313.14,36.28Zm3.36-6.76c0-1.91-.88-3.22-3.71-3.22h-7.32c-3.72,0-4.64,1.7-4.64,3.68V33.8h12c2.83,0,3.71-1.06,3.71-3Z"/><path class="cls-1" d="M337.19,45.23h-5.05c-5.73,0-8.63-3.19-8.63-8.71V16.4h3.11v9.27a10.15,10.15,0,0,1,6.47-2.27h4.18c5.65,0,8.52,3.68,8.52,8.7v4.42C345.79,41.62,343.24,45.23,337.19,45.23Zm5.49-12.84c0-3.4-1.88-5.91-6.09-5.91h-3.25c-4.25,0-6.72,2.05-6.72,6.05v3.71c0,3.82,1.94,5.94,6.08,5.94h3.89c4.28,0,6.09-2.26,6.09-5.94Z"/></svg>